<svg width="1200" height="600" viewBox="0 0 1200 600" fill="none" xmlns="http://www.w3.org/2000/svg">
    <path opacity="0.5" d="M1102.4 506.901C1098.58 490.12 1113.53 479.632 1128.82 474.039C1153.85 464.25 1174.71 446.421 1186.87 422.298C1197.3 402.022 1204.6 377.55 1196.6 355.875C1179.22 307.63 1141.68 312.525 1134.73 289.801C1127.78 267.077 1145.51 238.41 1158.37 219.532C1171.58 200.654 1216.42 152.409 1166.36 70.2539C1116.31 -11.9015 1015.85 0.334398 862.895 1.03359C709.945 1.73279 556.308 6.97675 402.307 42.6357C248.305 78.2946 91.8871 154.856 64.0779 170.588C36.2688 186.32 2.55024 206.946 10.893 221.629C18.8881 235.963 42.8735 233.516 49.1305 247.5C55.3876 261.134 44.6116 280.711 26.188 305.183C7.41683 329.655 -9.96387 371.257 6.72161 385.591C23.4071 399.924 42.1783 375.452 56.0828 385.591C69.6398 395.729 67.2065 405.168 45.3068 429.64C28.9689 447.819 -6.14012 512.844 14.3691 516.34C50.8686 522.283 123.52 478.234 147.853 488.023C172.186 497.811 82.8491 570.528 194.086 586.609C305.322 602.69 482.605 539.763 742.621 546.056C1002.64 552.349 1126.73 627.162 1161.83 589.406C1196.26 551.3 1109.35 539.064 1102.4 506.901Z" fill="#1B1B4F"/>
</svg>
