<svg xmlns="http://www.w3.org/2000/svg" width="1366" height="648" fill="none"><g fill="#606BF1" opacity=".25"><path d="M114.503 169.378c.6 0 1.2-.2 1.7-.5s.9-.8 1.1-1.401c.2-.6.3-1.2.2-1.8-.1-.601-.4-1.101-.8-1.601-.4-.4-1-.7-1.6-.8-.6-.1-1.2-.1-1.8.2-.6.2-1 .6-1.4 1.1-.3.5-.5 1.101-.5 1.701 0 .4.1.8.2 1.2.2.401.4.701.7 1.001.3.3.6.5 1 .7.4.1.8.2 1.2.2ZM23.801 254.918c.6 0 1.2-.2 1.7-.5s.9-.801 1.1-1.401c.2-.6.3-1.201.2-1.801-.1-.6-.4-1.1-.8-1.6-.4-.401-1-.701-1.6-.801-.6-.1-1.2-.1-1.8.2-.6.2-1 .601-1.4 1.101-.3.5-.5 1.1-.5 1.701 0 .8.3 1.6.9 2.2a3.1 3.1 0 0 0 2.2.901ZM447.011 49.322c.2 0 .3-.1.5-.1.1-.1.3-.2.3-.4.1-.2.1-.3 0-.5 0-.2-.1-.3-.2-.4-.1-.1-.3-.2-.4-.2h-.5c-.2.1-.3.2-.4.3-.1.1-.1.3-.1.5s.1.5.3.6c.1.1.3.2.5.2ZM270.906 144.867c.4 0 .9-.1 1.2-.4.4-.2.6-.6.8-1.001.2-.4.2-.8.1-1.3-.1-.4-.3-.801-.6-1.101-.3-.3-.7-.5-1.1-.6-.4-.1-.9 0-1.3.1-.4.2-.7.4-1 .8-.2.401-.4.801-.4 1.201 0 .6.2 1.1.6 1.501.6.5 1.1.8 1.7.8ZM300.208 256.919c.4 0 .9-.1 1.2-.4.4-.2.6-.601.8-1.001.2-.4.2-.8.1-1.3-.1-.401-.3-.801-.6-1.101-.3-.3-.7-.5-1.1-.6-.4-.1-.9 0-1.3.1-.4.2-.7.4-1 .8-.2.4-.4.801-.4 1.201 0 .3.1.6.2.8.1.3.3.5.5.7.2.201.4.401.7.501.3.2.6.3.9.3ZM251.305 224.103c.2 0 .3-.1.5-.1.1-.1.3-.2.3-.4.1-.2.1-.3.1-.5s-.1-.3-.2-.4c-.1-.1-.3-.2-.4-.2-.2 0-.3 0-.5.1s-.3.2-.4.3c-.1.1-.1.3-.1.5s.1.5.3.6c-.1 0 .1.1.4.1ZM260.007 204.394c.2 0 .3-.1.5-.1.1-.1.3-.2.3-.4.1-.2.1-.3.1-.5s-.1-.3-.2-.4c-.1-.1-.3-.2-.4-.2-.2 0-.3 0-.5.1s-.3.2-.4.3c-.1.1-.1.3-.1.5s.1.5.3.6c-.1 0 .2.1.4.1ZM299.307 199.992c.2 0 .3-.1.5-.1.1-.1.3-.2.3-.4.1-.2.1-.3.1-.5s-.1-.3-.2-.4c-.1-.1-.3-.2-.4-.2h-.5c-.2.1-.3.2-.4.3-.1.1-.1.3-.1.5s.1.5.3.6c0 .1.2.2.4.2ZM238.206 115.052c.2 0 .3-.1.5-.2.1-.1.3-.2.3-.4.1-.2.1-.3 0-.5 0-.2-.1-.3-.2-.4-.1-.1-.3-.2-.4-.2-.2 0-.3 0-.5.1s-.3.2-.4.3c-.1.1-.1.3-.1.5 0 .1 0 .2.1.3 0 .1.1.2.2.3.1.1.2.1.3.2h.2ZM264.406 62.528c.2 0 .3-.1.5-.1.1-.1.3-.2.3-.4.1-.2.1-.3.1-.5s-.1-.3-.2-.4c-.1-.1-.3-.2-.4-.2h-.5c-.2.1-.3.2-.4.3-.1.1-.2.3-.2.5 0 .1 0 .2.1.3 0 .1.1.2.2.3.1.1.2.2.3.2-.1-.1.1 0 .2 0ZM264.406 81.338c.4 0 .9-.1 1.2-.4.4-.2.6-.6.8-1.001.2-.4.2-.8.1-1.3-.1-.4-.3-.801-.6-1.101-.3-.3-.7-.5-1.1-.6-.4-.1-.9 0-1.3.1-.4.2-.7.4-1 .8-.2.4-.4.8-.4 1.2 0 .6.2 1.101.6 1.501.4.4 1.1.8 1.7.8ZM179.605 106.248c.2 0 .3-.1.5-.1.1-.1.3-.2.3-.4.1-.2.1-.3.1-.5s-.1-.3-.2-.4c-.1-.1-.3-.2-.4-.2h-.5c-.2.1-.3.2-.4.3-.1.1-.1.3-.1.5s.1.5.3.6c-.1.1.2.2.4.2ZM75.602 20.009c.2 0 .3-.1.5-.2.1-.1.3-.2.3-.4.1-.2.1-.3 0-.5 0-.2-.1-.3-.2-.4-.1-.1-.3-.2-.4-.2-.2 0-.3 0-.5.1s-.3.2-.4.3c-.1.1-.1.3-.1.5 0 .1 0 .2.1.3 0 .1.1.2.2.3.1.1.2.1.3.2h.2ZM15.3 73.433c.2 0 .3-.1.5-.1.1-.1.3-.2.3-.4.1-.2.1-.3 0-.5 0-.2-.1-.3-.2-.4-.1-.1-.3-.2-.4-.2H15c-.2.1-.3.2-.4.3-.1.1-.1.3-.1.5 0 .1 0 .2.1.3 0 .1.1.2.2.3.1.1.2.1.3.2h.2ZM177.405 186.886c.2 0 .3-.1.5-.1.1-.1.3-.2.3-.4.1-.2.1-.3 0-.5 0-.2-.1-.3-.2-.5-.1-.1-.3-.2-.5-.2s-.3 0-.5.1-.3.2-.4.3c-.1.1-.1.3-.1.5 0 .1 0 .2.1.3 0 .1.1.2.2.3.1.1.2.1.3.2h.3ZM61.202 86.54c.2 0 .3-.1.5-.1.1-.1.3-.2.3-.4.1-.2.1-.3 0-.5 0-.2-.1-.3-.2-.4-.1-.1-.3-.2-.4-.2h-.5c-.2.1-.3.2-.4.3-.1.1-.1.3-.1.5 0 .1 0 .2.1.3 0 .1.1.2.2.3.1.1.2.1.3.2h.2ZM225.006 178.082c.2 0 .3-.1.5-.1.1-.1.3-.2.3-.4.1-.2.1-.3.1-.5s-.1-.3-.2-.4c-.1-.1-.3-.2-.4-.2h-.5c-.2.1-.3.2-.4.3-.1.1-.1.3-.1.5s.1.5.3.6c0 .1.2.2.4.2ZM729.319 158.373c.2 0 .3 0 .5-.1.1-.1.3-.2.3-.4s.1-.3.1-.5-.1-.3-.2-.5c-.1-.1-.3-.2-.5-.2s-.3 0-.5.1-.3.2-.4.3c-.1.1-.1.3-.1.5s.1.5.3.6c.1.1.3.2.5.2ZM796.22 108.449c.2 0 .3-.1.5-.1.1-.1.3-.2.3-.4.1-.2.1-.3 0-.5 0-.2-.1-.3-.2-.4-.1-.1-.3-.2-.4-.2-.1 0-.3 0-.5.1s-.3.2-.4.3c-.1.1-.1.3-.1.5s.1.5.3.6c0 0 .2.1.5.1ZM776.919 134.361c.2 0 .3 0 .5-.1.1-.1.3-.2.3-.4.1-.2.1-.3.1-.5s-.1-.3-.2-.5c-.1-.1-.3-.2-.5-.2s-.3 0-.5.1-.3.2-.4.3c-.1.1-.1.3-.1.5s.1.5.3.6c.1.1.3.2.5.2ZM703.117 112.451c.2 0 .3-.1.5-.1.1-.1.3-.2.3-.4.1-.2.1-.3 0-.5 0-.2-.1-.3-.2-.4-.1-.1-.3-.2-.4-.2h-.5c-.2.1-.3.2-.4.3-.1.1-.1.3-.1.5s.1.5.3.6c0 .1.3.2.5.2ZM27.501 164.075c.2 0 .3-.1.5-.1.1-.1.3-.2.3-.4.1-.2.1-.3 0-.5 0-.2-.1-.3-.2-.4-.1-.1-.3-.2-.4-.2-.2 0-.3 0-.5.1s-.3.2-.4.3c-.1.1-.1.3-.1.5s.1.5.3.6c.1 0 .3.1.5.1ZM216.706 45.02c.2 0 .3 0 .5-.1.1-.1.3-.2.3-.4.1-.2.1-.3.1-.5s-.1-.3-.2-.5c-.1-.1-.3-.2-.5-.2h-.5c-.2 0-.3.2-.4.3-.1.1-.2.3-.2.5 0 .1 0 .2.1.3 0 .1.1.2.2.3.1.1.2.1.3.2.1 0 .2.1.3.1ZM380.61 27.913c.4 0 .9-.1 1.2-.4.4-.2.6-.6.8-1 .2-.401.2-.801.1-1.301-.1-.4-.3-.8-.6-1.1-.3-.301-.7-.501-1.1-.601-.4-.1-.9 0-1.3.1-.4.2-.7.4-1 .8-.2.4-.4.8-.4 1.2 0 .601.2 1.101.6 1.502.6.6 1.1.8 1.7.8ZM427.41 1.7c.2 0 .3 0 .5-.1.1-.1.3-.2.3-.4.1-.2.1-.3.1-.5s-.1-.3-.2-.5c-.1-.1-.3-.2-.5-.2s-.4 0-.5.1c-.2.1-.3.2-.4.3-.1.1-.1.3-.1.5s.1.5.3.6c0 .1.2.2.5.2ZM350.509 19.109c.4 0 .9-.1 1.2-.4.4-.2.6-.6.8-1 .2-.401.2-.801.1-1.302-.1-.4-.3-.8-.6-1.1-.3-.3-.7-.5-1.1-.6-.4-.1-.9 0-1.3.1-.4.2-.7.4-1 .8-.2.4-.4.8-.4 1.2 0 .3.1.601.2.801.1.3.3.5.5.7.2.2.4.4.7.5.3.3.6.3.9.3ZM373.21 3.8c.2 0 .3 0 .5-.1.1-.1.3-.2.3-.4.1-.2.1-.3.1-.5s-.1-.3-.2-.5c-.1-.1-.3-.2-.5-.2s-.4 0-.5.1c-.2.1-.3.2-.4.3-.1.1-.1.3-.1.5s.1.5.3.6c0 .1.2.2.5.2ZM568.914 43.22c.6 0 1.2-.2 1.7-.5s.9-.8 1.1-1.401c.2-.6.3-1.2.2-1.8-.1-.601-.4-1.101-.8-1.601-.4-.4-1-.7-1.6-.8-.6-.1-1.2-.1-1.8.2-.6.2-1 .6-1.4 1.1-.3.5-.5 1.1-.5 1.7 0 .8.3 1.601.9 2.201.7.6 1.4.9 2.2.9ZM575.515 28.312c.2 0 .3-.1.5-.1.1-.1.3-.2.3-.4.1-.2.1-.3 0-.5 0-.2-.1-.3-.2-.4-.1-.1-.3-.2-.4-.2h-.5c-.2.1-.3.2-.4.3-.1.1-.1.3-.1.5s.1.5.3.6c0 .1.3.2.5.2ZM324.708 55.025c.2 0 .3-.1.5-.1.1-.1.3-.2.3-.4.1-.2.1-.3 0-.5 0-.2-.1-.3-.2-.4-.1-.1-.3-.2-.4-.2h-.5c-.2.1-.3.2-.4.3-.1.1-.1.3-.1.5s.1.5.3.6c0 .1.2.2.5.2ZM589.515 121.656c.4 0 .9-.1 1.2-.4.4-.2.6-.6.8-1 .2-.401.2-.801.1-1.301-.1-.4-.3-.8-.6-1.1-.3-.301-.7-.501-1.1-.601-.4-.1-.9 0-1.3.1-.4.2-.7.4-1 .801-.2.4-.4.8-.4 1.2 0 .6.2 1.101.6 1.501.5.5 1.1.8 1.7.8ZM628.816 122.956c.2 0 .3-.1.5-.2.1-.1.3-.2.3-.4.1-.2.1-.3 0-.5 0-.2-.1-.3-.2-.4-.1-.1-.3-.2-.4-.2-.2 0-.3 0-.5.1s-.3.2-.4.3c-.1.1-.1.3-.1.5 0 .1 0 .2.1.3 0 .1.1.2.2.3.1.1.2.1.3.2 0-.1.1 0 .2 0ZM1047.93 125.958c.2 0 .3 0 .5-.1s.3-.2.3-.4c.1-.2.1-.3.1-.5s-.1-.3-.2-.5c-.1-.1-.3-.2-.5-.2h-.5c-.2.1-.3.2-.4.3-.1.1-.2.3-.2.5 0 .1 0 .2.1.3 0 .1.1.2.2.3.1.1.2.1.3.2 0 .1.2.1.3.1ZM140.304 54.225c.4 0 .8-.1 1.2-.4.4-.2.6-.6.8-1 .2-.4.2-.801.1-1.301-.1-.4-.3-.8-.6-1.1-.3-.3-.7-.5-1.1-.6-.4-.101-.9 0-1.3.1-.4.2-.7.4-1 .8-.2.4-.4.8-.4 1.2 0 .3.1.6.2.8.1.3.3.5.5.7.2.2.5.4.7.5.3.2.6.301.9.301ZM322.508 103.648c.4 0 .9-.1 1.2-.4.4-.2.6-.601.8-1.001.2-.4.2-.8.1-1.3-.1-.4-.3-.801-.6-1.1-.3-.3-.7-.501-1.1-.601-.4-.1-.9 0-1.3.1-.4.2-.7.4-1 .8-.2.401-.4.801-.4 1.201 0 .6.2 1.1.6 1.501.5.6 1.1.8 1.7.8ZM434.91 398.584c.2 0 .3-.1.5-.1.1-.1.3-.2.3-.4.1-.2.1-.3 0-.5 0-.2-.1-.3-.2-.4-.1-.1-.3-.2-.4-.2h-.5c-.2.1-.3.2-.4.3-.1.1-.1.3-.1.5s.1.5.3.6c0 .1.3.2.5.2ZM899.322 213.999c.4 0 .9-.1 1.2-.4.4-.2.6-.6.8-1.001.2-.4.2-.8.1-1.3-.1-.4-.3-.801-.6-1.101-.3-.3-.7-.5-1.1-.6-.4-.1-.9 0-1.3.1-.4.2-.7.4-1 .8-.2.401-.4.801-.4 1.201 0 .6.2 1.1.6 1.501.6.6 1.1.8 1.7.8ZM732.819 34.516c.4 0 .9-.1 1.2-.4.4-.2.6-.6.8-1 .2-.4.2-.801.1-1.301-.1-.4-.3-.8-.6-1.1-.3-.3-.7-.501-1.1-.601-.4-.1-.9 0-1.3.1-.4.2-.7.4-1 .8-.2.4-.4.8-.4 1.2 0 .301.1.601.2.801.1.3.3.5.5.7.2.2.4.4.7.5.3.2.6.3.9.3ZM759.919 250.316c.4 0 .9-.1 1.2-.4.4-.201.6-.601.8-1.001.2-.4.2-.8.1-1.3-.1-.401-.3-.801-.6-1.101-.3-.3-.7-.5-1.1-.6-.4-.1-.9 0-1.3.1-.4.2-.7.4-1 .8-.3.4-.4.801-.4 1.201 0 .3.1.6.2.8.1.3.3.5.5.7.2.2.4.401.7.501.3.1.6.3.9.3ZM775.619 3.8c.2 0 .3 0 .5-.1.1-.1.3-.2.3-.4.1-.2.1-.3.1-.5s-.1-.3-.2-.5c-.1-.1-.3-.2-.5-.2s-.3 0-.5.1-.3.2-.4.3c-.1.1-.1.3-.1.5s.1.5.3.6c.1.1.3.2.5.2ZM694.818 8.203c.6 0 1.2-.2 1.7-.5s.9-.8 1.1-1.401c.2-.6.3-1.2.2-1.8-.1-.601-.4-1.101-.8-1.602-.4-.4-1-.7-1.6-.8-.6-.1-1.2-.1-1.8.2-.6.2-1 .6-1.4 1.1-.3.5-.5 1.101-.5 1.701 0 .8.3 1.601.9 2.201.6.6 1.3.9 2.2.9ZM845.122 103.647c.2 0 .3-.1.5-.2.1-.1.3-.2.3-.4.1-.2.1-.3 0-.5 0-.2-.1-.3-.2-.5-.1-.1-.3-.2-.5-.2s-.3 0-.5.1-.3.2-.4.3c-.1.1-.1.3-.1.5 0 .1 0 .2.1.3 0 .1.1.2.2.3.1.1.2.1.3.2.1.1.2.1.3.1ZM838.62 138.864c.4 0 .9-.1 1.2-.4.4-.2.6-.6.8-1 .2-.401.2-.801.1-1.301-.1-.4-.3-.8-.6-1.1-.3-.301-.7-.501-1.1-.601-.4-.1-.9 0-1.3.1-.4.2-.7.4-1 .801-.2.4-.4.8-.4 1.2 0 .6.2 1.101.6 1.501.6.6 1.1.8 1.7.8ZM730.218 116.354c.6 0 1.2-.2 1.7-.5.5-.301.9-.801 1.1-1.401.2-.6.3-1.201.2-1.801-.1-.6-.4-1.1-.8-1.601-.4-.4-1-.7-1.6-.8-.6-.1-1.2-.1-1.8.2-.6.2-1 .6-1.4 1.101-.3.5-.5 1.1-.5 1.7 0 .801.3 1.601.9 2.201a3.1 3.1 0 0 0 2.2.901ZM867.322 177.882c.6 0 1.2-.2 1.7-.5s.9-.8 1.1-1.401c.2-.6.3-1.2.2-1.8-.1-.601-.4-1.101-.8-1.601-.4-.4-1-.7-1.6-.8-.6-.101-1.2-.101-1.8.2-.6.2-1 .6-1.4 1.1-.3.5-.5 1.101-.5 1.701 0 .8.3 1.601.9 2.201.6.5 1.3.9 2.2.9ZM765.02 55.225c.2 0 .3-.1.5-.2.1-.1.3-.2.3-.4.1-.2.1-.3 0-.5 0-.2-.1-.3-.2-.4-.1-.1-.3-.2-.4-.2-.2 0-.3 0-.5.1s-.3.2-.4.3c-.1.1-.1.3-.1.5 0 .1 0 .2.1.3 0 .1.1.2.2.3.1.1.2.1.3.2h.2ZM923.324 10.405c.6 0 1.2-.2 1.7-.5s.9-.8 1.1-1.401c.2-.6.3-1.2.2-1.801-.1-.6-.4-1.1-.8-1.6-.4-.4-1-.701-1.6-.801-.6-.1-1.2-.1-1.8.2-.6.2-1 .6-1.4 1.1-.3.5-.5 1.101-.5 1.701 0 .8.3 1.601.9 2.201.6.6 1.4.9 2.2.9ZM990.624 64.73c.2 0 .4-.1.6-.3.1-.2.2-.4.2-.6 0-.2-.1-.4-.2-.6-.1-.2-.3-.3-.6-.3h-.4c-.1 0-.2.1-.3.2-.1.1-.2.2-.2.3-.1.1-.1.2-.1.4 0 .1 0 .2.1.4.1.1.1.2.2.3.1.1.2.1.3.2h.4ZM939.923 98.445c.2 0 .3 0 .5-.1.1-.1.3-.2.3-.4.1-.2.1-.3.1-.5s-.1-.3-.2-.5c-.1-.1-.3-.2-.5-.2s-.4 0-.5.1c-.2.1-.3.2-.4.3-.1.1-.1.3-.1.5s.1.5.3.6c.1.1.3.2.5.2ZM974.525 9.504c.4 0 .9-.1 1.2-.4.4-.2.6-.6.8-1 .2-.4.2-.8.1-1.3-.1-.401-.3-.801-.6-1.101-.3-.3-.7-.5-1.1-.6-.4-.1-.9 0-1.3.1-.4.2-.7.4-1 .8-.2.4-.4.8-.4 1.2 0 .6.2 1.1.6 1.501.5.6 1.1.8 1.7.8ZM1054.03 71.232c.2 0 .4-.1.6-.3.1-.2.2-.4.2-.6 0-.2-.1-.4-.2-.6-.2-.2-.4-.3-.6-.3-.2 0-.4.1-.6.3-.1.2-.2.4-.2.6 0 .2.1.4.2.6.2.2.4.3.6.3ZM963.525 117.254c.4 0 .9-.1 1.2-.4.4-.2.6-.6.8-1 .2-.401.2-.801.1-1.301-.1-.4-.3-.8-.6-1.1-.3-.301-.7-.501-1.1-.601-.4-.1-.9 0-1.3.1-.4.2-.7.4-1 .801-.3.4-.4.8-.4 1.2 0 .6.2 1.101.6 1.501.6.5 1.2.8 1.7.8ZM1108.23 184.685c1 0 2-.3 2.9-.9.9-.6 1.5-1.401 1.9-2.401.4-1.001.5-2.001.3-3.002-.2-1-.7-2-1.4-2.701-.7-.7-1.7-1.2-2.7-1.4-1-.2-2.1-.1-3 .3-1 .4-1.8 1.1-2.4 1.901-.6.9-.9 1.9-.9 2.901 0 1.401.6 2.701 1.5 3.702 1.1 1 2.4 1.6 3.8 1.6ZM696.218 74.934c1 0 2-.3 2.9-.9.9-.6 1.5-1.4 1.9-2.401.4-1 .5-2 .3-3.001-.2-1-.7-2.001-1.4-2.702-.7-.7-1.7-1.2-2.7-1.4-1-.2-2.1-.1-3 .3-1 .4-1.8 1.1-2.4 1.9-.6.901-.9 1.902-.9 2.902 0 .7.1 1.4.4 2.001.3.6.7 1.2 1.1 1.7.5.5 1.1.901 1.7 1.101.7.4 1.4.5 2.1.5ZM1045.03 25.211c1 0 2.1-.3 2.9-.9.8-.6 1.5-1.4 1.9-2.401.4-1 .5-2 .3-3.001-.2-1-.7-2.001-1.4-2.701-.7-.7-1.7-1.201-2.7-1.401-1-.2-2.1-.1-3 .3-1 .4-1.8 1.1-2.4 1.9-.6.901-.9 1.902-.9 2.902 0 1.4.6 2.701 1.6 3.702.9 1.1 2.3 1.6 3.7 1.6ZM742.918 193.389c1 0 2.1-.3 2.9-.9.8-.6 1.5-1.401 1.9-2.401.4-1.001.5-2.001.3-3.002-.2-1-.7-2-1.4-2.701-.7-.7-1.7-1.2-2.7-1.4-1-.2-2.1-.1-3 .3-1 .4-1.8 1.1-2.4 1.901-.6.9-.9 1.9-.9 2.901 0 1.401.6 2.701 1.5 3.702 1 1.1 2.4 1.6 3.8 1.6ZM1013.43 201.793c.3 0 .5-.1.7-.2.2-.1.4-.3.5-.6.1-.2.1-.5.1-.8-.1-.3-.2-.501-.4-.701-.2-.2-.4-.3-.7-.4-.3-.1-.5 0-.8.1-.2.1-.5.3-.6.5-.2.201-.2.501-.2.701 0 .3.1.7.4.9.3.3.6.5 1 .5ZM1130.03 77.835c.2 0 .5-.1.6-.3.2-.2.3-.4.3-.6 0-.2-.1-.5-.3-.6-.2-.2-.4-.3-.6-.3-.2 0-.5.1-.6.3-.2.2-.3.4-.3.6 0 .2.1.5.3.6.2.2.4.3.6.3ZM1180.23 21.91c.2 0 .3-.1.5-.1.1-.1.3-.2.3-.4.1-.2.1-.3.1-.5s-.1-.3-.2-.4c-.1-.1-.3-.2-.4-.2h-.5c-.2.1-.3.2-.4.3-.1.1-.1.3-.1.5s.1.5.3.6c-.1.1.2.2.4.2ZM1223.13 25.21c.2 0 .3-.1.5-.1.1-.1.3-.2.3-.4.1-.2.1-.3 0-.5 0-.2-.1-.3-.2-.4-.1-.1-.3-.2-.4-.2h-.5c-.2.1-.3.2-.4.3-.1.1-.2.3-.2.5 0 .1 0 .2.1.3 0 .1.1.2.2.3.1.1.2.1.3.2h.3ZM1119.53 50.623c.2 0 .3-.1.5-.1s.3-.2.3-.4c.1-.2.1-.3.1-.5s-.1-.3-.2-.4c-.1-.1-.3-.2-.4-.2h-.5c-.2.1-.3.2-.4.3-.1.1-.2.3-.2.5s.1.5.3.6c.1.2.3.2.5.2ZM620.516 16.107c.2 0 .3-.1.5-.2.1-.1.3-.2.3-.4.1-.2.1-.3 0-.5 0-.2-.1-.3-.2-.4-.1-.1-.3-.2-.4-.2-.2 0-.3 0-.5.1s-.3.2-.4.3c-.1.1-.1.3-.1.5 0 .1 0 .2.1.3 0 .1.1.2.2.3.1.1.2.1.3.2 0-.1.1 0 .2 0ZM660.717 37.117c.2 0 .3-.1.5-.1.1-.1.3-.2.3-.4.1-.2.1-.3 0-.5 0-.2-.1-.3-.2-.4-.1-.1-.3-.2-.4-.2h-.5c-.2.1-.3.2-.4.3-.1.1-.1.3-.1.5s.1.5.3.6c.1.1.3.2.5.2ZM542.714 12.105c.2 0 .3-.1.5-.1.1-.1.299-.2.299-.4.1-.2.1-.3 0-.5 0-.2-.1-.3-.2-.5-.1-.1-.3-.2-.5-.2s-.4 0-.5.1c-.2.1-.299.2-.399.3-.1.1-.101.3-.101.5 0 .1.001.2.101.3 0 .1.099.2.199.3.1.1.201.1.301.2h.3ZM1198.23 184.685c.4 0 .9-.1 1.2-.4.3-.3.6-.6.8-1 .2-.4.2-.801.1-1.301-.1-.4-.3-.8-.6-1.1-.3-.3-.7-.501-1.1-.601-.4-.1-.9 0-1.3.1-.4.201-.7.401-1 .801-.2.4-.4.8-.4 1.2 0 .601.2 1.101.6 1.501.6.6 1.1.8 1.7.8ZM1287.73 9.504c.4 0 .8-.1 1.2-.4.4-.2.6-.6.8-1 .2-.4.2-.8.1-1.3-.1-.401-.3-.801-.6-1.101-.3-.3-.7-.5-1.1-.6-.4-.1-.9 0-1.3.1s-.7.4-1 .8c-.2.4-.4.8-.4 1.2 0 .6.2 1.1.6 1.501.6.6 1.2.8 1.7.8ZM1355.93 49.823c.4 0 .9-.1 1.2-.4.4-.2.6-.6.8-1 .2-.4.2-.801.1-1.301-.1-.4-.3-.8-.6-1.1-.3-.3-.7-.5-1.1-.601-.4-.1-.9 0-1.3.1-.4.2-.7.4-1 .8-.2.4-.4.8-.4 1.2 0 .601.2 1.101.6 1.502.6.5 1.2.8 1.7.8ZM1154.93 163.175c.4 0 .8-.1 1.2-.4.4-.2.6-.6.8-1 .2-.4.2-.801.1-1.301-.1-.4-.3-.8-.6-1.1-.3-.3-.7-.5-1.1-.601-.4-.1-.9 0-1.3.101-.4.1-.7.4-1 .8-.3.4-.4.8-.4 1.2 0 .601.2 1.101.6 1.501.6.6 1.2.8 1.7.8ZM1267.23 243.813c.4 0 .9-.1 1.2-.4.4-.201.6-.601.8-1.001.2-.4.2-.8.1-1.3-.1-.401-.3-.801-.6-1.101-.3-.3-.7-.5-1.1-.6-.4-.1-.9 0-1.3.1-.4.2-.7.4-1 .8-.2.4-.4.801-.4 1.201 0 .6.2 1.1.6 1.5.6.501 1.2.801 1.7.801ZM1282.13 298.037c.2 0 .5-.1.6-.3.2-.2.2-.4.2-.6 0-.2-.1-.5-.2-.6-.2-.2-.4-.3-.6-.3-.2 0-.4.1-.6.3-.2.2-.2.4-.2.6 0 .2.1.5.2.6.2.3.4.3.6.3ZM825.021 273.126c.6 0 1.2-.2 1.7-.5s.9-.8 1.1-1.401c.2-.6.3-1.2.2-1.8-.1-.601-.4-1.101-.8-1.601-.4-.4-1-.7-1.6-.8-.6-.1-1.2-.1-1.8.2-.6.3-1 .6-1.4 1.1-.4.5-.5 1.101-.5 1.701 0 .8.3 1.601.9 2.201.6.6 1.4.9 2.2.9ZM1269.43 116.754c.6 0 1.2-.2 1.7-.5s.9-.801 1.1-1.401c.2-.6.3-1.2.2-1.801-.1-.6-.4-1.1-.8-1.6-.4-.401-1-.701-1.6-.801-.6-.1-1.2-.1-1.8.2-.6.2-1 .601-1.4 1.101-.3.5-.5 1.1-.5 1.701 0 .4.1.8.2 1.2.2.4.4.7.7 1.001.3.3.6.5 1 .7.4.2.8.2 1.2.2ZM1342.03 133.862c.4 0 .8-.1 1.2-.4.4-.2.6-.601.8-1.001.2-.4.2-.8.1-1.3-.1-.501-.3-.801-.6-1.101-.3-.3-.7-.5-1.1-.6-.4-.1-.9 0-1.3.1-.4.2-.7.4-1 .8-.3.4-.4.801-.4 1.201 0 .3.1.6.2.8.1.3.3.5.5.701.2.2.4.4.7.5.3.3.6.3.9.3ZM932.923 184.685c.4 0 .9-.1 1.2-.4.4-.2.6-.6.8-1 .2-.4.2-.801.1-1.301-.1-.4-.3-.8-.6-1.1-.3-.3-.7-.501-1.1-.601-.4-.1-.9 0-1.3.1-.4.201-.7.401-1 .801-.2.4-.4.8-.4 1.2 0 .601.2 1.101.6 1.501.6.6 1.1.8 1.7.8ZM1108.53 131.661c.4 0 .9-.1 1.2-.4.4-.2.6-.601.8-1.001.2-.4.2-.8.1-1.3-.1-.401-.3-.801-.6-1.101-.3-.3-.7-.5-1.1-.6-.4-.1-.9 0-1.3.1-.4.2-.8.4-1 .8-.2.4-.4.801-.4 1.201 0 .6.2 1.1.6 1.5.6.601 1.1.801 1.7.801ZM1280.63 183.285c.4 0 .9-.1 1.2-.4.4-.201.6-.601.8-1.001.2-.4.2-.8.1-1.3-.1-.401-.3-.801-.6-1.101-.3-.3-.7-.5-1.1-.6-.4-.1-.9 0-1.3.1-.4.2-.7.4-1 .8-.2.4-.4.801-.4 1.201 0 .6.2 1.1.6 1.5.6.601 1.1.801 1.7.801ZM1181.53 70.933c.4 0 .9-.1 1.2-.4.3-.3.6-.6.8-1 .2-.401.2-.801.1-1.301-.1-.4-.3-.8-.6-1.1-.3-.301-.7-.501-1.1-.601-.4-.1-.9 0-1.3.1-.4.2-.8.4-1 .8-.2.4-.4.8-.4 1.2 0 .601.2 1.101.6 1.501.6.5 1.1.8 1.7.8ZM1028.63 238.109c.2 0 .4-.1.6-.3.2-.2.3-.4.3-.6 0-.2-.1-.5-.3-.6-.2-.2-.4-.3-.6-.3-.2 0-.5.1-.6.3-.2.2-.2.4-.2.6 0 .2.1.5.2.6.1.1.4.3.6.3ZM1361.63 202.994c.6 0 1.2-.2 1.7-.5.5-.301.9-.801 1.1-1.401.2-.6.3-1.201.2-1.801-.1-.6-.4-1.1-.8-1.6-.4-.401-1-.701-1.6-.801-.6-.1-1.2-.1-1.8.2-.6.2-1 .601-1.4 1.101-.3.5-.5 1.1-.5 1.7 0 .401.1.801.2 1.201.2.4.4.7.7 1 .3.301.6.501 1 .701.4.1.8.2 1.2.2ZM1225.33 233.708c1 0 2-.3 2.9-.9.9-.601 1.5-1.401 1.9-2.402.4-1 .5-2 .3-3.001-.2-1-.7-2.001-1.4-2.701-.7-.7-1.7-1.201-2.7-1.401-1-.2-2.1-.1-3 .301-1 .4-1.8 1.1-2.4 1.9-.6.901-.9 1.901-.9 2.902 0 1.4.5 2.701 1.5 3.701 1.1 1.101 2.4 1.601 3.8 1.601ZM484.212 24.411c1 0 2.1-.3 2.9-.9.9-.6 1.5-1.401 1.9-2.401.4-1 .5-2.001.3-3.002-.2-1-.7-2-1.4-2.7-.7-.701-1.7-1.201-2.7-1.401-1-.2-2.1-.1-3 .3-1 .4-1.8 1.1-2.4 1.9-.6.9-.9 1.901-.9 2.902 0 .7.1 1.4.4 2 .3.6.6 1.201 1.1 1.701.5.5 1.1.9 1.7 1.1.7.401 1.4.501 2.1.501ZM712.318 239.01c.2 0 .3-.1.5-.1.1-.1.3-.2.3-.4.1-.2.1-.3 0-.5 0-.2-.1-.3-.2-.4-.1-.1-.3-.2-.4-.2h-.5c-.2.1-.3.2-.4.3-.1.1-.1.3-.1.5s.1.5.3.6c0 .1.2.2.5.2ZM796.22 174.181c.4 0 .9-.1 1.2-.401.4-.2.6-.6.8-1 .2-.4.2-.8.1-1.301-.1-.4-.3-.8-.6-1.1-.3-.3-.7-.5-1.1-.6-.4-.1-.9 0-1.3.1-.4.2-.7.4-1 .8-.3.4-.4.8-.4 1.201 0 .6.2 1.1.6 1.5.5.6 1.1.801 1.7.801ZM790.52 199.992c.2 0 .3-.1.5-.2.1-.1.3-.2.3-.4.1-.2.1-.3 0-.5 0-.2-.1-.3-.2-.4-.1-.1-.3-.2-.4-.2-.1 0-.3 0-.5.1s-.3.2-.4.3c-.1.1-.1.3-.1.5 0 .1 0 .2.1.3 0 .1.1.2.2.3.1.1.2.1.3.2h.2ZM719.718 292.835c.4 0 .9-.1 1.2-.4.4-.2.6-.6.8-1 .2-.4.2-.8.1-1.301-.1-.5-.3-.8-.6-1.1-.3-.3-.7-.5-1.1-.6-.4-.101-.9 0-1.3.1-.4.2-.7.4-1 .8-.2.4-.4.8-.4 1.2 0 .601.2 1.101.6 1.501.6.6 1.1.8 1.7.8ZM714.518 318.647c.2 0 .3-.1.5-.1.1-.1.3-.2.3-.4.1-.2.1-.3 0-.5 0-.2-.1-.3-.2-.4-.1-.1-.3-.2-.4-.2h-.5c-.2.1-.3.2-.4.3-.1.1-.1.3-.1.5s.1.5.3.6c0 .1.2.2.5.2ZM575.914 414.592c.6 0 1.2-.2 1.7-.5.5-.301.9-.801 1.1-1.401.2-.6.3-1.201.2-1.801-.1-.6-.4-1.1-.8-1.601-.4-.4-1-.7-1.6-.8-.6-.1-1.2-.1-1.8.2-.6.2-1 .6-1.4 1.101-.3.5-.5 1.1-.5 1.7 0 .801.3 1.601.9 2.201.6.501 1.4.901 2.2.901ZM624.415 324.35c.4 0 .9-.1 1.2-.4.4-.2.6-.6.8-1.001.2-.4.2-.8.1-1.3-.1-.4-.3-.8-.6-1.101-.3-.3-.7-.5-1.1-.6-.4-.1-.9 0-1.3.1-.4.2-.7.4-1 .801-.2.4-.4.8-.4 1.2 0 .6.2 1.101.6 1.501.6.6 1.2.8 1.7.8ZM671.217 295.937c.4 0 .9-.1 1.2-.4.4-.2.6-.601.8-1.001.2-.4.2-.8.1-1.3-.1-.4-.3-.801-.6-1.101-.3-.3-.7-.5-1.1-.6-.4-.1-.9 0-1.3.1-.4.2-.7.4-1 .8-.2.401-.4.801-.4 1.201 0 .6.2 1.1.6 1.501.6.5 1.2.8 1.7.8ZM631.915 256.518c.2 0 .3-.1.5-.1.1-.1.3-.2.3-.4.1-.2.1-.3 0-.5 0-.2-.1-.3-.2-.4-.1-.1-.3-.2-.4-.2h-.5c-.2.1-.3.2-.4.3-.1.1-.1.3-.1.5s.1.5.3.6c0 .1.2.2.5.2ZM674.317 421.095c.4 0 .9-.1 1.2-.4.4-.2.6-.601.8-1.001.2-.4.2-.8.1-1.3-.1-.401-.3-.801-.6-1.101-.3-.3-.7-.5-1.1-.6-.4-.1-.9 0-1.3.1-.4.2-.7.4-1 .8-.2.4-.4.801-.4 1.201 0 .6.2 1.1.6 1.501.5.6 1.1.8 1.7.8ZM762.119 325.25c.4 0 .9-.1 1.2-.4.4-.2.6-.6.8-1 .2-.4.2-.8.1-1.301-.1-.4-.3-.8-.6-1.1-.3-.3-.7-.5-1.1-.6-.4-.101-.9 0-1.3.1-.4.2-.7.4-1 .8-.2.4-.4.8-.4 1.2 0 .601.2 1.101.6 1.501.6.6 1.1.8 1.7.8ZM630.615 67.331c.4 0 .9-.1 1.2-.4.4-.2.6-.6.8-1 .2-.4.2-.8.1-1.301-.1-.4-.3-.8-.6-1.1-.3-.3-.7-.5-1.1-.6-.4-.1-.9 0-1.3.1-.4.2-.7.4-1 .8-.2.4-.4.8-.4 1.2 0 .6.2 1.1.6 1.5.5.5 1.1.801 1.7.801ZM447.011 252.116c.2 0 .3 0 .5-.1.1-.1.3-.2.3-.4.1-.2.1-.3.1-.5s-.1-.3-.2-.5c-.1-.1-.3-.2-.5-.2s-.4 0-.5.1c-.2.1-.3.2-.4.3-.1.1-.1.3-.1.5s.1.5.3.6c.1.1.3.2.5.2ZM667.717 224.104c.4 0 .9-.1 1.2-.401.4-.2.6-.6.8-1 .2-.4.2-.8.1-1.301-.1-.4-.3-.8-.6-1.1-.3-.3-.7-.5-1.1-.6-.4-.1-.9 0-1.3.1-.4.2-.7.4-1 .8-.2.4-.4.8-.4 1.201 0 .6.2 1.1.6 1.5.6.501 1.1.801 1.7.801ZM252.606 287.133c.4 0 .9-.1 1.2-.4.4-.2.6-.601.8-1.001.2-.4.2-.8.1-1.3-.1-.401-.3-.801-.6-1.101-.3-.3-.7-.5-1.1-.6-.4-.1-.9 0-1.3.1-.4.2-.7.5-1 .8-.3.3-.4.801-.4 1.201 0 .3.1.6.2.8.1.3.3.5.5.7.2.201.4.401.7.501.3.2.6.3.9.3ZM297.308 305.841c.4 0 .9-.1 1.2-.4.4-.2.6-.6.8-1 .2-.4.2-.8.1-1.301-.1-.4-.3-.8-.6-1.1-.3-.3-.7-.5-1.1-.6-.4-.1-.9 0-1.3.1-.4.2-.7.4-1 .8-.2.4-.4.8-.4 1.2 0 .601.2 1.101.6 1.501.6.6 1.2.8 1.7.8ZM2.2 117.254c.4 0 .9-.1 1.2-.4.4-.2.6-.6.8-1 .2-.401.2-.801.1-1.301-.1-.4-.3-.8-.6-1.1-.3-.301-.7-.501-1.1-.601-.4-.1-.9 0-1.3.1-.4.2-.7.4-1 .801-.3.4-.3.9-.3 1.3 0 .6.2 1.101.6 1.501.4.4 1 .7 1.6.7ZM94.802 233.707c.2 0 .3-.1.5-.1.1-.1.3-.2.3-.4.1-.2.1-.3 0-.5 0-.2-.1-.3-.2-.4-.1-.1-.3-.2-.4-.2h-.5c-.2.1-.3.2-.4.3-.1.1-.1.3-.1.5s.1.5.3.6c.1.1.3.2.5.2ZM66.902 292.435c.2 0 .3-.1.5-.1.1-.1.3-.2.3-.4.1-.2.1-.3 0-.5 0-.2-.1-.3-.2-.4-.1-.1-.3-.2-.4-.2-.2 0-.3 0-.5.1s-.3.2-.4.3c-.1.1-.1.3-.1.5s.1.5.3.6c0 0 .2.1.5.1ZM181.705 294.336c.9 0 1.7-.3 2.4-.7.7-.5 1.3-1.201 1.6-2.001.3-.8.4-1.701.3-2.501a4.32 4.32 0 0 0-1.2-2.201c-.6-.6-1.4-1.001-2.2-1.201-.8-.2-1.7-.1-2.5.2-.8.3-1.5.901-2 1.601s-.7 1.601-.7 2.401c0 1.201.5 2.301 1.3 3.101.8.901 1.9 1.301 3 1.301ZM86.102 324.35c.9 0 1.7-.3 2.4-.7.7-.501 1.3-1.201 1.6-2.001.3-.801.4-1.701.2-2.501-.2-.801-.6-1.601-1.2-2.201-.6-.601-1.4-1.001-2.2-1.201-.8-.2-1.7-.1-2.5.2-.8.3-1.5.901-2 1.601s-.7 1.601-.7 2.401c0 1.201.5 2.301 1.3 3.101.8.801 1.9 1.301 3.1 1.301ZM206.705 348.461c.4 0 .9-.1 1.2-.4.4-.2.6-.6.8-1 .2-.401.2-.801.1-1.301-.1-.4-.3-.8-.6-1.1-.3-.301-.7-.501-1.1-.601-.4-.1-.9 0-1.3.1-.4.2-.7.401-1 .801-.2.4-.4.8-.4 1.2 0 .6.2 1.101.6 1.501.5.6 1.1.8 1.7.8ZM127.203 311.244c.4 0 .9-.1 1.2-.4.4-.2.6-.6.8-1.001.2-.4.2-.8.1-1.3-.1-.4-.3-.801-.6-1.101-.3-.3-.7-.5-1.1-.6-.4-.1-.9 0-1.3.1-.4.2-.7.4-1 .8-.2.401-.4.801-.4 1.201 0 .6.2 1.1.6 1.501.5.5 1.1.8 1.7.8ZM214.105 144.367c.6 0 1.2-.2 1.7-.501.5-.3.9-.8 1.1-1.4.2-.6.3-1.201.2-1.801-.1-.6-.4-1.1-.8-1.601-.4-.4-1-.7-1.6-.8-.6-.1-1.2-.1-1.8.2-.6.2-1 .6-1.4 1.101-.3.5-.5 1.1-.5 1.7 0 .401.1.801.2 1.201.2.4.4.7.7 1 .3.3.6.501 1 .701.4.2.8.2 1.2.2ZM1007.73 492.528c1 0 2-.3 2.9-.901.9-.6 1.5-1.4 1.9-2.401.4-1 .5-2.001.3-3.001s-.7-2.001-1.4-2.701c-.7-.701-1.7-1.201-2.7-1.401-1-.2-2.1-.1-3 .3-1 .4-1.8 1.101-2.4 1.901-.6.901-.9 1.901-.9 2.901 0 .701.1 1.401.4 2.001.3.601.6 1.201 1.1 1.701.5.5 1.1.9 1.7 1.101.7.3 1.4.5 2.1.5ZM438.711 582.27c.4 0 .9-.101 1.2-.401.4-.2.6-.6.8-1 .2-.4.2-.8.1-1.301-.1-.4-.3-.8-.6-1.1-.3-.3-.7-.5-1.1-.6-.4-.1-.9 0-1.3.1-.4.2-.7.4-1 .8-.2.4-.4.8-.4 1.201 0 .3.1.6.2.8.1.3.3.5.5.7.2.2.4.4.7.5.4.301.6.301.9.301ZM389.81 549.454c.2 0 .3-.1.5-.1.1-.1.3-.2.3-.4.1-.2.1-.3 0-.5 0-.2-.1-.3-.2-.4-.1-.1-.3-.2-.4-.2-.2 0-.3 0-.5.1s-.3.2-.4.3c-.1.1-.1.3-.1.5s.1.5.3.6c0 0 .2.1.5.1ZM398.51 529.744c.2 0 .3 0 .5-.1.1-.1.3-.2.3-.4.1-.2.1-.3.1-.5s-.1-.3-.2-.5c-.1-.1-.3-.2-.5-.2s-.3 0-.5.1-.3.2-.4.3c-.1.1-.1.3-.1.5s.1.5.3.6c.1.1.3.2.5.2ZM437.91 525.342c.2 0 .3-.1.5-.2s.3-.2.3-.4c.1-.2.1-.3 0-.5 0-.2-.1-.3-.2-.4-.1-.1-.3-.2-.4-.2-.2 0-.3 0-.5.1s-.3.2-.4.3c-.1.1-.1.3-.1.5 0 .1 0 .2.1.3.1.1.1.2.2.3.1.1.2.1.3.2h.2ZM315.907 512.236c.2 0 .3-.1.5-.2.1-.1.3-.2.3-.4.1-.2.1-.3 0-.5 0-.2-.1-.3-.2-.4-.1-.1-.3-.2-.4-.2-.2 0-.3 0-.5.1s-.3.2-.4.3c-.1.1-.1.3-.1.5 0 .1 0 .2.1.3 0 .1.1.2.2.3.1.1.2.1.3.2h.2ZM364.009 503.432c.2 0 .3-.1.5-.1.1-.1.3-.2.3-.4.1-.2.1-.3 0-.5 0-.2-.1-.3-.2-.4-.1-.1-.3-.2-.4-.2-.2 0-.3 0-.5.1s-.3.2-.4.3c-.1.1-.1.3-.1.5s.1.5.3.6c0 0 .3.1.5.1ZM1005.53 640.496c1 0 2-.3 2.9-.9.9-.6 1.5-1.401 1.9-2.401.4-1.001.5-2.001.3-3.001-.2-1.001-.7-2.001-1.4-2.702-.7-.7-1.7-1.2-2.7-1.4-1-.2-2.1-.1-3 .3-1 .4-1.8 1.1-2.4 1.901-.6.9-.9 1.901-.9 2.901 0 1.401.6 2.701 1.5 3.702 1 1.1 2.4 1.6 3.8 1.6ZM1113.03 636.194c.4 0 .9-.1 1.2-.4.4-.2.6-.6.8-1 .2-.4.2-.801.1-1.301-.1-.4-.3-.8-.6-1.1-.3-.3-.7-.5-1.1-.601-.4-.1-.9.001-1.3.101-.4.2-.8.4-1 .8-.2.4-.4.8-.4 1.2 0 .601.2 1.101.6 1.501.6.5 1.1.8 1.7.8ZM1360.83 634.793c.2 0 .3-.1.5-.2s.2-.2.3-.4c.1-.2.1-.3 0-.5 0-.2-.1-.3-.2-.4-.1-.1-.3-.2-.4-.2-.2 0-.3 0-.5.1s-.3.2-.4.3c-.1.1-.2.3-.2.5 0 .1 0 .2.1.3.1.1.1.2.2.3.1.1.2.1.3.2h.3ZM391.11 612.483c.4 0 .9-.1 1.2-.4.4-.2.6-.6.8-1 .2-.4.2-.801.1-1.301-.1-.4-.3-.8-.6-1.1-.3-.3-.7-.5-1.1-.6-.4-.1-.9 0-1.3.1-.4.2-.7.4-1 .8-.2.4-.4.8-.4 1.2 0 .601.2 1.101.6 1.501.6.6 1.1.8 1.7.8ZM110.603 572.665c.4 0 .9-.1 1.2-.4.4-.2.6-.6.8-1.001.2-.4.2-.8.1-1.3-.1-.4-.3-.8-.6-1.101-.3-.3-.7-.5-1.1-.6-.4-.1-.9 0-1.3.1-.4.2-.7.4-1 .801-.2.4-.4.8-.4 1.2 0 .6.2 1.101.6 1.501.6.6 1.1.8 1.7.8ZM419.111 591.074c.4 0 .9-.1 1.2-.401.4-.2.6-.6.8-1 .2-.4.2-.8.1-1.301-.1-.4-.3-.8-.6-1.1-.3-.3-.7-.5-1.1-.6-.4-.1-.9 0-1.3.1-.4.2-.7.4-1 .8-.2.4-.4.8-.4 1.201 0 .3.1.6.2.8.1.3.3.5.5.7.2.2.4.4.7.5.3.2.6.301.9.301ZM57.201 517.939c.2 0 .3-.1.5-.1.1-.1.3-.2.3-.4.1-.2.1-.3 0-.5 0-.2-.1-.3-.2-.4-.1-.1-.3-.2-.4-.2h-.5c-.2.1-.3.2-.4.3-.1.1-.1.3-.1.5s.1.5.3.6c.1.1.3.2.5.2ZM233.305 559.058c.2 0 .3-.1.5-.1.1-.1.3-.2.3-.4.1-.2.1-.3.1-.5s-.1-.3-.2-.4c-.1-.1-.3-.2-.4-.2h-.5c-.2.1-.3.2-.4.3-.1.1-.1.3-.1.5s.1.5.3.6c0 .1.2.2.4.2ZM205.405 617.785c.2 0 .3-.1.5-.1.1-.1.3-.2.3-.4.1-.2.1-.3.1-.5s-.1-.3-.2-.4c-.1-.1-.3-.2-.4-.2h-.5c-.2.1-.3.2-.4.3-.1.1-.1.3-.1.5s.1.5.3.6c-.1.1.1.2.4.2ZM104.003 510.936c.2 0 .3 0 .5-.1.1-.1.3-.2.3-.4.1-.2.1-.3.1-.5s-.1-.3-.2-.5-.3-.2-.5-.2-.3 0-.5.1-.3.2-.4.3c-.1.1-.1.3-.1.5s.1.5.3.6c0 .1.3.2.5.2ZM266.107 636.595c.4 0 .9-.1 1.2-.401.4-.2.6-.6.8-1 .2-.4.2-.8.1-1.301-.1-.4-.3-.8-.6-1.1-.3-.3-.7-.5-1.1-.6-.4-.1-.9 0-1.3.1-.4.2-.7.4-1 .8-.2.4-.4.8-.4 1.201 0 .6.2 1.1.6 1.5.6.601 1.1.801 1.7.801ZM524.412 628.691c1 0 2.1-.3 2.9-.901.9-.6 1.5-1.4 1.9-2.401.4-1 .5-2 .3-3.001-.2-1-.7-2.001-1.4-2.701-.7-.7-1.7-1.201-2.7-1.401-1-.2-2.1-.1-3 .3-1 .401-1.8 1.101-2.4 1.901-.6.901-.9 1.901-.9 2.902 0 .7.1 1.4.4 2 .3.601.7 1.201 1.1 1.701.5.5 1.1.901 1.7 1.101.7.4 1.4.5 2.1.5ZM1251.53 521.841c.6 0 1.2-.2 1.7-.5s.9-.8 1.1-1.4c.2-.601.3-1.201.2-1.801-.1-.6-.4-1.101-.8-1.601-.4-.4-1-.7-1.6-.8-.6-.1-1.2-.1-1.8.2-.6.2-1 .6-1.4 1.1-.3.501-.5 1.101-.5 1.701 0 .8.3 1.601.9 2.201.6.6 1.4.9 2.2.9ZM976.724 601.578c.2 0 .3-.1.5-.1.1-.1.3-.2.3-.4.1-.2.1-.3 0-.5 0-.2-.1-.3-.2-.5-.1-.1-.3-.2-.5-.2s-.3 0-.5.1-.3.2-.4.3c-.1.1-.1.3-.1.5 0 .1 0 .2.1.3 0 .1.1.2.2.3.1.1.2.1.3.2h.3ZM1095.13 497.33c.4 0 .9-.1 1.2-.4.4-.2.6-.6.8-1 .2-.401.2-.801.1-1.301-.1-.4-.3-.8-.6-1.101-.3-.3-.7-.5-1.1-.6-.4-.1-.9 0-1.3.1-.4.2-.7.4-1 .801-.2.4-.4.8-.4 1.2 0 .6.2 1.101.6 1.501.5.6 1.1.8 1.7.8ZM1065.83 609.382c.4 0 .8-.1 1.2-.4.4-.2.6-.6.8-1.001.2-.4.2-.8.1-1.3-.1-.4-.3-.8-.6-1.101-.3-.3-.7-.5-1.1-.6-.4-.1-.9 0-1.3.1-.4.2-.7.4-1 .801-.2.4-.4.8-.4 1.2 0 .6.2 1.101.6 1.501.6.6 1.1.8 1.7.8ZM1143.73 590.173c.2 0 .3-.1.5-.1.2-.1.3-.2.3-.4.1-.2.1-.3.1-.5s-.1-.3-.2-.4c-.1-.1-.3-.2-.4-.2h-.5c-.2.1-.3.2-.4.3-.1.1-.1.3-.1.5 0 .1 0 .2.1.3.1.1.1.2.2.3.1.1.2.1.3.2h.1ZM1106.03 556.857c.2 0 .3-.1.5-.1.1-.1.2-.2.3-.4.1-.2.1-.3 0-.5 0-.2-.1-.3-.2-.4-.1-.1-.3-.2-.4-.2h-.5c-.2.1-.3.2-.4.3-.1.1-.2.3-.2.5s.1.5.2.6c.2.1.5.2.7.2ZM1248.03 403.186c.2 0 .3-.1.5-.1.1-.1.2-.2.3-.4.1-.2.1-.3 0-.5 0-.2-.1-.3-.2-.4-.1-.1-.3-.2-.4-.2h-.5c-.2.1-.3.2-.4.3-.1.1-.2.3-.2.5s.1.5.3.6c.2.1.4.2.6.2ZM860.921 264.322c.2 0 .3-.1.5-.2.1-.1.3-.2.3-.4.1-.2.1-.3 0-.5 0-.2-.1-.3-.2-.4-.1-.1-.3-.2-.4-.2-.1 0-.3 0-.5.1s-.3.2-.4.3c-.1.1-.1.3-.1.5 0 .1 0 .2.1.3 0 .1.1.2.2.3.1.1.2.1.3.2.1.1 0 0 .2 0ZM916.823 279.229c.4 0 .9-.1 1.2-.4.4-.2.6-.6.8-1 .2-.401.2-.801.1-1.301-.1-.4-.3-.8-.6-1.1-.3-.301-.7-.501-1.1-.601-.4-.1-.9 0-1.3.1-.4.2-.7.4-1 .801-.2.4-.4.8-.4 1.2 0 .6.2 1.101.6 1.501.5.6 1.1.8 1.7.8ZM1199.13 293.636c.4 0 .9-.1 1.2-.4.4-.2.6-.601.8-1.001.2-.4.2-.8.1-1.3-.1-.4-.3-.801-.6-1.101-.3-.3-.7-.5-1.1-.6-.4-.1-.9 0-1.3.1-.4.2-.7.4-1 .8-.2.401-.4.801-.4 1.201 0 .6.2 1.1.6 1.501.6.6 1.1.8 1.7.8ZM1186.43 458.812c.2 0 .4-.1.6-.3.2-.2.2-.4.2-.6 0-.2-.1-.5-.2-.6-.2-.2-.4-.3-.6-.3-.2 0-.5.1-.6.3-.2.2-.2.4-.2.6 0 .2.1.5.2.6.1.2.4.3.6.3ZM1290.43 372.572c.2 0 .5-.1.6-.3.1-.2.2-.4.2-.6 0-.2-.1-.5-.2-.6-.2-.2-.4-.3-.6-.3-.2 0-.5.1-.6.3-.2.2-.3.4-.3.6 0 .2.1.5.3.6.2.2.4.3.6.3ZM1350.73 425.996c.2 0 .5-.1.6-.3.2-.2.2-.4.2-.6 0-.2-.1-.5-.2-.6-.2-.2-.4-.3-.6-.3-.2 0-.4.1-.6.3-.2.2-.2.4-.2.6 0 .2.1.5.2.6.2.2.4.3.6.3ZM1188.63 539.349c.2 0 .3-.1.5-.1.1-.1.3-.2.3-.4.1-.2.1-.3 0-.5 0-.2-.1-.3-.2-.5-.1-.1-.3-.2-.5-.2s-.3 0-.5.1-.3.2-.4.3c-.1.1-.2.3-.2.5 0 .1 0 .2.1.3 0 .1.1.2.2.3.1.1.2.1.3.2h.4ZM1304.83 439.103c.2 0 .3-.1.5-.1.1-.1.3-.2.3-.4.1-.2.1-.3.1-.5s-.1-.3-.2-.4c-.1-.1-.3-.2-.4-.2h-.5c-.2.1-.3.2-.4.3-.1.1-.1.3-.1.5s.1.5.2.6c.1.1.3.2.5.2ZM1140.93 530.645c.2 0 .3-.1.5-.1.1-.1.2-.2.3-.4.1-.2.1-.3.1-.5s-.1-.3-.2-.4c-.1-.1-.3-.2-.5-.2h-.5c-.2.1-.3.2-.4.3-.1.1-.2.3-.2.5s.1.5.3.6c.2.1.4.2.6.2ZM624.415 420.694c.2 0 .3-.1.5-.1.1-.1.3-.2.3-.4.1-.2.1-.3 0-.5 0-.2-.1-.3-.2-.4-.1-.1-.3-.2-.4-.2h-.5c-.2.1-.3.2-.4.3-.1.1-.1.3-.1.5s.1.5.3.6c.1.1.3.2.5.2ZM569.815 461.013c.2 0 .3-.1.5-.1.1-.1.3-.2.3-.4.1-.2.1-.3 0-.5 0-.2-.1-.3-.2-.4-.1-.1-.3-.2-.4-.2h-.5c-.2.1-.3.2-.4.3-.1.1-.1.3-.1.5s.1.5.3.6c.1.1.3.2.5.2ZM589.015 486.825c.2 0 .3 0 .5-.1s.3-.2.3-.4c.1-.2.1-.3.1-.5s-.1-.3-.2-.5c-.1-.1-.3-.2-.5-.2h-.5c-.2.1-.3.2-.4.3-.1.1-.1.3-.1.5s.1.5.3.6c.1.3.3.3.5.3ZM756.019 439.103c.2 0 .3-.101.5-.201.1-.1.3-.199.3-.399.1-.2.1-.3 0-.5 0-.2-.1-.3-.2-.4-.1-.1-.3-.201-.4-.201-.1 0-.3.001-.5.101s-.3.2-.4.3c-.1.1-.1.3-.1.5 0 .1 0 .2.1.3 0 .1.1.199.2.299.1.1.2.101.3.201.1.1.1 0 .2 0ZM1338.53 516.638c.2 0 .3-.099.5-.099.2-.1.3-.201.3-.401.1-.2.1-.3.1-.5s-.1-.3-.2-.4c-.1-.1-.3-.199-.4-.199h-.5c-.2.1-.3.2-.4.3-.1.1-.1.3-.1.5s.1.499.2.599c0 .1.2.2.5.2ZM796.22 296.737c.2 0 .3-.1.5-.1.1-.1.3-.2.3-.4.1-.2.1-.3 0-.5 0-.2-.1-.3-.2-.4-.1-.1-.3-.2-.4-.2h-.5c-.2.1-.3.2-.4.3-.1.1-.1.3-.1.5s.1.5.3.6c0 .1.2.2.5.2ZM945.224 486.825c.4 0 .9-.1 1.2-.4.4-.2.6-.6.8-1 .2-.4.2-.801.1-1.301-.1-.4-.3-.8-.6-1.1-.3-.3-.7-.501-1.1-.601-.4-.1-.9 0-1.3.1-.4.201-.7.401-1 .801-.2.4-.4.8-.4 1.2 0 .601.2 1.101.6 1.501.5.6 1.1.8 1.7.8ZM938.624 354.163c.2 0 .3-.1.5-.2.1-.1.3-.2.3-.4.1-.2.1-.3 0-.5 0-.2-.1-.3-.2-.5-.1-.1-.3-.2-.5-.2s-.3 0-.5.1-.3.2-.4.3c-.1.1-.1.3-.1.5 0 .1 0 .2.1.3 0 .1.1.2.2.3.1.1.2.1.3.2.1.1.2.1.3.1ZM961.424 267.424c.4 0 .9-.1 1.2-.4.4-.201.6-.601.8-1.001.2-.4.2-.8.1-1.3-.1-.401-.3-.801-.6-1.101-.3-.3-.7-.5-1.1-.6-.4-.1-.9 0-1.3.1-.4.2-.7.4-1 .8-.2.4-.4.801-.4 1.201 0 .3.1.6.2.8.1.3.3.5.5.7.2.2.4.401.7.501.3.3.6.3.9.3ZM859.522 333.153c.2 0 .3 0 .5-.1.1-.1.3-.2.3-.4.1-.2.1-.3.1-.5s-.1-.3-.2-.5c-.1-.1-.3-.2-.5-.2s-.3 0-.5.1-.3.2-.4.3c-.1.1-.1.3-.1.5s.1.5.3.6c.1.1.3.2.5.2ZM797.02 396.183c.6 0 1.2-.2 1.7-.5s.9-.8 1.1-1.401c.2-.6.3-1.2.2-1.8-.1-.601-.4-1.101-.8-1.601-.4-.4-1-.7-1.6-.8-.6-.1-1.2-.1-1.8.2-.6.2-1 .6-1.4 1.1-.3.5-.5 1.101-.5 1.701 0 .8.3 1.601.9 2.201.6.6 1.4.9 2.2.9ZM790.52 380.876c.2 0 .3-.1.5-.2.1-.1.3-.2.3-.4.1-.2.1-.3 0-.5 0-.2-.1-.3-.2-.4-.1-.1-.3-.2-.4-.2-.2 0-.3 0-.5.1s-.3.2-.4.3c-.1.1-.1.3-.1.5 0 .1 0 .2.1.3 0 .1.1.2.2.3.1.1.2.1.3.2 0-.1.1 0 .2 0ZM805.82 493.828c.2 0 .3-.1.5-.1s.3-.2.3-.4c.1-.2.1-.3.1-.5s-.1-.3-.2-.4c-.1-.1-.3-.2-.4-.2h-.5c-.2.1-.3.2-.4.3-.1.1-.1.3-.1.5s.1.5.3.6c-.1.1.2.2.4.2ZM776.52 474.119c.4 0 .9-.1 1.2-.4.4-.2.6-.6.8-1 .2-.4.2-.801.1-1.301-.1-.4-.3-.8-.6-1.1-.3-.3-.7-.5-1.1-.601-.4-.1-.9 0-1.3.101-.4.2-.7.4-1 .8-.2.4-.4.8-.4 1.2 0 .601.2 1.101.6 1.501.6.6 1.1.8 1.7.8ZM872.222 640.996c.2 0 .3-.1.5-.1.1-.1.3-.2.3-.4.1-.2.1-.3 0-.5 0-.2-.1-.3-.2-.4-.1-.1-.3-.2-.4-.2h-.5c-.2.1-.3.2-.4.3-.1.1-.1.3-.1.5s.1.5.3.6c.1.1.3.2.5.2ZM818.021 427.297c.2 0 .3-.1.5-.1.1-.1.3-.2.3-.4.1-.2.1-.3 0-.5 0-.2-.1-.3-.2-.4-.1-.1-.3-.2-.4-.2h-.5c-.2.1-.3.2-.4.3-.1.1-.1.3-.1.5s.1.5.3.6c.1.1.3.2.5.2ZM955.224 555.157c.4 0 .9-.1 1.2-.4.4-.2.6-.601.8-1.001.2-.4.2-.8.1-1.3-.1-.4-.3-.801-.6-1.101-.3-.3-.7-.5-1.1-.6-.4-.1-.9 0-1.3.1-.4.2-.7.4-1 .8-.3.401-.4.801-.4 1.201 0 .6.2 1.1.6 1.501.6.5 1.2.8 1.7.8ZM826.32 572.165c.4 0 .901-.1 1.201-.4.4-.201.599-.601.799-1.001.2-.4.201-.8.101-1.3a2.384 2.384 0 0 0-.601-1.101c-.3-.3-.699-.5-1.099-.6-.4-.1-.9 0-1.3.1-.4.2-.7.4-1 .8-.2.4-.4.801-.4 1.201 0 .6.199 1.1.599 1.5.6.601 1.1.801 1.7.801ZM899.322 540.65c.2 0 .3 0 .5-.1.1-.1.3-.2.3-.4.1-.2.1-.3.1-.5s-.1-.3-.2-.5c-.1-.1-.3-.2-.5-.2h-.5c-.2.1-.3.2-.4.3-.1.1-.1.3-.1.5 0 .1 0 .2.1.3 0 .1.1.2.2.3.1.1.2.1.3.2 0 .1.1.1.2.1ZM887.523 587.572c.4 0 .9-.1 1.2-.4.4-.2.6-.6.8-1.001.2-.4.2-.8.1-1.3-.1-.4-.3-.801-.6-1.101-.3-.3-.7-.5-1.1-.6-.4-.1-.9 0-1.3.1-.4.2-.7.4-1 .8-.2.401-.4.801-.4 1.201 0 .6.2 1.1.6 1.501.6.5 1.1.8 1.7.8ZM633.216 387.379c.4 0 .9-.1 1.2-.4.4-.2.6-.6.8-1 .2-.401.2-.801.1-1.301-.1-.4-.3-.8-.6-1.1-.3-.301-.7-.501-1.1-.601-.4-.1-.9 0-1.3.1-.4.2-.7.401-1 .801-.2.4-.4.8-.4 1.2 0 .601.2 1.101.6 1.501.5.6 1.1.8 1.7.8ZM606.114 602.879c.4 0 .9-.1 1.2-.4.4-.2.6-.6.8-1.001.2-.4.2-.8.1-1.3-.1-.4-.3-.801-.6-1.101-.3-.3-.7-.5-1.1-.6-.4-.1-.9 0-1.3.1-.4.2-.7.4-1 .8-.2.401-.4.801-.4 1.201 0 .6.2 1.1.6 1.501.5.6 1.1.8 1.7.8ZM590.414 356.364c.2 0 .3 0 .5-.1.1-.1.3-.2.3-.4.1-.2.1-.3.1-.5s-.1-.3-.2-.5c-.1-.1-.3-.2-.5-.2s-.3 0-.5.1-.3.2-.4.3c-.1.1-.1.3-.1.5s.1.5.3.6c.2.1.2.2.5.2ZM671.216 360.667c.6 0 1.2-.2 1.7-.5.5-.301.9-.801 1.1-1.401.2-.6.3-1.201.2-1.801-.1-.6-.4-1.1-.8-1.6-.4-.401-1-.701-1.6-.801-.6-.1-1.2-.1-1.8.2-.6.2-1 .601-1.4 1.101-.3.5-.5 1.1-.5 1.7 0 .401.1.801.2 1.201.2.4.4.7.7 1 .3.301.6.501 1 .701.4.2.8.2 1.2.2ZM520.912 456.21c.2 0 .3 0 .5-.1.1-.1.3-.2.3-.4.1-.2.1-.3.1-.5s-.1-.3-.2-.5c-.1-.1-.3-.2-.5-.2s-.4 0-.5.1c-.2.1-.3.2-.4.3-.1.1-.1.3-.1.5s.1.5.3.6c0 .1.2.2.5.2ZM543.214 499.931c.4 0 .9-.1 1.2-.4.4-.2.6-.6.8-1 .2-.4.2-.801.1-1.301-.1-.4-.3-.8-.6-1.1-.3-.3-.7-.501-1.1-.601-.4-.1-.9 0-1.3.1-.4.201-.7.401-1 .801-.2.4-.4.8-.4 1.2 0 .601.2 1.101.6 1.501.5.6 1.1.8 1.7.8ZM635.816 468.917c.6 0 1.2-.2 1.7-.5s.9-.801 1.1-1.401c.2-.6.3-1.2.2-1.801-.1-.6-.4-1.1-.8-1.6-.4-.401-1-.701-1.6-.801-.6-.1-1.2-.1-1.8.2-.6.2-1 .601-1.4 1.101-.3.5-.5 1.1-.5 1.701 0 .8.3 1.6.9 2.201.6.5 1.4.9 2.2.9ZM527.413 557.758c.6 0 1.199-.2 1.699-.5s.901-.8 1.101-1.401c.2-.6.3-1.2.2-1.801-.1-.6-.401-1.1-.801-1.6-.4-.4-.999-.701-1.599-.801-.6-.1-1.2-.1-1.8.201-.6.2-1.001.6-1.401 1.1-.3.5-.5 1.1-.5 1.701 0 .8.301 1.6.901 2.201.6.6 1.4.9 2.2.9ZM889.723 302.439c.2 0 .3 0 .5-.1.1-.1.3-.2.3-.4.1-.2.1-.3.1-.5s-.1-.3-.2-.5c-.1-.1-.3-.2-.5-.2s-.3 0-.5.1-.3.2-.4.3c-.1.1-.1.3-.1.5s.1.5.3.6c0 .1.3.2.5.2ZM473.211 463.214c.6 0 1.2-.2 1.7-.5s.9-.8 1.1-1.401c.2-.6.3-1.2.2-1.8-.1-.601-.4-1.101-.8-1.601-.4-.4-1-.7-1.6-.8-.6-.1-1.2-.1-1.8.2-.6.2-1 .6-1.4 1.1-.4.5-.5 1.101-.5 1.701 0 .8.3 1.601.9 2.201.7.5 1.4.9 2.2.9ZM375.409 417.192c.2 0 .3 0 .5-.1.1-.1.3-.2.3-.4.1-.2.1-.3.1-.5s-.1-.3-.2-.5-.3-.2-.5-.2-.3 0-.5.1-.3.2-.4.3c-.1.1-.1.3-.1.5s.1.5.3.6c0 .1.2.2.5.2ZM426.111 451.308c.2 0 .3-.1.5-.2.1-.1.3-.2.3-.4.1-.2.1-.3 0-.5 0-.2-.1-.3-.2-.4-.1-.1-.3-.2-.4-.2-.2 0-.3 0-.5.1s-.3.2-.4.3c-.1.1-.1.3-.1.5 0 .1 0 .2.1.3 0 .1.1.2.2.3.1.1.2.1.3.2h.2ZM384.11 385.178c.4 0 .9-.1 1.2-.4.4-.2.6-.6.8-1 .2-.401.2-.801.1-1.301-.1-.4-.3-.8-.6-1.1-.3-.301-.7-.501-1.1-.601-.4-.1-.9 0-1.3.1-.4.2-.7.401-1 .801-.2.4-.4.8-.4 1.2 0 .6.2 1.101.6 1.501.6.6 1.1.8 1.7.8ZM312.008 423.795c.2 0 .3 0 .5-.1s.3-.2.3-.4c.1-.2.1-.3.1-.5s-.1-.3-.2-.5c-.1-.1-.3-.2-.5-.2h-.5c-.2.1-.3.2-.4.3-.1.1-.1.3-.1.5s.1.5.3.6c0 .2.3.3.5.3ZM402.51 469.717c.4 0 .9-.1 1.2-.4.4-.2.6-.6.8-1 .2-.4.2-.801.1-1.301-.1-.4-.3-.8-.6-1.1-.3-.3-.7-.5-1.1-.601-.4-.1-.9 0-1.3.1-.4.201-.7.401-1 .801-.2.4-.4.8-.4 1.2 0 .601.2 1.101.6 1.501.5.6 1.1.8 1.7.8ZM257.806 537.148c1 0 2.1-.3 2.9-.9.9-.6 1.5-1.401 1.9-2.401.4-1 .5-2.001.3-3.001-.2-1.001-.7-2.001-1.4-2.701-.7-.701-1.7-1.201-2.7-1.401-1-.2-2.1-.1-3 .3-1 .4-1.8 1.101-2.4 1.901-.6.9-.9 1.901-.9 2.901 0 1.401.6 2.701 1.5 3.702 1.1 1.1 2.4 1.6 3.8 1.6ZM451.811 638.295c1 0 2.1-.3 2.9-.9.9-.6 1.5-1.401 1.9-2.401.4-1.001.5-2.001.3-3.001-.2-1.001-.7-2.001-1.4-2.702-.7-.7-1.7-1.2-2.7-1.4-1-.2-2.1-.1-3 .3-1 .4-1.8 1.1-2.4 1.901-.6.9-.9 1.901-.9 2.901 0 1.401.6 2.701 1.5 3.702 1.1 1.1 2.4 1.6 3.8 1.6ZM352.709 554.257c.3 0 .5-.1.7-.2.2-.101.4-.301.5-.601.1-.2.1-.5.1-.8 0-.3-.2-.5-.4-.7-.2-.201-.4-.301-.7-.401-.3-.1-.5 0-.8.1-.2.1-.4.301-.6.501-.1.2-.2.5-.2.7 0 .3.1.7.4.9.3.401.6.501 1 .501ZM236.006 430.298c.2 0 .3-.1.5-.1.1-.1.3-.2.3-.4.1-.2.1-.3.1-.5s-.1-.3-.2-.4c-.1-.1-.3-.2-.4-.2h-.5c-.2.1-.3.2-.4.3-.1.1-.1.3-.1.5s.1.5.3.6c-.1.1.1.2.4.2ZM195.804 451.308c.2 0 .3-.1.5-.1.1-.1.3-.2.3-.4.1-.2.1-.3.1-.5s-.1-.3-.2-.4c-.1-.1-.3-.2-.4-.2-.2 0-.3 0-.5.1s-.3.2-.4.3c-.1.1-.1.3-.1.5s.1.5.3.6c-.1 0 .1.1.4.1ZM142.904 378.174c.2 0 .3-.1.5-.1.1-.1.3-.2.3-.4.1-.2.1-.3.1-.5s-.1-.3-.2-.4c-.1-.1-.3-.2-.4-.2-.2 0-.3 0-.5.1s-.3.2-.4.3c-.1.1-.1.3-.1.5s.1.5.3.6c-.1.1.2.1.4.1ZM246.506 403.186c.2 0 .3-.1.5-.1.1-.1.3-.2.3-.4.1-.2.1-.3.1-.5s-.1-.3-.2-.4c-.1-.1-.3-.2-.4-.2h-.5c-.2.1-.3.2-.4.3-.1.1-.1.3-.1.5s.1.5.3.6c-.1.1.1.2.4.2ZM340.408 322.849c.2 0 .3 0 .5-.1.1-.1.3-.2.3-.4.1-.2.1-.3.1-.5s-.1-.3-.2-.5c-.1-.1-.3-.2-.5-.2s-.4 0-.5.1c-.2.1-.3.2-.4.3-.1.1-.1.3-.1.5s.1.5.3.6c0 .1.2.2.5.2ZM573.715 295.336c.2 0 .3-.1.5-.1.1-.1.3-.2.3-.4.1-.2.1-.3 0-.5 0-.2-.1-.3-.2-.4-.1-.1-.3-.2-.4-.2-.2 0-.3 0-.5.1s-.3.2-.4.3c-.1.1-.1.3-.1.5s.1.5.3.6c.2.1.3.1.5.1ZM745.519 368.97c.2 0 .3 0 .5-.1.1-.1.3-.2.3-.4.1-.2.1-.3.1-.5s-.1-.3-.2-.5c-.1-.1-.3-.2-.5-.2h-.5c-.2.1-.3.2-.4.3-.1.1-.1.3-.1.5s.1.5.3.6c0 .2.2.3.5.3ZM705.318 389.68c.2 0 .3-.1.5-.1.1-.1.3-.2.3-.4.1-.2.1-.3 0-.5 0-.2-.1-.3-.2-.4-.1-.1-.3-.2-.4-.2h-.5c-.2.1-.3.2-.4.3-.1.1-.1.3-.1.5s.1.5.3.6c0 .1.3.2.5.2ZM823.32 364.668c.2 0 .3 0 .5-.1.1-.1.3-.2.3-.4.1-.2.101-.3.101-.5s-.1-.3-.2-.5c-.1-.1-.3-.2-.5-.2s-.4 0-.5.1c-.2.1-.301.2-.401.3-.1.1-.099.3-.099.5s.099.5.299.6c0 .1.2.2.5.2ZM167.804 537.649c.4 0 .9-.1 1.2-.4.4-.201.6-.601.8-1.001.2-.4.2-.8.1-1.3-.1-.401-.3-.801-.6-1.101-.3-.3-.7-.5-1.1-.6-.4-.1-.9 0-1.3.1-.4.2-.7.4-1 .8-.2.4-.4.801-.4 1.201 0 .6.2 1.1.6 1.5.6.501 1.1.801 1.7.801ZM78.302 361.967c.4 0 .9-.1 1.2-.4.4-.2.6-.6.8-1 .2-.4.2-.8.1-1.301-.1-.4-.3-.8-.6-1.1-.3-.3-.7-.5-1.1-.6-.4-.1-.9 0-1.3.1-.4.2-.7.4-1 .8-.2.4-.4.8-.4 1.2 0 .601.2 1.101.6 1.501.5.6 1.1.8 1.7.8ZM10 402.286c.4 0 .9-.1 1.2-.4.4-.2.6-.6.8-1 .2-.401.2-.801.1-1.301-.1-.4-.3-.8-.6-1.101-.3-.3-.7-.5-1.1-.6-.4-.1-.9 0-1.3.1-.4.2-.7.4-1 .801-.2.4-.4.8-.4 1.2 0 .6.2 1.101.6 1.501.6.6 1.2.8 1.7.8ZM211.105 515.739c.4 0 .9-.1 1.2-.4.4-.201.6-.601.8-1.001.2-.4.2-.8.1-1.3-.1-.401-.3-.801-.6-1.101-.3-.3-.7-.5-1.1-.6-.4-.1-.9 0-1.3.1-.4.2-.7.4-1 .8-.2.4-.4.8-.4 1.201 0 .3.1.6.2.8.1.3.3.5.5.7.2.2.4.4.7.501.3.2.6.3.9.3ZM98.702 596.276c.4 0 .9-.1 1.2-.4.4-.2.6-.6.8-1.001.2-.4.2-.8.1-1.3-.1-.4-.3-.801-.6-1.101-.3-.3-.7-.5-1.1-.6-.4-.1-.9 0-1.3.1-.4.2-.7.4-1 .8-.2.401-.4.801-.4 1.201 0 .6.2 1.1.6 1.501.6.6 1.2.8 1.7.8ZM96.602 469.717c.6 0 1.2-.2 1.7-.5s.9-.8 1.1-1.401c.2-.6.3-1.2.2-1.8-.1-.601-.4-1.101-.8-1.601-.4-.4-1-.7-1.6-.8-.6-.1-1.2-.1-1.8.2-.6.2-1 .6-1.4 1.1-.3.5-.5 1.101-.5 1.701 0 .4.1.8.2 1.2.2.401.4.701.7 1.001.3.3.6.5 1 .7.4.1.8.2 1.2.2ZM24.001 486.825c.4 0 .9-.1 1.2-.4.4-.2.6-.6.8-1 .2-.4.2-.801.1-1.301-.1-.4-.3-.8-.6-1.1-.3-.3-.7-.501-1.1-.601-.4-.1-.9 0-1.3.1-.4.201-.7.401-1 .801-.2.4-.4.8-.4 1.2 0 .601.2 1.101.6 1.501.6.6 1.2.8 1.7.8ZM433.111 537.649c.4 0 .9-.1 1.2-.4.4-.201.6-.601.8-1.001.2-.4.2-.8.1-1.3-.1-.401-.3-.801-.6-1.101-.3-.3-.7-.5-1.1-.6-.4-.1-.9 0-1.3.1-.4.2-.7.4-1 .8-.2.4-.4.801-.4 1.201 0 .6.2 1.1.6 1.5.5.501 1.1.801 1.7.801ZM637.216 219.201c.4 0 .9-.1 1.2-.4.4-.2.6-.6.8-1 .2-.4.2-.801.1-1.301-.1-.4-.3-.8-.6-1.1-.3-.3-.7-.501-1.1-.601-.4-.1-.9 0-1.3.1-.4.201-.7.401-1 .801-.2.4-.4.8-.4 1.2 0 .601.2 1.101.6 1.501.6.6 1.1.8 1.7.8ZM602.915 164.075c.2 0 .3-.1.5-.1.1-.1.3-.2.3-.4.1-.2.1-.3 0-.5 0-.2-.1-.3-.2-.4-.1-.1-.3-.2-.4-.2-.2 0-.3 0-.5.1s-.3.2-.4.3c-.1.1-.1.3-.1.5s.1.5.3.6c0 0 .2.1.5.1ZM549.214 145.367c.2 0 .3-.1.5-.1.1-.1.3-.2.3-.4.1-.2.1-.3 0-.5 0-.2-.1-.3-.2-.4-.1-.1-.3-.2-.4-.2-.2 0-.3 0-.5.1s-.3.2-.4.3c-.1.1-.1.3-.1.5s.1.5.3.6c0 0 .2.1.5.1ZM588.714 244.412c.2 0 .5-.1.6-.3.2-.2.3-.4.3-.6 0-.2-.1-.5-.3-.6-.2-.2-.4-.3-.6-.3-.2 0-.5.1-.6.3-.2.2-.3.4-.3.6 0 .2.1.5.3.6.2.1.4.3.6.3ZM551.114 191.188c.3 0 .5-.1.7-.2.2-.1.4-.4.5-.6.1-.2.1-.5.1-.8 0-.3-.2-.5-.4-.701-.2-.2-.4-.3-.7-.4-.3-.1-.5 0-.8.1-.2.1-.4.3-.6.501-.1.2-.2.5-.2.7 0 .3.1.7.4.9.4.4.7.5 1 .5ZM656.116 156.072c.4 0 .9-.1 1.2-.4.4-.2.6-.6.8-1 .2-.401.2-.801.1-1.301-.1-.4-.3-.8-.6-1.101-.3-.3-.7-.5-1.1-.6-.4-.1-.9 0-1.3.1-.4.2-.7.4-1 .801-.2.4-.4.8-.4 1.2 0 .6.2 1.101.6 1.501.6.5 1.1.8 1.7.8ZM337.309 590.573c.2 0 .3-.1.5-.1.1-.1.3-.2.3-.4.1-.2.1-.3 0-.5 0-.2-.1-.3-.2-.4-.1-.1-.3-.2-.4-.2h-.5c-.2.1-.3.2-.4.3-.1.1-.1.3-.1.5s.1.5.3.6c.1.1.3.2.5.2ZM488.911 153.771c.4 0 .9-.1 1.2-.4.4-.2.6-.6.8-1.001.2-.4.2-.8.1-1.3s-.3-.8-.6-1.101c-.3-.3-.7-.5-1.1-.6-.4-.1-.9 0-1.3.1-.4.2-.7.4-1 .801-.2.4-.4.8-.4 1.2 0 .3.1.6.2.8.1.301.3.501.5.701.2.2.4.4.7.5.4.2.6.3.9.3ZM440.011 120.955c.2 0 .3 0 .5-.1.1-.1.3-.2.3-.4.1-.2.1-.3.1-.5s-.1-.3-.2-.5c-.1-.1-.3-.2-.5-.2s-.4 0-.5.1c-.2.1-.3.2-.4.3-.1.1-.1.3-.1.5s.1.5.3.6c0 .1.2.2.5.2ZM448.712 101.246c.2 0 .3-.1.5-.1.1-.1.3-.2.3-.4.1-.2.1-.3 0-.5 0-.2-.1-.3-.2-.4-.1-.1-.3-.2-.4-.2h-.5c-.2.1-.3.2-.4.3-.1.1-.1.3-.1.5s.1.5.3.6c.1.1.3.2.5.2ZM488.012 96.844c.2 0 .3-.1.5-.1.1-.1.3-.2.3-.4.1-.2.1-.3 0-.5 0-.2-.1-.3-.2-.5-.1-.1-.3-.2-.5-.2s-.3 0-.5.1-.3.2-.4.3c-.1.1-.1.3-.1.5 0 .1 0 .2.1.3 0 .1.1.2.2.3.1.1.2.1.3.2h.3ZM366.109 83.738c.2 0 .3-.1.5-.1.1-.1.3-.2.3-.4.1-.2.1-.3.1-.5s-.1-.3-.2-.4c-.1-.1-.3-.2-.4-.2h-.5c-.2.1-.3.2-.4.3-.1.1-.1.3-.1.5s.1.5.3.6c0 .1.2.2.4.2ZM414.211 74.934c.2 0 .3-.1.5-.1.1-.1.3-.2.3-.4.1-.2.1-.3 0-.5 0-.2-.1-.3-.2-.4-.1-.1-.3-.2-.4-.2h-.5c-.2.1-.3.2-.4.3-.1.1-.1.3-.1.5s.1.5.3.6c0 .1.3.2.5.2ZM424.211 196.791c.4 0 .9-.1 1.2-.4.4-.2.6-.6.8-1.001.2-.4.2-.8.1-1.3-.1-.4-.3-.801-.6-1.101-.3-.3-.7-.5-1.1-.6-.4-.1-.9 0-1.3.1-.4.2-.7.4-1 .8-.3.401-.4.801-.4 1.201 0 .6.2 1.1.6 1.501.6.5 1.2.8 1.7.8ZM463.112 217.2c.4 0 .9-.1 1.2-.4.4-.2.6-.6.8-1 .2-.4.2-.801.1-1.301-.1-.4-.3-.8-.6-1.1-.3-.3-.7-.5-1.1-.6-.4-.101-.9 0-1.3.1-.4.2-.7.4-1 .8-.2.4-.4.8-.4 1.2 0 .601.2 1.101.6 1.501.6.6 1.2.8 1.7.8ZM356.508 236.509c.9 0 1.7-.3 2.4-.7.7-.5 1.3-1.201 1.6-2.001.3-.8.4-1.701.2-2.501-.2-.8-.6-1.601-1.2-2.201-.6-.6-1.4-1-2.2-1.2-.8-.201-1.7-.101-2.5.2-.8.3-1.5.9-2 1.6-.5.701-.7 1.601-.7 2.401 0 1.201.5 2.301 1.3 3.102.8.8 2 1.3 3.1 1.3ZM506.413 408.289c.9 0 1.7-.3 2.4-.701.7-.4 1.3-1.2 1.6-2 .3-.801.4-1.701.2-2.501-.2-.801-.6-1.601-1.2-2.201-.6-.601-1.4-1.001-2.2-1.201-.8-.2-1.7-.1-2.5.2-.8.3-1.5.901-2 1.601s-.7 1.601-.7 2.401c0 .6.1 1.1.3 1.701.2.6.5 1 .9 1.4.4.4.9.701 1.4.901.7.3 1.3.4 1.8.4ZM502.013 209.797c1 0 2.1-.3 2.9-.901.9-.6 1.5-1.4 1.9-2.401.4-1 .5-2 .3-3.001-.2-1-.7-2.001-1.4-2.701-.7-.7-1.7-1.201-2.7-1.401-1-.2-2.1-.1-3 .3-1 .401-1.8 1.101-2.4 1.901-.6.901-.9 1.901-.9 2.902 0 .7.1 1.4.4 2 .3.601.6 1.201 1.1 1.701.5.5 1.1.901 1.7 1.101.8.4 1.4.5 2.1.5ZM402.81 125.758c.3 0 .5-.1.7-.2.2-.1.4-.4.5-.6.1-.2.1-.5.1-.801-.1-.3-.2-.5-.4-.7-.2-.2-.4-.3-.7-.4-.3-.1-.5 0-.8.1-.2.1-.4.3-.6.5-.1.2-.2.5-.2.701 0 .3.1.7.4.9.4.3.7.5 1 .5ZM483.212 109.05c.4 0 .9-.1 1.2-.4.4-.2.6-.6.8-1 .2-.4.2-.801.1-1.301-.1-.4-.3-.8-.6-1.1-.3-.3-.7-.5-1.1-.601-.4-.1-.9 0-1.3.101-.4.2-.7.4-1 .8-.2.4-.4.8-.4 1.2 0 .601.2 1.101.6 1.501.6.6 1.2.8 1.7.8ZM387.509 162.074c.2 0 .3 0 .5-.1.1-.1.3-.2.3-.4.1-.2.1-.3.1-.5s-.1-.3-.2-.5c-.1-.1-.3-.2-.5-.2h-.5c-.2.1-.3.2-.4.3-.1.1-.2.3-.2.5 0 .1 0 .2.1.3 0 .1.1.2.2.3.1.1.2.1.3.2.1.1.2.1.3.1ZM905.122 82.638c.4 0 .9-.1 1.2-.4.4-.2.6-.6.8-1 .2-.4.2-.8.1-1.301-.1-.4-.3-.8-.6-1.1-.3-.3-.7-.5-1.1-.6-.4-.1-.9 0-1.3.1-.4.2-.7.4-1 .8-.2.4-.4.8-.4 1.2 0 .3.1.6.2.8.1.3.3.5.5.7.2.2.4.401.7.501.3.3.6.3.9.3ZM856.222 49.822c.2 0 .3-.1.5-.1.1-.1.3-.2.3-.4.1-.2.1-.3 0-.5 0-.2-.1-.3-.2-.4-.1-.1-.3-.2-.4-.2h-.5c-.2.1-.3.2-.4.3-.1.1-.1.3-.1.5 0 .1 0 .2.1.3 0 .1.1.2.2.3.1.1.2.1.3.2-.1-.1 0 0 .2 0ZM864.921 30.113c.2 0 .3 0 .5-.1.1-.1.3-.2.3-.4.1-.2.1-.3.1-.5s-.1-.3-.2-.5c-.1-.1-.3-.2-.5-.2s-.4 0-.5.1c-.2.1-.3.2-.4.3-.1.1-.1.3-.1.5s.1.5.3.6c0 .1.3.2.5.2ZM904.223 25.711c.2 0 .3-.1.5-.1.1-.1.3-.2.3-.4.1-.2.1-.3 0-.5 0-.2-.1-.3-.2-.4-.1-.1-.3-.2-.4-.2h-.5c-.2.1-.3.2-.4.3-.1.1-.1.3-.1.5s.1.5.3.6c.1.1.3.2.5.2ZM819.02 54.625c.3 0 .5-.1.7-.2.2-.1.4-.3.5-.6.1-.2.1-.5.1-.8-.1-.3-.2-.5-.4-.7-.2-.2-.4-.3-.7-.4-.3-.101-.5 0-.8.1-.2.1-.4.3-.6.5-.1.2-.2.5-.2.7 0 .3.1.7.4.9.3.4.7.5 1 .5ZM892.922 47.122c.4 0 .9-.1 1.2-.4.4-.2.6-.6.8-1 .2-.401.2-.801.1-1.302-.1-.4-.3-.8-.6-1.1-.3-.3-.7-.5-1.1-.6-.4-.1-.9 0-1.3.1-.4.2-.7.4-1 .8-.2.4-.4.8-.4 1.2 0 .6.2 1.101.6 1.501.6.6 1.2.8 1.7.8ZM804.12 18.608c.2 0 .3 0 .5-.1.1-.1.3-.2.3-.4.1-.2.1-.3.1-.5s-.1-.3-.2-.5c-.1-.1-.3-.2-.5-.2h-.5c-.2.1-.3.2-.4.3-.1.1-.1.3-.1.5 0 .1 0 .2.1.3 0 .1.1.2.2.3.1.1.2.1.3.2-.1.1 0 .1.2.1ZM4.4 556.057c.6 0 1.2-.2 1.7-.5s.9-.8 1.1-1.401c.2-.6.3-1.2.2-1.8-.1-.601-.4-1.101-.8-1.601-.4-.4-1-.7-1.6-.8-.6-.1-1.2-.1-1.8.2-.6.3-1 .6-1.4 1.1-.3.5-.5 1.101-.5 1.701 0 .8.3 1.601.9 2.201.6.5 1.4.9 2.2.9ZM140.703 586.271c1 0 2.1-.3 2.9-.9.9-.6 1.5-1.401 1.9-2.401.4-1.001.5-2.001.3-3.002-.2-1-.7-2-1.4-2.701-.7-.7-1.7-1.2-2.7-1.4-1-.2-2.1-.1-3 .3-1 .4-1.8 1.1-2.4 1.901-.6.8-.9 1.9-.9 2.901 0 .7.1 1.401.4 2.001.3.6.6 1.2 1.1 1.701.5.5 1.1.9 1.7 1.1.7.3 1.4.5 2.1.5ZM881.822 376.874c1 0 2.1-.3 2.9-.9.9-.6 1.5-1.401 1.9-2.401.4-1.001.5-2.001.3-3.002-.2-1-.7-2-1.4-2.701-.7-.7-1.7-1.2-2.7-1.4-1-.2-2.1-.1-3 .3-1 .4-1.8 1.1-2.4 1.901-.6.9-.9 1.9-.9 2.901 0 .7.1 1.4.4 2.001.3.6.7 1.2 1.1 1.701.4.5 1.1.9 1.7 1.1.8.4 1.4.5 2.1.5ZM948.323 427.898c1 0 2.1-.3 2.9-.901.9-.6 1.5-1.4 1.9-2.401.4-1 .5-2.001.3-3.001s-.7-2.001-1.4-2.701c-.7-.7-1.7-1.201-2.7-1.401-1-.2-2.1-.1-3 .3-1 .401-1.8 1.101-2.4 1.901-.6.901-.9 1.901-.9 2.901 0 1.401.6 2.702 1.5 3.702 1.1 1.001 2.4 1.601 3.8 1.601ZM576.815 647.999c.2 0 .3-.1.5-.1.1-.1.3-.2.3-.4.1-.2.1-.3 0-.5 0-.2-.1-.3-.2-.4-.1-.1-.3-.2-.4-.2-.2 0-.3 0-.5.1s-.3.2-.4.3c-.1.1-.1.3-.1.5s.1.5.3.6c.2.1.3.1.5.1ZM569.815 526.644c.4 0 .9-.1 1.2-.4.4-.201.6-.601.8-1.001.2-.4.2-.8.1-1.3-.1-.401-.3-.801-.6-1.101-.3-.3-.7-.5-1.1-.6-.4-.1-.9 0-1.3.1-.4.2-.7.4-1 .8-.2.4-.4.801-.4 1.201 0 .6.2 1.1.6 1.5.6.601 1.1.801 1.7.801ZM575.515 552.455c.2 0 .3-.1.5-.1.1-.1.3-.2.3-.4.1-.2.1-.3 0-.5 0-.2-.1-.3-.2-.4-.1-.1-.3-.2-.4-.2h-.5c-.2.1-.3.2-.4.3-.1.1-.1.3-.1.5s.1.5.3.6c0 .2.3.2.5.2ZM1209.33 613.784c.6 0 1.2-.2 1.7-.5s.9-.801 1.1-1.401c.2-.6.3-1.2.2-1.801-.1-.6-.4-1.1-.8-1.6-.4-.4-1-.701-1.6-.801-.6-.1-1.2-.1-1.8.2-.6.201-1 .601-1.4 1.101-.3.5-.5 1.1-.5 1.701 0 .8.3 1.6.9 2.201.6.5 1.4.9 2.2.9ZM776.719 648c.6 0 1.2-.2 1.7-.5s.9-.801 1.1-1.401c.2-.6.3-1.2.2-1.801-.1-.6-.4-1.1-.8-1.6-.4-.401-1-.701-1.6-.801-.6-.1-1.2-.1-1.8.2-.6.2-1 .601-1.4 1.101-.3.5-.5 1.1-.5 1.701 0 .8.3 1.6.9 2.201.6.5 1.4.9 2.2.9ZM795.419 595.876c.4 0 .9-.1 1.2-.4.4-.201.6-.601.8-1.001.2-.4.2-.8.1-1.3-.1-.401-.3-.801-.6-1.101-.3-.3-.7-.5-1.1-.6-.4-.1-.9 0-1.3.1-.4.2-.7.4-1 .8-.2.4-.4.801-.4 1.201 0 .6.2 1.1.6 1.5.5.601 1.1.801 1.7.801ZM860.921 497.73c.4 0 .9-.1 1.2-.4.4-.2.6-.6.8-1 .2-.4.2-.801.1-1.301-.1-.4-.3-.8-.6-1.1-.3-.3-.7-.501-1.1-.601-.4-.1-.9 0-1.3.1-.4.201-.7.401-1 .801-.2.4-.4.8-.4 1.2 0 .601.2 1.101.6 1.501.5.6 1.1.8 1.7.8ZM1052.73 551.655c.2 0 .3-.1.5-.1.1-.1.2-.2.3-.4.1-.2.1-.3.1-.5s-.1-.3-.2-.4c-.1-.1-.3-.2-.5-.2s-.3 0-.5.1-.3.2-.4.3c-.1.1-.1.3-.1.5s.1.5.2.6c.1 0 .4.1.6.1ZM748.519 397.084c.4 0 .9-.1 1.2-.4.4-.201.6-.601.8-1.001.2-.4.2-.8.1-1.3-.1-.401-.3-.801-.6-1.101-.3-.3-.7-.5-1.1-.6-.4-.1-.9 0-1.3.1-.4.2-.7.4-1 .8-.2.4-.4.801-.4 1.201 0 .6.2 1.1.6 1.5.6.501 1.2.801 1.7.801ZM919.024 604.579c.2 0 .3 0 .5-.1.1-.1.3-.2.3-.4.1-.2.1-.3.1-.5s-.1-.3-.2-.5c-.1-.1-.3-.2-.5-.2s-.4 0-.5.1c-.2.1-.3.2-.4.3-.1.1-.1.3-.1.5s.1.5.3.6c0 .1.2.2.5.2ZM379.01 337.455c.2 0 .4-.1.5-.1.1-.1.3-.2.3-.4.1-.2.1-.3 0-.5 0-.2-.1-.3-.3-.5-.1-.1-.3-.2-.5-.2s-.4 0-.5.1c-.2.1-.3.2-.4.4-.1.2-.1.3-.1.5s.1.4.3.6c.3 0 .5.1.7.1ZM433.811 347.661c.6 0 1.2-.2 1.7-.5.5-.301.9-.801 1.1-1.401.2-.6.3-1.201.2-1.801-.1-.6-.4-1.1-.8-1.601-.4-.4-1-.7-1.6-.8-.6-.1-1.2-.1-1.8.2-.6.2-1 .6-1.4 1.101-.4.5-.5 1.1-.5 1.7 0 .801.3 1.601.9 2.201a3.1 3.1 0 0 0 2.2.901ZM281.107 462.214c.6 0 1.2-.2 1.7-.5.5-.301.9-.801 1.1-1.401.2-.6.3-1.201.2-1.801-.1-.6-.4-1.1-.8-1.601-.4-.4-1-.7-1.6-.8-.6-.1-1.2-.1-1.8.2-.6.2-1 .6-1.4 1.101-.3.5-.5 1.1-.5 1.7 0 .801.3 1.601.9 2.201a3.1 3.1 0 0 0 2.2.901ZM142.904 447.807c.6 0 1.2-.2 1.7-.5s.9-.8 1.1-1.401c.2-.6.3-1.2.2-1.8-.1-.601-.4-1.101-.8-1.601-.4-.4-1-.7-1.6-.801-.6-.1-1.2-.1-1.8.201-.6.2-1 .6-1.4 1.1-.3.5-.5 1.101-.5 1.701 0 .4.1.8.2 1.2.1.4.4.701.7 1.001.3.3.6.5 1 .7.4.1.8.2 1.2.2ZM513.112 341.158c.4 0 .901-.1 1.2-.4.401-.2.6-.601.8-1.001.2-.4.201-.8.101-1.3a2.384 2.384 0 0 0-.601-1.101c-.3-.3-.699-.5-1.099-.6-.4-.1-.9 0-1.3.1-.4.2-.7.4-1 .8-.2.4-.401.801-.401 1.201 0 .6.201 1.1.601 1.5.6.501 1.099.801 1.699.801ZM382.71 279.829c.2 0 .3 0 .5-.1.1-.1.3-.2.3-.4.1-.2.1-.3.1-.5s-.1-.3-.2-.5c-.1-.1-.3-.2-.5-.2h-.5c-.2.1-.3.2-.4.3-.1.1-.1.3-.1.5 0 .1 0 .2.1.3 0 .1.1.2.2.3.1.1.2.1.3.2-.1.1.1.1.2.1ZM277.607 362.068c.4 0 .9-.101 1.2-.401.4-.2.6-.6.8-1 .2-.4.2-.8.1-1.301-.1-.4-.3-.8-.6-1.1-.3-.3-.7-.5-1.1-.6-.4-.1-.9 0-1.3.1-.4.2-.7.4-1 .8-.2.4-.4.8-.4 1.201 0 .6.2 1.1.6 1.5.5.5 1.1.801 1.7.801ZM505.113 268.624c.4 0 .9-.1 1.199-.4.401-.2.601-.6.801-1 .2-.401.2-.801.1-1.301-.1-.4-.3-.8-.6-1.1-.3-.301-.7-.501-1.1-.601-.4-.1-.9 0-1.3.1-.4.2-.7.401-1 .801-.2.4-.401.8-.401 1.2 0 .601.201 1.101.601 1.501.5.6 1.1.8 1.7.8ZM432.511 300.339c.4 0 .9-.1 1.2-.4.4-.2.6-.601.8-1.001.2-.4.2-.8.1-1.3-.1-.4-.3-.801-.6-1.101-.3-.3-.7-.5-1.1-.6-.4-.1-.9 0-1.3.1-.4.2-.7.4-1 .8-.2.401-.4.801-.4 1.201 0 .3.1.6.2.8.1.3.3.501.5.701.2.2.4.4.7.5.3.3.6.3.9.3ZM1019.53 570.064c.4 0 .9-.1 1.2-.4.4-.2.6-.601.8-1.001.2-.4.2-.8.1-1.3-.1-.4-.3-.801-.6-1.101-.3-.3-.7-.5-1.1-.6-.4-.1-.9 0-1.3.1-.4.2-.7.4-1 .8-.2.401-.4.801-.4 1.201 0 .6.2 1.1.6 1.5.5.501 1.1.801 1.7.801ZM1363.83 469.717c.4 0 .9-.1 1.2-.4.4-.2.6-.6.8-1 .2-.4.2-.801.1-1.301-.1-.4-.3-.8-.6-1.1-.3-.3-.7-.5-1.1-.601-.4-.1-.9 0-1.3.1-.4.201-.7.401-1 .801-.2.4-.4.8-.4 1.2 0 .601.2 1.101.6 1.501.6.6 1.1.8 1.7.8ZM1271.23 586.271c.2 0 .3-.1.5-.1.1-.1.2-.2.3-.4.1-.2.1-.3.1-.5s-.1-.3-.2-.4c-.1-.1-.3-.2-.5-.2h-.5c-.2.1-.3.2-.4.3-.1.1-.1.3-.1.5s.1.5.3.6c0 .1.2.2.5.2ZM1299.13 645.298c.2 0 .3-.1.5-.1s.3-.2.3-.4c.1-.2.1-.3.1-.5s-.1-.3-.2-.4c-.1-.1-.3-.2-.4-.2h-.5c-.2.1-.3.2-.4.3-.1.1-.2.3-.2.5s.1.5.3.6c.1.1.3.2.5.2ZM1151.93 496.93c.6 0 1.2-.2 1.7-.5s.9-.801 1.1-1.401c.2-.6.3-1.2.2-1.801-.1-.6-.4-1.1-.8-1.6-.4-.401-1-.701-1.6-.801-.6-.1-1.2-.1-1.8.2-.6.2-1 .601-1.4 1.101-.3.5-.5 1.1-.5 1.701 0 .8.3 1.6.9 2.201.6.5 1.4.9 2.2.9ZM339.908 391.781c1 0 2.1-.3 2.9-.9.9-.601 1.5-1.401 1.9-2.401.4-1.001.5-2.001.3-3.002-.2-1-.7-2-1.4-2.701-.7-.7-1.7-1.2-2.7-1.4-1-.201-2.1-.1-3 .3-1 .4-1.8 1.1-2.4 1.901-.6.9-.9 1.9-.9 2.901 0 1.4.6 2.701 1.5 3.701a5.384 5.384 0 0 0 3.8 1.601ZM746.418 588.772c.2 0 .3 0 .5-.1.1-.1.3-.2.3-.4.1-.2.1-.3.1-.5s-.1-.3-.2-.5c-.1-.1-.3-.2-.5-.2s-.4 0-.5.1c-.2.1-.3.2-.4.3-.1.1-.1.3-.1.5s.1.5.3.6c.1.1.3.2.5.2ZM686.918 607.38c.2 0 .3-.1.5-.1.1-.1.3-.2.3-.4.1-.2.1-.3 0-.5 0-.2-.1-.3-.2-.5-.1-.1-.3-.2-.5-.2s-.3 0-.5.1-.3.2-.4.3c-.1.1-.1.3-.1.5 0 .1 0 .2.1.3 0 .1.1.2.2.3.1.1.2.1.3.2h.3ZM695.617 575.366c.4 0 .9-.1 1.2-.4.4-.2.6-.6.8-1 .2-.401.2-.801.1-1.301-.1-.4-.3-.8-.6-1.1-.3-.3-.7-.501-1.1-.601-.4-.1-.9 0-1.3.1-.4.201-.7.401-1 .801-.3.4-.4.8-.4 1.2 0 .601.2 1.101.6 1.501.6.6 1.1.8 1.7.8ZM651.916 513.037c.2 0 .3 0 .5-.1.1-.1.3-.2.3-.4s.1-.3.1-.5-.1-.3-.2-.5c-.1-.1-.3-.2-.5-.2s-.4 0-.5.1c-.2.1-.3.2-.4.3-.1.1-.1.3-.1.5s.1.5.3.6c.2.1.3.2.5.2ZM690.617 527.643c.2 0 .3.001.5-.099.1-.1.3-.201.3-.401.1-.2.1-.3.1-.5s-.1-.3-.2-.5c-.1-.1-.3-.2-.5-.2s-.3.001-.5.101-.3.2-.4.3c-.1.1-.1.3-.1.5s.1.499.3.599c0 .1.2.2.5.2ZM745.319 537.849c.6 0 1.2-.2 1.7-.5s.9-.801 1.1-1.401c.2-.6.3-1.2.2-1.801-.1-.6-.4-1.1-.8-1.6-.4-.401-1-.701-1.6-.801-.6-.1-1.2-.1-1.8.2-.6.2-1 .601-1.4 1.101-.3.5-.5 1.1-.5 1.701 0 .8.3 1.6.9 2.201.6.6 1.4.9 2.2.9ZM711.917 644.398c.6 0 1.2-.2 1.7-.5s.9-.8 1.1-1.401c.2-.6.3-1.2.2-1.8-.1-.601-.4-1.101-.8-1.601-.4-.4-1-.7-1.6-.801-.6-.1-1.2-.1-1.8.201-.6.2-1 .6-1.4 1.1-.3.5-.5 1.101-.5 1.701 0 .8.3 1.601.9 2.201.7.6 1.4.9 2.2.9ZM694.218 470.017c.2 0 .3 0 .5-.1.1-.1.3-.2.3-.4.1-.2.1-.3.1-.5s-.1-.3-.2-.5c-.1-.1-.3-.2-.5-.2h-.5c-.2.1-.3.2-.4.3-.1.1-.1.3-.1.5 0 .1 0 .2.1.3 0 .1.1.2.2.3.1.1.2.1.3.2 0 0 .1.1.2.1ZM744.019 490.527c.4 0 .9-.1 1.2-.4.4-.2.6-.6.8-1.001.2-.4.2-.8.1-1.3-.1-.4-.3-.801-.6-1.101-.3-.3-.7-.5-1.1-.6-.4-.1-.9 0-1.3.1-.4.2-.7.4-1 .8-.2.401-.4.801-.4 1.201 0 .6.2 1.1.6 1.501.6.6 1.1.8 1.7.8ZM1040.53 293.636c.4 0 .8-.1 1.2-.4.4-.2.6-.601.8-1.001.2-.4.2-.8.1-1.3-.1-.4-.3-.801-.6-1.101-.3-.3-.7-.5-1.1-.6-.4-.1-.9 0-1.3.1-.4.2-.7.4-1 .8-.3.401-.4.801-.4 1.201 0 .3.1.6.2.8.1.3.3.5.5.701.2.2.4.4.7.5.3.2.6.3.9.3ZM990.724 293.135c.2 0 .3-.1.5-.1.1-.1.3-.2.3-.4.1-.2.1-.3.1-.5s-.1-.3-.2-.4c-.1-.1-.3-.2-.4-.2h-.5c-.2.1-.3.2-.4.3-.1.1-.1.3-.1.5s.1.5.3.6c-.1.1.1.2.4.2ZM1244.13 65.53c.4 0 .9-.1 1.2-.4.4-.2.6-.6.8-1 .2-.4.2-.8.1-1.301-.1-.4-.3-.8-.6-1.1-.3-.3-.7-.5-1.1-.6-.4-.1-.9 0-1.3.1-.4.2-.8.4-1 .8-.2.4-.4.8-.4 1.2 0 .3.1.6.2.8.1.3.3.5.5.7.2.201.4.401.7.501.3.2.6.3.9.3ZM1288.63 53.725c.4 0 .8-.1 1.2-.4.4-.2.6-.6.8-1 .2-.401.2-.801.1-1.301-.1-.4-.3-.8-.6-1.1-.3-.301-.7-.501-1.1-.601-.4-.1-.9 0-1.3.1-.4.2-.7.4-1 .8-.2.4-.4.8-.4 1.2 0 .601.2 1.101.6 1.501.6.6 1.2.8 1.7.8ZM1317.93 79.436c.2 0 .3-.1.5-.1.1-.1.2-.2.3-.4.1-.2.1-.3.1-.5s-.1-.3-.2-.4c-.1-.1-.3-.2-.5-.2h-.5c-.2.1-.3.2-.4.3-.1.1-.2.3-.2.5 0 .1 0 .2.1.3 0 .1.1.2.2.3.1.1.2.1.3.2.1.1.2 0 .3 0ZM1122.23 311.543c.2 0 .4-.1.5-.1.2-.1.3-.2.3-.4.1-.2.1-.3 0-.5 0-.2-.1-.3-.2-.5-.1-.1-.3-.2-.4-.2-.2 0-.3 0-.5.1s-.3.2-.4.3c-.1.1-.1.3-.1.5 0 .1 0 .2.1.3 0 .1.1.2.2.3.1.1.2.1.3.2h.2ZM1209.53 351.762c.2 0 .3-.1.5-.1.1-.1.2-.2.3-.4.1-.2.1-.3.1-.5s-.1-.3-.2-.4c-.1-.1-.3-.2-.5-.2h-.5c-.2.1-.3.2-.4.3-.1.1-.2.3-.2.5s.1.5.3.6c.2.1.4.2.6.2ZM1142.73 346.56c.4 0 .8-.1 1.2-.4.4-.2.6-.6.8-1 .2-.4.2-.801.1-1.301-.1-.4-.3-.8-.6-1.1-.3-.3-.7-.501-1.1-.601-.4-.1-.9 0-1.3.1-.4.201-.7.401-1 .801-.2.4-.4.8-.4 1.2 0 .601.2 1.101.6 1.501.6.6 1.2.8 1.7.8ZM1002.03 341.358c.6 0 1.2-.2 1.7-.5s.9-.801 1.1-1.401c.2-.6.3-1.2.2-1.801-.1-.6-.4-1.1-.8-1.6-.4-.401-1-.701-1.6-.801-.6-.1-1.2-.1-1.8.2-.6.2-1.004.601-1.404 1.101-.4.5-.5 1.1-.5 1.701 0 .8.3 1.6.9 2.201.604.6 1.404.9 2.204.9ZM885.323 441.304c.6 0 1.2-.2 1.7-.5s.9-.8 1.1-1.401c.2-.6.3-1.2.2-1.8-.1-.601-.4-1.101-.8-1.601-.4-.4-1-.7-1.6-.8-.6-.101-1.2-.101-1.8.2-.6.2-1 .6-1.4 1.1-.3.5-.5 1.101-.5 1.701 0 .8.3 1.6.9 2.201.7.6 1.4.9 2.2.9ZM1114.83 269.525c.4 0 .9-.1 1.2-.4.4-.201.6-.601.8-1.001.2-.4.2-.8.1-1.301-.1-.4-.3-.8-.6-1.1-.3-.3-.7-.5-1.1-.6-.4-.1-.9 0-1.3.1-.4.2-.7.4-1 .8-.2.4-.4.801-.4 1.201 0 .6.2 1.1.6 1.5.5.601 1.1.801 1.7.801ZM1018.13 385.478c.2 0 .3 0 .5-.1.1-.1.3-.2.3-.4.1-.2.1-.3.1-.5s-.1-.3-.2-.5c-.1-.1-.3-.2-.5-.2h-.5c-.2.1-.3.2-.4.3-.1.1-.2.3-.2.5 0 .1 0 .2.1.3 0 .1.1.2.2.3.1.1.2.1.3.2.1.1.2.1.3.1ZM1066.33 451.508c.2 0 .4-.1.5-.1.1-.1.2-.2.3-.4.1-.2.1-.3 0-.5 0-.2-.1-.3-.2-.4-.1-.1-.3-.2-.4-.2h-.5c-.2 0-.3.2-.4.3-.1.1-.2.3-.2.5s.1.5.3.6c.2.1.4.2.6.2ZM1177.23 397.984c.2 0 .3-.1.5-.1.2-.1.3-.2.3-.4.1-.2.1-.3.1-.5s-.1-.3-.2-.4c-.1-.1-.3-.2-.5-.2h-.5c-.2.1-.3.2-.4.3-.1.1-.1.3-.1.5s.1.5.2.6c.1.1.3.2.6.2ZM1056.83 400.085c.2 0 .3-.101.5-.101.2-.1.3-.199.3-.399.1-.2.1-.3.1-.5s-.1-.3-.2-.4c-.1-.1-.3-.201-.4-.201h-.5c-.2.1-.3.201-.4.301-.1.1-.1.3-.1.5s.1.499.2.599c0 .1.3.201.5.201ZM1111.63 410.29c.6 0 1.2-.2 1.7-.5.5-.301.9-.801 1.1-1.401.2-.6.3-1.201.2-1.801-.1-.6-.4-1.1-.8-1.601-.4-.4-1-.7-1.6-.8-.6-.1-1.2-.1-1.8.2-.6.2-1 .6-1.4 1.101-.3.5-.5 1.1-.5 1.7 0 .801.3 1.601.9 2.201a3.1 3.1 0 0 0 2.2.901ZM1060.43 342.458c.2 0 .3-.1.5-.1s.2-.2.3-.4c.1-.2.1-.3.1-.5s-.1-.3-.2-.4c-.1-.1-.3-.2-.5-.2h-.5c-.2 0-.3.2-.4.3-.1.1-.1.3-.1.5s.1.5.3.6c.1.1.3.2.5.2ZM1110.23 363.068c.4 0 .9-.1 1.2-.4.4-.2.6-.6.8-1.001.2-.4.2-.8.1-1.3-.1-.4-.3-.801-.6-1.101-.3-.3-.7-.5-1.1-.6-.4-.1-.9 0-1.3.1-.4.2-.7.4-1 .8-.2.401-.4.801-.4 1.201 0 .6.2 1.1.6 1.501.6.5 1.2.8 1.7.8ZM651.517 581.969c1 0 2.1-.3 2.9-.9.9-.6 1.5-1.401 1.9-2.401.4-1.001.5-2.001.3-3.002-.2-1-.7-2-1.4-2.701-.7-.7-1.7-1.2-2.7-1.4-1-.2-2.1-.1-3 .3-1 .4-1.8 1.1-2.4 1.901-.6.9-.9 1.9-.9 2.901 0 1.401.6 2.701 1.5 3.702 1.1 1 2.4 1.6 3.8 1.6Z" opacity=".75"/></g></svg>