<svg width="436" height="465" viewBox="0 0 436 465" fill="none" xmlns="http://www.w3.org/2000/svg">
    <path d="M64.037 315.923C14.6192 350.681 27.2939 401.617 92.3451 429.673C157.396 457.729 250.226 452.288 299.577 417.509C348.929 382.729 336.32 331.826 271.269 303.77C206.218 275.714 113.444 281.166 64.037 315.923Z" fill="#16194F"/>
    <path d="M377.878 187.675L170.568 67.0242C169.766 66.4871 168.862 66.1198 167.913 65.9449C166.964 65.7699 165.989 65.791 165.048 66.0068C164.594 66.152 164.163 66.3605 163.767 66.6261L161.129 67.8978L161.636 69.2691C160.988 70.815 160.672 72.4806 160.709 74.1571V228.061C160.709 235.205 165.125 243.544 170.646 246.762L377.955 367.413C378.581 367.777 379.243 368.073 379.931 368.297L380.627 369.901L384.16 368.187L384.37 368.076L384.502 368.021C386.567 366.86 387.88 364.161 387.88 360.28V206.375C387.814 199.242 383.365 190.871 377.878 187.675Z" fill="url(#paint0_linear)"/>
    <path d="M374.797 189.223L167.488 68.5724C166.686 68.0341 165.782 67.6661 164.833 67.4911C163.883 67.3161 162.908 67.3379 161.968 67.555C161.512 67.6957 161.08 67.9045 160.687 68.1743L158.048 69.435L158.556 70.8063C157.909 72.3528 157.593 74.0179 157.629 75.6942V229.61C157.629 236.743 162.045 245.092 167.565 248.31L374.875 368.961C375.496 369.325 376.155 369.621 376.84 369.846L377.546 371.449L381.079 369.735L381.289 369.624L381.411 369.569C383.475 368.408 384.789 365.71 384.789 361.828V207.912C384.723 200.78 380.285 192.43 374.797 189.223Z" fill="#67A0F3"/>
    <path d="M381.642 363.365C381.642 370.498 377.226 373.694 371.706 370.498L164.397 249.858C158.876 246.662 154.46 238.291 154.46 231.158V77.2535C154.46 70.1206 158.876 66.9247 164.397 70.1207L371.706 190.771C377.226 193.956 381.642 202.328 381.642 209.461V363.365Z" fill="#1543BA"/>
    <path d="M373.373 351.09C373.373 357.526 369.354 360.412 364.408 357.526L171.705 245.38C166.748 242.504 162.74 234.94 162.74 228.504V89.5841C162.74 83.1479 166.748 80.2615 171.705 83.1368L364.408 195.239C369.354 198.126 373.373 205.679 373.373 212.126V351.09Z" fill="#101950"/>
    <path style="mix-blend-mode:screen" opacity="0.1" d="M371.297 203.489C369.853 200.131 367.458 197.27 364.408 195.261L171.705 83.0925C166.748 80.2173 162.74 83.0925 162.74 89.5398V228.504C162.777 230.913 163.248 233.296 164.131 235.537L371.297 203.489Z" fill="url(#paint1_linear)"/>
    <path d="M370.9 371.582H364.905L159.34 252.568C153.82 249.383 144.38 249.67 138.209 253.209L5.43425 329.415H0.079559V335.597C-0.284781 337.897 0.929686 340.175 3.7892 341.834L211.562 462.142C217.083 465.316 226.522 465.028 232.694 461.489L365.888 385.051C368.814 383.37 370.459 381.258 370.812 379.168H370.9V371.582Z" fill="#67A0F3"/>
    <path d="M5.01433 323.465C-1.15737 327.004 -1.7094 332.467 3.78883 335.63L211.562 455.949C217.082 459.134 226.522 458.846 232.694 455.296L365.888 378.869C372.059 375.32 372.611 369.868 367.113 366.705L159.34 246.375C153.82 243.201 144.38 243.488 138.208 247.027L5.01433 323.465Z" fill="url(#paint2_linear)"/>
    <path d="M327.146 373.44L335.703 378.35C336.199 378.576 336.741 378.682 337.286 378.659C337.831 378.636 338.363 378.485 338.838 378.217L348.587 372.566C349.514 372.035 349.603 371.228 348.786 370.763L340.218 365.853C339.724 365.628 339.184 365.521 338.642 365.543C338.099 365.564 337.569 365.712 337.094 365.975L327.345 371.637C326.417 372.168 326.329 372.975 327.146 373.44Z" fill="#AAC1EF"/>
    <path d="M312.263 364.946L320.831 369.857C321.327 370.082 321.868 370.189 322.413 370.167C322.957 370.146 323.489 369.998 323.966 369.735L333.704 364.073C334.631 363.542 334.72 362.735 333.914 362.27L325.346 357.36C324.85 357.135 324.308 357.028 323.764 357.049C323.22 357.07 322.688 357.219 322.211 357.482L312.451 363.111C311.545 363.642 311.457 364.449 312.263 364.946Z" fill="#AAC1EF"/>
    <path d="M297.38 356.387L305.948 361.297C306.444 361.524 306.986 361.63 307.531 361.607C308.076 361.583 308.608 361.432 309.083 361.164L318.832 355.513C319.748 354.983 319.837 354.175 319.031 353.711L310.463 348.801C309.967 348.575 309.425 348.469 308.881 348.49C308.337 348.511 307.805 348.659 307.328 348.922L297.59 354.584C296.662 355.115 296.574 355.923 297.38 356.387Z" fill="#AAC1EF"/>
    <path d="M282.509 347.861L291.076 352.771C291.57 352.997 292.111 353.103 292.654 353.08C293.197 353.057 293.727 352.906 294.201 352.638L303.949 346.987C304.866 346.456 304.965 345.649 304.148 345.185L295.581 340.274C295.087 340.049 294.547 339.943 294.004 339.964C293.461 339.985 292.931 340.133 292.456 340.396L282.707 346.058C281.791 346.589 281.692 347.396 282.509 347.861Z" fill="#AAC1EF"/>
    <path d="M267.626 339.334L276.193 344.245C276.687 344.47 277.227 344.576 277.77 344.555C278.313 344.534 278.843 344.386 279.318 344.123L289.067 338.461C289.994 337.93 290.082 337.123 289.265 336.658L280.698 331.77C280.204 331.545 279.664 331.438 279.121 331.459C278.579 331.481 278.049 331.629 277.573 331.892L267.824 337.543C266.908 338.063 266.809 338.87 267.626 339.334Z" fill="#AAC1EF"/>
    <path d="M252.743 330.808L261.311 335.718C261.807 335.945 262.35 336.051 262.894 336.028C263.439 336.005 263.971 335.853 264.446 335.586L274.195 329.935C275.112 329.404 275.2 328.585 274.394 328.121L265.826 323.211C265.329 322.99 264.787 322.888 264.243 322.911C263.699 322.934 263.168 323.082 262.691 323.344L252.953 328.995C252.026 329.559 251.937 330.344 252.743 330.808Z" fill="#AAC1EF"/>
    <path d="M237.86 322.282L246.428 327.192C246.924 327.418 247.467 327.524 248.012 327.501C248.556 327.478 249.088 327.327 249.563 327.059L259.312 321.408C260.229 320.877 260.328 320.059 259.511 319.595L250.944 314.685C250.446 314.464 249.904 314.361 249.36 314.384C248.817 314.407 248.285 314.556 247.808 314.817L238.07 320.468C237.143 321.01 237.055 321.817 237.86 322.282Z" fill="#AAC1EF"/>
    <path d="M223.023 313.756L231.601 318.655C232.096 318.885 232.638 318.995 233.184 318.974C233.729 318.952 234.261 318.801 234.737 318.533L244.474 312.882C245.391 312.34 245.479 311.533 244.673 311.068L236.106 306.158C235.604 305.937 235.058 305.838 234.511 305.869C233.964 305.9 233.433 306.06 232.959 306.335L223.21 311.986C222.272 312.484 222.172 313.291 223.023 313.756Z" fill="#AAC1EF"/>
    <path d="M208.107 305.229L216.674 310.139C217.171 310.363 217.713 310.468 218.258 310.445C218.802 310.422 219.333 310.272 219.81 310.007L229.547 304.356C230.475 303.814 230.563 303.007 229.757 302.542L221.19 297.632C220.693 297.408 220.151 297.304 219.606 297.327C219.062 297.35 218.53 297.5 218.054 297.765L208.305 303.416C207.389 303.958 207.301 304.765 208.107 305.229Z" fill="#AAC1EF"/>
    <path d="M193.213 296.703L201.78 301.613C202.277 301.837 202.819 301.942 203.364 301.919C203.908 301.895 204.439 301.745 204.916 301.48L214.665 295.818C215.581 295.288 215.669 294.48 214.863 294.016L206.296 289.106C205.8 288.879 205.257 288.773 204.712 288.796C204.167 288.819 203.636 288.971 203.16 289.238L193.411 294.9C192.506 295.42 192.418 296.239 193.213 296.703Z" fill="#AAC1EF"/>
    <path d="M178.341 288.177L186.908 293.076C187.404 293.301 187.946 293.408 188.491 293.387C189.035 293.366 189.567 293.217 190.044 292.954L199.793 287.303C200.709 286.761 200.809 285.954 199.992 285.489L191.424 280.579C190.927 280.356 190.385 280.251 189.841 280.274C189.296 280.297 188.765 280.447 188.289 280.712L178.551 286.363C177.623 286.905 177.535 287.712 178.341 288.177Z" fill="#AAC1EF"/>
    <path d="M163.469 279.639L172.036 284.561C172.531 284.784 173.072 284.889 173.614 284.866C174.157 284.843 174.687 284.693 175.161 284.428L184.91 278.777C185.826 278.235 185.926 277.428 185.12 276.963L176.541 272.053C176.047 271.827 175.506 271.721 174.963 271.744C174.42 271.767 173.89 271.918 173.417 272.186L163.668 277.837C162.751 278.368 162.663 279.186 163.469 279.639Z" fill="#AAC1EF"/>
    <path d="M148.586 271.124L157.154 276.023C157.65 276.249 158.191 276.355 158.736 276.334C159.28 276.313 159.812 276.165 160.289 275.902L170.027 270.239C170.954 269.709 171.043 268.901 170.237 268.437L161.669 263.527C161.173 263.3 160.63 263.194 160.086 263.217C159.541 263.241 159.009 263.392 158.534 263.66L148.785 269.311C147.869 269.841 147.78 270.649 148.586 271.124Z" fill="#AAC1EF"/>
    <path d="M132.964 262.167L142.227 267.475C142.739 267.706 143.298 267.815 143.86 267.792C144.422 267.769 144.97 267.615 145.462 267.342L155.1 261.746C156.05 261.193 156.138 260.353 155.31 259.877L146.047 254.58C145.536 254.344 144.977 254.233 144.415 254.254C143.853 254.275 143.304 254.428 142.812 254.702L133.174 260.298C132.224 260.851 132.136 261.68 132.964 262.167Z" fill="#AAC1EF"/>
    <path d="M303.751 378.67L319.131 387.517C319.769 387.811 320.468 387.949 321.169 387.922C321.871 387.895 322.557 387.704 323.171 387.363L332.004 382.265C333.196 381.568 333.307 380.528 332.269 379.931L316.878 371.084C316.238 370.794 315.539 370.659 314.837 370.69C314.135 370.721 313.45 370.916 312.837 371.261L304.06 376.348C302.824 377.034 302.702 378.073 303.751 378.67Z" fill="#AAC1EF"/>
    <path d="M283.834 385.958L303.122 397.017C303.712 397.285 304.357 397.411 305.005 397.386C305.652 397.361 306.286 397.186 306.854 396.873L315.951 391.587C317.055 390.957 317.166 389.983 316.194 389.431L296.917 378.372C296.326 378.103 295.681 377.977 295.033 378.004C294.385 378.031 293.752 378.21 293.185 378.527L284.077 383.746C282.984 384.377 282.873 385.35 283.834 385.958Z" fill="#AAC1EF"/>
    <path d="M260.803 391.333L286.848 406.262C287.477 406.548 288.165 406.681 288.855 406.653C289.545 406.624 290.219 406.433 290.823 406.096L299.655 400.965C300.825 400.279 300.947 399.251 299.909 398.665L273.886 383.746C273.258 383.459 272.571 383.323 271.881 383.35C271.19 383.377 270.516 383.566 269.912 383.901L261.079 389.043C259.898 389.718 259.776 390.747 260.803 391.333Z" fill="#AAC1EF"/>
    <path d="M253.372 408.076L268.465 416.723C269.154 417.035 269.906 417.181 270.661 417.15C271.416 417.12 272.153 416.913 272.815 416.547L283.314 410.453C284.595 409.712 284.717 408.584 283.59 407.943L268.498 399.295C267.809 398.983 267.057 398.837 266.302 398.868C265.547 398.899 264.809 399.105 264.148 399.472L253.648 405.565C252.368 406.306 252.246 407.434 253.372 408.076Z" fill="#AAC1EF"/>
    <path d="M212.567 384.686L227.659 393.345C228.348 393.658 229.101 393.803 229.856 393.771C230.612 393.738 231.349 393.528 232.009 393.157L242.509 387.064C243.789 386.323 243.911 385.206 242.785 384.554L227.692 375.906C227.003 375.594 226.251 375.448 225.496 375.479C224.741 375.509 224.004 375.716 223.342 376.083L212.843 382.176C211.562 382.928 211.44 384.045 212.567 384.686Z" fill="#AAC1EF"/>
    <path d="M125.445 334.767L205.545 380.661C206.276 380.996 207.076 381.153 207.88 381.12C208.684 381.088 209.468 380.866 210.171 380.473L220.372 374.568C221.73 373.771 221.863 372.566 220.67 371.88L140.582 325.987C139.848 325.652 139.046 325.494 138.241 325.527C137.435 325.56 136.649 325.782 135.945 326.175L125.743 332.091C124.385 332.876 124.253 334.082 125.445 334.767Z" fill="#AAC1EF"/>
    <path d="M234.272 397.127L246.759 404.282C247.391 404.573 248.082 404.711 248.776 404.684C249.471 404.657 250.149 404.467 250.756 404.128L261.62 397.813C262.801 397.127 262.923 396.099 261.885 395.502L249.398 388.347C248.763 388.061 248.07 387.927 247.375 387.956C246.679 387.984 246 388.175 245.39 388.513L234.526 394.805C233.356 395.502 233.235 396.541 234.272 397.127Z" fill="#AAC1EF"/>
    <path d="M288.891 370.155L297.458 375.065C297.954 375.291 298.496 375.397 299.04 375.376C299.585 375.355 300.116 375.207 300.594 374.944L310.342 369.282C311.259 368.751 311.347 367.943 310.541 367.479L301.974 362.569C301.478 362.343 300.936 362.237 300.392 362.258C299.847 362.279 299.315 362.427 298.838 362.69L289.1 368.353C288.162 368.883 288.085 369.691 288.891 370.155Z" fill="#AAC1EF"/>
    <path d="M273.809 361.507L282.376 366.417C282.874 366.639 283.416 366.742 283.96 366.719C284.504 366.696 285.035 366.547 285.512 366.285L295.261 360.634C296.177 360.092 296.265 359.284 295.46 358.82L286.87 353.888C286.374 353.661 285.831 353.555 285.286 353.578C284.741 353.601 284.21 353.753 283.734 354.02L273.986 359.671C273.069 360.224 272.981 361.043 273.809 361.507Z" fill="#AAC1EF"/>
    <path d="M258.684 352.848L267.251 357.758C267.748 357.982 268.29 358.087 268.835 358.064C269.379 358.041 269.911 357.891 270.387 357.626L280.125 351.975C281.052 351.433 281.14 350.625 280.334 350.161L271.756 345.262C271.262 345.034 270.722 344.926 270.179 344.947C269.636 344.968 269.106 345.118 268.631 345.383L258.883 351.035C257.966 351.576 257.878 352.384 258.684 352.848Z" fill="#AAC1EF"/>
    <path d="M243.58 344.189L252.147 349.099C252.642 349.326 253.182 349.432 253.725 349.409C254.268 349.386 254.798 349.234 255.272 348.967L265.021 343.316C265.948 342.785 266.036 341.977 265.219 341.513L256.652 336.603C256.158 336.377 255.618 336.271 255.075 336.292C254.533 336.313 254.003 336.461 253.527 336.725L243.779 342.387C242.895 342.917 242.774 343.725 243.58 344.189Z" fill="#AAC1EF"/>
    <path d="M228.476 335.53L237.044 340.44C237.538 340.666 238.078 340.772 238.621 340.751C239.163 340.73 239.693 340.582 240.168 340.319L249.917 334.657C250.834 334.126 250.922 333.319 250.116 332.854L241.548 327.944C241.052 327.718 240.511 327.612 239.966 327.633C239.422 327.654 238.89 327.802 238.413 328.066L228.675 333.728C227.759 334.258 227.659 335.088 228.476 335.53Z" fill="#AAC1EF"/>
    <path d="M213.362 326.882L221.918 331.77C222.415 331.994 222.957 332.099 223.501 332.076C224.046 332.053 224.577 331.903 225.054 331.638L234.802 325.987C235.719 325.445 235.807 324.637 235.001 324.173L226.434 319.263C225.937 319.036 225.395 318.93 224.85 318.953C224.305 318.977 223.773 319.128 223.298 319.396L213.56 325.047C212.644 325.6 212.556 326.418 213.362 326.882Z" fill="#AAC1EF"/>
    <path d="M198.258 318.223L206.826 323.133C207.322 323.357 207.865 323.462 208.409 323.439C208.953 323.416 209.485 323.266 209.961 323.001L219.71 317.394C220.626 316.852 220.715 316.045 219.909 315.58L211.341 310.67C210.844 310.446 210.302 310.342 209.758 310.365C209.213 310.388 208.682 310.538 208.206 310.803L198.468 316.465C197.551 316.952 197.452 317.759 198.258 318.223Z" fill="#AAC1EF"/>
    <path d="M183.155 309.564L191.722 314.474C192.218 314.7 192.76 314.806 193.304 314.785C193.848 314.764 194.38 314.616 194.858 314.353L204.595 308.691C205.523 308.149 205.611 307.342 204.805 306.888L196.238 301.978C195.742 301.752 195.2 301.646 194.655 301.667C194.111 301.688 193.579 301.836 193.102 302.1L183.353 307.762C182.437 308.293 182.349 309.1 183.155 309.564Z" fill="#AAC1EF"/>
    <path d="M168.051 300.905L176.618 305.815C177.115 306.041 177.656 306.147 178.201 306.126C178.745 306.105 179.277 305.957 179.754 305.694L189.503 300.032C190.419 299.501 190.508 298.694 189.702 298.229L181.134 293.319C180.638 293.093 180.095 292.987 179.55 293.01C179.006 293.033 178.474 293.184 177.999 293.452L168.25 299.103C167.333 299.634 167.245 300.441 168.051 300.905Z" fill="#AAC1EF"/>
    <path d="M152.947 292.257L161.515 297.156C162.011 297.382 162.553 297.488 163.097 297.467C163.641 297.446 164.173 297.298 164.651 297.035L174.388 291.373C175.316 290.842 175.404 290.035 174.598 289.57L166.031 284.66C165.534 284.434 164.992 284.328 164.447 284.351C163.902 284.374 163.37 284.525 162.895 284.793L153.146 290.444C152.23 290.986 152.142 291.793 152.947 292.257Z" fill="#AAC1EF"/>
    <path d="M137.844 283.598L146.412 288.497C146.905 288.728 147.445 288.837 147.989 288.816C148.532 288.795 149.063 288.644 149.536 288.376L159.285 282.725C160.213 282.183 160.301 281.376 159.495 280.911L150.927 276.001C150.431 275.777 149.888 275.673 149.344 275.696C148.8 275.719 148.268 275.869 147.792 276.134L138.01 281.785C137.127 282.327 137.038 283.112 137.844 283.598Z" fill="#AAC1EF"/>
    <path d="M117.099 271.71L130.966 279.65C131.575 279.931 132.241 280.063 132.911 280.036C133.581 280.009 134.234 279.824 134.819 279.496L143.795 274.287C144.899 273.635 145.043 272.628 144.038 272.075L130.182 264.135C129.57 263.858 128.902 263.728 128.232 263.755C127.561 263.782 126.905 263.965 126.318 264.29L117.353 269.499C116.216 270.14 116.105 271.135 117.099 271.71Z" fill="#AAC1EF"/>
    <path d="M269.128 377.465L277.695 382.375C278.191 382.601 278.733 382.707 279.278 382.686C279.822 382.665 280.354 382.517 280.831 382.253L290.569 376.591C291.496 376.06 291.584 375.253 290.778 374.789L282.211 369.879C281.715 369.653 281.173 369.547 280.629 369.568C280.085 369.589 279.553 369.737 279.075 370L269.327 375.662C268.41 376.193 268.289 377 269.128 377.465Z" fill="#AAC1EF"/>
    <path d="M254.024 368.817L262.591 373.716C263.087 373.942 263.629 374.048 264.173 374.027C264.718 374.006 265.25 373.858 265.727 373.594L275.464 367.943C276.392 367.402 276.48 366.594 275.663 366.13L267.107 361.22C266.611 360.994 266.069 360.888 265.525 360.909C264.98 360.93 264.448 361.078 263.971 361.341L254.222 367.003C253.306 367.545 253.218 368.342 254.024 368.817Z" fill="#AAC1EF"/>
    <path d="M238.92 360.158L247.488 365.068C247.983 365.296 248.525 365.404 249.07 365.383C249.615 365.362 250.147 365.212 250.623 364.947L260.361 359.296C261.288 358.754 261.366 357.946 260.56 357.482L251.992 352.572C251.498 352.345 250.957 352.239 250.414 352.263C249.871 352.286 249.341 352.437 248.868 352.705L239.119 358.311C238.202 358.886 238.114 359.694 238.92 360.158Z" fill="#AAC1EF"/>
    <path d="M223.806 351.499L232.373 356.409C232.87 356.636 233.412 356.742 233.957 356.718C234.502 356.695 235.033 356.544 235.509 356.276L245.258 350.625C246.174 350.095 246.273 349.287 245.456 348.812L236.889 343.935C236.393 343.709 235.851 343.603 235.307 343.624C234.762 343.645 234.231 343.793 233.753 344.057L224.016 349.719C223.099 350.227 223.022 351.035 223.806 351.499Z" fill="#AAC1EF"/>
    <path d="M208.669 342.829L217.225 347.739C217.721 347.965 218.263 348.071 218.808 348.05C219.352 348.029 219.884 347.881 220.361 347.617L230.11 341.955C231.026 341.425 231.114 340.617 230.309 340.153L221.741 335.243C221.245 335.017 220.703 334.911 220.159 334.932C219.615 334.953 219.083 335.101 218.605 335.364L208.868 341.026C207.984 341.568 207.896 342.376 208.669 342.829Z" fill="#AAC1EF"/>
    <path d="M193.599 334.181L202.166 339.091C202.662 339.317 203.204 339.423 203.748 339.402C204.293 339.381 204.825 339.233 205.302 338.97L215.051 333.307C215.967 332.777 216.055 331.969 215.249 331.505L206.682 326.595C206.185 326.371 205.643 326.266 205.098 326.289C204.554 326.312 204.023 326.462 203.546 326.728L193.809 332.378C192.881 332.876 192.793 333.728 193.599 334.181Z" fill="#AAC1EF"/>
    <path d="M178.495 325.533L187.063 330.443C187.559 330.67 188.101 330.776 188.646 330.753C189.191 330.73 189.723 330.578 190.198 330.311L199.947 324.66C200.863 324.118 200.952 323.31 200.146 322.846L191.578 317.936C191.081 317.712 190.539 317.607 189.995 317.63C189.45 317.653 188.919 317.803 188.443 318.068L178.694 323.72C177.755 324.261 177.689 325.069 178.495 325.533Z" fill="#AAC1EF"/>
    <path d="M163.403 316.874L171.97 321.784C172.467 322.01 173.008 322.116 173.553 322.095C174.097 322.074 174.629 321.926 175.106 321.663L184.844 316C185.771 315.47 185.86 314.662 185.054 314.198L176.486 309.288C175.991 309.06 175.449 308.952 174.904 308.973C174.359 308.994 173.827 309.144 173.351 309.41L163.602 315.072C162.674 315.602 162.586 316.41 163.403 316.874Z" fill="#AAC1EF"/>
    <path d="M148.288 308.215L156.855 313.125C157.35 313.351 157.889 313.457 158.432 313.436C158.975 313.415 159.505 313.267 159.98 313.004L169.729 307.342C170.656 306.811 170.744 306.003 169.939 305.539L161.36 300.629C160.866 300.402 160.325 300.297 159.782 300.32C159.239 300.343 158.709 300.494 158.235 300.762L148.487 306.413C147.57 306.943 147.471 307.762 148.288 308.215Z" fill="#AAC1EF"/>
    <path d="M133.185 299.556L141.752 304.466C142.246 304.692 142.786 304.798 143.329 304.777C143.871 304.756 144.402 304.608 144.877 304.345L154.626 298.683C155.542 298.152 155.641 297.344 154.835 296.88L146.257 291.959C145.763 291.733 145.223 291.627 144.68 291.648C144.138 291.669 143.607 291.817 143.132 292.08L133.383 297.743C132.489 298.284 132.368 299.103 133.185 299.556Z" fill="#AAC1EF"/>
    <path d="M118.07 290.908L126.649 295.818C127.144 296.042 127.684 296.147 128.227 296.124C128.77 296.101 129.299 295.951 129.773 295.686L139.522 290.024C140.439 289.493 140.538 288.685 139.721 288.221L131.154 283.311C130.658 283.09 130.118 282.987 129.576 283.01C129.034 283.033 128.504 283.181 128.029 283.444L118.28 289.095C117.353 289.637 117.264 290.444 118.07 290.908Z" fill="#AAC1EF"/>
    <path d="M100.747 280.978L111.401 287.071C111.944 287.319 112.538 287.436 113.134 287.413C113.73 287.39 114.313 287.227 114.835 286.938L124.253 281.475C125.268 280.889 125.357 279.993 124.473 279.485L113.83 273.391C113.286 273.141 112.691 273.022 112.092 273.045C111.494 273.068 110.909 273.232 110.386 273.524L100.968 278.987C99.9633 279.573 99.8639 280.469 100.747 280.978Z" fill="#AAC1EF"/>
    <path d="M246.428 383.094L254.996 388.004C255.492 388.23 256.033 388.336 256.578 388.315C257.122 388.294 257.654 388.146 258.131 387.882L267.88 382.22C268.796 381.689 268.885 380.882 268.079 380.418L259.511 375.508C259.015 375.282 258.473 375.176 257.929 375.197C257.385 375.218 256.853 375.366 256.376 375.629L246.638 381.291C245.721 381.822 245.622 382.64 246.428 383.094Z" fill="#AAC1EF"/>
    <path d="M232.23 374.955L240.797 379.876C241.295 380.096 241.837 380.199 242.38 380.176C242.924 380.153 243.455 380.005 243.933 379.743L253.671 374.081C254.598 373.55 254.686 372.743 253.869 372.278L245.313 367.368C244.817 367.142 244.274 367.036 243.729 367.059C243.184 367.082 242.653 367.233 242.177 367.501L232.428 373.152C231.512 373.683 231.424 374.49 232.23 374.955Z" fill="#AAC1EF"/>
    <path d="M218.021 366.815L226.599 371.725C227.093 371.951 227.633 372.057 228.176 372.036C228.719 372.015 229.249 371.867 229.724 371.604L239.473 365.942C240.389 365.411 240.477 364.604 239.671 364.139L231.104 359.229C230.608 359.003 230.065 358.897 229.52 358.92C228.975 358.943 228.444 359.094 227.968 359.362L218.231 365.013C217.314 365.544 217.215 366.351 218.021 366.815Z" fill="#AAC1EF"/>
    <path d="M203.822 358.676L212.39 363.586C212.886 363.812 213.428 363.918 213.972 363.897C214.516 363.876 215.048 363.728 215.525 363.465L225.263 357.803C226.19 357.272 226.279 356.464 225.473 356L216.905 351.09C216.409 350.864 215.868 350.758 215.323 350.779C214.779 350.8 214.247 350.948 213.77 351.211L204.021 356.874C203.149 357.404 203.016 358.212 203.822 358.676Z" fill="#AAC1EF"/>
    <path d="M189.624 350.57L198.181 355.48C198.676 355.709 199.219 355.817 199.764 355.794C200.31 355.771 200.842 355.618 201.316 355.347L211.065 349.696C211.981 349.166 212.07 348.358 211.264 347.894L202.696 342.984C202.202 342.757 201.661 342.651 201.118 342.675C200.575 342.698 200.045 342.849 199.572 343.117L189.823 348.768C188.896 349.265 188.796 350.084 189.624 350.57Z" fill="#AAC1EF"/>
    <path d="M175.415 342.398L183.983 347.308C184.479 347.533 185.02 347.64 185.565 347.619C186.109 347.598 186.641 347.449 187.118 347.186L196.856 341.535C197.783 340.993 197.872 340.186 197.066 339.721L188.498 334.811C188.002 334.586 187.46 334.479 186.916 334.5C186.372 334.522 185.84 334.67 185.363 334.933L175.625 340.617C174.698 341.126 174.609 341.933 175.415 342.398Z" fill="#AAC1EF"/>
    <path d="M161.195 334.258L169.752 339.169C170.248 339.394 170.789 339.501 171.334 339.479C171.878 339.458 172.41 339.31 172.887 339.047L182.636 333.385C183.563 332.854 183.641 332.047 182.846 331.582L174.267 326.672C173.773 326.446 173.232 326.34 172.689 326.363C172.146 326.386 171.616 326.537 171.143 326.805L161.394 332.456C160.489 332.987 160.4 333.794 161.195 334.258Z" fill="#AAC1EF"/>
    <path d="M147.008 326.119L155.575 331.029C156.071 331.255 156.613 331.361 157.158 331.34C157.702 331.319 158.234 331.171 158.711 330.908L168.449 325.246C169.376 324.715 169.465 323.908 168.659 323.443L160.091 318.5C159.595 318.274 159.053 318.168 158.509 318.189C157.965 318.21 157.433 318.358 156.956 318.621L147.218 324.284C146.29 324.848 146.202 325.655 147.008 326.119Z" fill="#AAC1EF"/>
    <path d="M132.809 317.98L141.377 322.89C141.871 323.116 142.411 323.222 142.954 323.201C143.496 323.18 144.026 323.032 144.501 322.768L154.25 317.106C155.178 316.576 155.266 315.768 154.449 315.304L145.881 310.394C145.385 310.168 144.844 310.062 144.299 310.083C143.755 310.104 143.223 310.252 142.746 310.515L133.008 316.177C132.092 316.708 131.992 317.516 132.809 317.98Z" fill="#AAC1EF"/>
    <path d="M103.497 322.182L118.601 330.841C119.268 331.144 119.997 331.286 120.729 331.258C121.461 331.229 122.176 331.03 122.818 330.675L133.461 324.494C134.698 323.775 134.819 322.691 133.726 322.061L118.623 313.402C117.954 313.101 117.225 312.96 116.493 312.991C115.761 313.022 115.046 313.223 114.405 313.579L103.784 319.749C102.525 320.468 102.404 321.563 103.497 322.182Z" fill="#AAC1EF"/>
    <path d="M66.6542 301.082L79.3399 308.348C79.978 308.637 80.6747 308.772 81.3744 308.743C82.0741 308.715 82.7573 308.522 83.3697 308.182L94.2116 301.912C95.4039 301.215 95.5143 300.176 94.4765 299.578L81.7909 292.313C81.1536 292.022 80.4573 291.885 79.7577 291.912C79.058 291.939 78.3743 292.129 77.7611 292.468L66.9192 298.76C65.7379 299.435 65.6164 300.485 66.6542 301.082Z" fill="#AAC1EF"/>
    <path d="M86.1182 312.218L97.1587 318.5C97.7576 318.774 98.4127 318.903 99.0707 318.876C99.7287 318.85 100.371 318.667 100.946 318.345L112.041 311.909C113.146 311.256 113.267 310.283 112.284 309.697L101.244 303.393C100.642 303.121 99.9858 302.994 99.3265 303.021C98.6671 303.048 98.0232 303.228 97.4458 303.548L86.4052 309.985C85.2349 310.681 85.1245 311.665 86.1182 312.218Z" fill="#AAC1EF"/>
    <path d="M118.611 309.841L127.168 314.751C127.664 314.976 128.205 315.083 128.75 315.062C129.294 315.041 129.826 314.893 130.303 314.629L140.041 308.967C140.968 308.436 141.057 307.629 140.251 307.165L131.683 302.255C131.187 302.029 130.645 301.923 130.101 301.944C129.557 301.965 129.025 302.113 128.548 302.376L118.799 308.038C117.882 308.547 117.794 309.376 118.611 309.841Z" fill="#AAC1EF"/>
    <path d="M84.529 290.322L112.881 306.567C113.406 306.806 113.979 306.917 114.555 306.892C115.13 306.867 115.691 306.707 116.193 306.424L125.755 300.894C126.715 300.33 126.859 299.479 125.964 298.981L97.6121 282.725C97.0878 282.487 96.5154 282.376 95.9404 282.399C95.3654 282.422 94.8037 282.579 94.3 282.857L84.7498 288.387C83.7672 288.973 83.6789 289.824 84.529 290.322Z" fill="#AAC1EF"/>
    <path d="M101.223 355.148L174.356 396.851L195.918 384.277L122.785 342.575L101.223 355.148Z" fill="#AAC1EF"/>
    <path d="M313.765 85.6029L270.496 60.577C269.746 60.1317 269.112 59.5148 268.645 58.7766C268.179 58.0385 267.894 57.2002 267.813 56.3304V25.6756C267.813 24.1827 269.017 23.674 270.496 24.5697L313.765 49.5514C314.511 50.0014 315.142 50.6196 315.608 51.3568C316.073 52.094 316.361 52.9299 316.447 53.798V84.4638C316.447 85.9457 315.244 86.4544 313.765 85.6029Z" fill="#FF7337"/>
    <path d="M286.097 48.3239L279.671 47.3507L286.097 53.7758L285.258 55.2356L277.529 47.3286V44.9399L285.258 45.9242L286.097 48.3239Z" fill="white"/>
    <path d="M295.569 47.4392L290.91 62.6892L288.702 60.8866L293.394 45.6588L295.569 47.4392Z" fill="white"/>
    <path d="M306.732 61.8155V64.1489L299.003 63.1426L298.164 60.7097L304.579 61.716L298.175 55.302L299.014 53.8865L306.732 61.8155Z" fill="white"/>
    <path d="M414.355 246.485L407.93 245.512L414.355 251.937L413.516 253.397L405.788 245.49V243.112L413.516 244.097L414.355 246.485Z" fill="#FF7337"/>
    <path d="M423.828 245.612L419.169 260.862L416.961 259.048L421.653 243.831L423.828 245.612Z" fill="#FF7337"/>
    <path d="M435.001 259.977V262.366L427.273 261.359L426.434 258.926L432.837 259.922L426.434 253.474L427.273 252.048L435.001 259.977Z" fill="#FF7337"/>
    <g opacity="0.5">
        <path d="M171.716 33.0407L165.257 32.0786L171.716 38.5369L170.877 40.0078L163.148 32.0565V29.6457L170.877 30.641L171.716 33.0407Z" fill="#606BF1"/>
        <path d="M181.244 32.1561L176.552 47.4835L174.344 45.6698L179.047 30.3756L181.244 32.1561Z" fill="#606BF1"/>
        <path d="M192.451 46.6098V48.9985L184.722 47.9922L183.872 45.5482L190.309 46.5435L183.872 40.063L184.722 38.6364L192.451 46.6098Z" fill="#606BF1"/>
    </g>
    <path d="M429.293 168.234L392.031 146.68C390.801 145.945 389.76 144.931 388.993 143.718C388.226 142.506 387.754 141.131 387.615 139.702V108.085C387.615 105.641 389.592 104.768 392.031 106.216L429.293 127.759C431.733 129.174 433.71 132.293 433.71 134.737V166.365C433.71 168.809 431.689 169.649 429.293 168.234Z" fill="#606BF1"/>
    <path d="M406.54 124.596C404.917 123.656 404.331 123.778 404.331 124.994V130.424C404.331 132.536 403.448 132.636 401.98 132.238C402.712 132.733 403.31 133.402 403.72 134.186C404.13 134.969 404.34 135.843 404.331 136.727V142.146C404.331 143.363 404.894 144.126 406.54 145.055V147.432C402.432 145.066 401.273 143.075 401.273 140.333V135.19C401.342 134.566 401.212 133.937 400.903 133.391C400.594 132.845 400.121 132.41 399.551 132.149V129.395C400.887 130.17 401.273 129.805 401.273 128.29V123.158C401.273 120.394 402.432 119.774 406.54 122.141V124.596Z" fill="#F1F2F2"/>
    <path d="M420.053 134.095V139.227C419.982 139.861 420.114 140.501 420.429 141.055C420.745 141.61 421.227 142.05 421.808 142.312V145.021C420.439 144.236 420.053 144.579 420.053 146.05V151.192C420.053 153.935 418.948 154.576 414.786 152.21V149.832C416.387 150.75 416.994 150.639 416.994 149.434V144.004C416.994 141.914 417.866 141.792 419.335 142.235C418.604 141.729 418.008 141.051 417.6 140.26C417.191 139.47 416.984 138.591 416.994 137.701V132.271C416.994 131.065 416.453 130.313 414.786 129.373V126.996C418.893 129.395 420.053 131.331 420.053 134.095Z" fill="#F1F2F2"/>
    <g opacity="0.75">
        <path d="M131.009 234.066V288.144C131.009 289.825 129.64 290.355 127.962 289.426L59.919 250.079C59.0737 249.573 58.3588 248.875 57.8315 248.041C57.3042 247.208 56.9793 246.262 56.8828 245.28V191.192C56.8828 189.511 58.2408 188.98 59.919 189.909L127.962 229.267C128.81 229.772 129.528 230.469 130.057 231.303C130.586 232.136 130.913 233.083 131.009 234.066Z" fill="#DAE9FF"/>
        <path d="M131.009 234.066V236.831L56.8828 193.956V191.192C56.8828 189.511 58.2408 188.98 59.919 189.909L127.962 229.267C128.81 229.772 129.528 230.469 130.057 231.303C130.586 232.137 130.913 233.083 131.009 234.066Z" fill="#1543BA"/>
        <path d="M118.831 226.823C118.831 227.42 118.345 227.619 117.727 227.276C117.422 227.102 117.163 226.858 116.971 226.564C116.779 226.27 116.66 225.934 116.623 225.584C116.623 224.987 117.098 224.777 117.727 225.12C118.034 225.295 118.294 225.541 118.486 225.837C118.678 226.133 118.796 226.471 118.831 226.823Z" fill="#606BF1"/>
        <path d="M123.314 229.422C123.314 230.019 122.839 230.218 122.21 229.875C121.903 229.7 121.643 229.454 121.451 229.158C121.259 228.862 121.14 228.524 121.105 228.172C121.105 227.586 121.58 227.376 122.21 227.719C122.516 227.894 122.776 228.14 122.968 228.436C123.16 228.732 123.279 229.07 123.314 229.422Z" fill="#FBD15B"/>
        <path d="M127.487 231.943C127.487 232.54 127.002 232.739 126.383 232.397C126.078 232.223 125.819 231.979 125.627 231.684C125.435 231.39 125.316 231.054 125.279 230.705C125.279 230.107 125.765 229.897 126.383 230.24C126.686 230.419 126.944 230.666 127.135 230.962C127.327 231.257 127.447 231.593 127.487 231.943Z" fill="#FF8578"/>
        <path d="M63.7496 201.985C63.5916 201.891 63.4581 201.761 63.3602 201.605C63.2623 201.449 63.2028 201.273 63.1865 201.089C63.1865 200.78 63.4405 200.68 63.7496 200.857C63.9113 200.945 64.0485 201.072 64.1488 201.226C64.2491 201.381 64.3092 201.558 64.3237 201.742C64.3237 202.062 64.0367 202.162 63.7496 201.985Z" fill="#AAC1EF"/>
        <path d="M63.7496 242.36C63.593 242.268 63.4604 242.139 63.3626 241.985C63.2648 241.832 63.2045 241.657 63.1865 241.476V240.304C63.1865 239.983 63.4405 239.883 63.7496 240.06C63.9128 240.149 64.051 240.278 64.1513 240.434C64.2517 240.591 64.311 240.77 64.3237 240.956V242.128C64.3237 242.438 64.0367 242.548 63.7496 242.36ZM63.7496 236.599C63.5928 236.504 63.4602 236.373 63.3625 236.218C63.2648 236.062 63.2045 235.886 63.1865 235.703V234.531C63.1865 234.221 63.4405 234.111 63.7496 234.288C63.9085 234.382 64.0432 234.512 64.1429 234.667C64.2426 234.823 64.3045 234.999 64.3237 235.183V236.356C64.3237 236.665 64.0367 236.776 63.7496 236.599ZM63.7496 230.826C63.593 230.733 63.4604 230.605 63.3626 230.451C63.2648 230.297 63.2045 230.123 63.1865 229.941V228.758C63.1865 228.449 63.4405 228.338 63.7496 228.526C63.9113 228.614 64.0485 228.741 64.1488 228.895C64.2491 229.05 64.3092 229.227 64.3237 229.411V230.594C64.3237 230.904 64.0367 231.014 63.7496 230.826ZM63.7496 225.065C63.5939 224.968 63.4622 224.837 63.3646 224.682C63.2671 224.527 63.2061 224.351 63.1865 224.169V222.997C63.1865 222.676 63.4405 222.576 63.7496 222.753C63.9128 222.842 64.051 222.971 64.1513 223.127C64.2517 223.284 64.311 223.463 64.3237 223.649V224.821C64.3237 225.131 64.0367 225.242 63.7496 225.065ZM63.7496 219.292C63.5916 219.198 63.4581 219.068 63.3602 218.912C63.2623 218.756 63.2028 218.579 63.1865 218.396V217.224C63.1865 216.914 63.4405 216.804 63.7496 216.981C63.9085 217.075 64.0432 217.205 64.1429 217.36C64.2426 217.516 64.3045 217.693 64.3237 217.876V219.049C64.3237 219.369 64.0367 219.469 63.7496 219.292ZM63.7496 213.519C63.593 213.426 63.4604 213.298 63.3626 213.144C63.2648 212.991 63.2045 212.816 63.1865 212.635V211.451C63.1865 211.142 63.4405 211.031 63.7496 211.219C63.9113 211.307 64.0485 211.434 64.1488 211.588C64.2491 211.743 64.3092 211.92 64.3237 212.104V213.287C64.3237 213.597 64.0367 213.707 63.7496 213.519ZM63.7496 207.758C63.5939 207.661 63.4622 207.53 63.3646 207.375C63.2671 207.22 63.2061 207.044 63.1865 206.862V205.701C63.1865 205.38 63.4405 205.28 63.7496 205.457C63.9091 205.551 64.0442 205.681 64.144 205.836C64.2438 205.992 64.3054 206.169 64.3237 206.353V207.525C64.3237 207.824 64.0367 207.912 63.7496 207.758Z" fill="#67A0F3"/>
        <path d="M63.7496 246.961C63.5928 246.866 63.4602 246.735 63.3625 246.58C63.2648 246.424 63.2045 246.248 63.1865 246.065C63.1865 245.755 63.4405 245.645 63.7496 245.833C63.9113 245.921 64.0485 246.048 64.1488 246.202C64.2491 246.357 64.3092 246.534 64.3237 246.718C64.3237 247.027 64.0367 247.138 63.7496 246.961Z" fill="#AAC1EF"/>
        <path d="M80.1234 212.048L70.5071 206.519C70.3818 206.448 70.276 206.348 70.1989 206.226C70.1219 206.105 70.076 205.966 70.0654 205.822C70.0654 205.579 70.2531 205.502 70.5071 205.634L80.1234 211.164C80.2457 211.238 80.3491 211.339 80.4257 211.46C80.5023 211.581 80.55 211.718 80.5651 211.86C80.5982 212.104 80.3663 212.192 80.1234 212.048Z" fill="#FF8578"/>
        <path d="M92.4447 219.181L82.8283 213.652C82.7061 213.578 82.6027 213.476 82.526 213.355C82.4494 213.235 82.4018 213.098 82.3867 212.955C82.3867 212.712 82.5854 212.624 82.8283 212.767L92.4447 218.297C92.5681 218.369 92.6724 218.471 92.7492 218.592C92.826 218.713 92.8729 218.85 92.8863 218.993C92.8863 219.237 92.7428 219.314 92.4447 219.181Z" fill="#FBD15B"/>
        <path d="M100.129 228.382L92.7424 224.102C92.6202 224.028 92.5167 223.927 92.4401 223.806C92.3635 223.685 92.3158 223.548 92.3008 223.406C92.3008 223.162 92.4995 223.074 92.7424 223.218L100.151 227.498C100.273 227.572 100.376 227.673 100.453 227.794C100.53 227.915 100.577 228.052 100.592 228.194C100.57 228.437 100.371 228.526 100.129 228.382Z" fill="#FF8578"/>
        <path d="M89.1544 222.034L73.6975 213.132C73.5753 213.058 73.4718 212.957 73.3952 212.836C73.3186 212.715 73.2709 212.578 73.2559 212.436C73.2559 212.192 73.4546 212.104 73.6975 212.248L89.1544 221.161C89.279 221.232 89.3843 221.333 89.4613 221.454C89.5382 221.576 89.5845 221.714 89.596 221.858C89.596 222.101 89.4304 222.178 89.1544 222.034Z" fill="#606BF1"/>
        <path d="M85.6658 224.777L79.3948 221.183C79.2725 221.109 79.1691 221.007 79.0925 220.886C79.0158 220.766 78.9682 220.629 78.9531 220.486C78.9531 220.232 79.1519 220.154 79.3948 220.298L85.6658 223.914C85.788 223.989 85.8915 224.09 85.9681 224.211C86.0447 224.332 86.0924 224.469 86.1074 224.611C86.1185 224.832 85.9087 224.921 85.6658 224.777Z" fill="#FBD15B"/>
        <path d="M113.521 240.89L90.6779 227.685C90.5557 227.611 90.4523 227.51 90.3757 227.389C90.2991 227.268 90.2514 227.131 90.2363 226.989C90.2363 226.734 90.4351 226.657 90.6779 226.801L113.521 239.983C113.643 240.057 113.747 240.158 113.823 240.279C113.9 240.4 113.948 240.537 113.963 240.68C113.963 240.945 113.72 241.089 113.521 240.89Z" fill="#FBD15B"/>
        <path d="M111.181 244.296L84.9485 229.134C84.8248 229.059 84.7205 228.956 84.6438 228.833C84.5671 228.71 84.5202 228.571 84.5068 228.426C84.5068 228.183 84.7056 228.106 84.9485 228.249L111.181 243.411C111.303 243.485 111.407 243.587 111.483 243.708C111.56 243.828 111.608 243.965 111.623 244.108C111.623 244.406 111.424 244.406 111.181 244.296Z" fill="#606BF1"/>
        <path d="M85.6215 234.277L78.1692 230.03C78.0469 229.956 77.9435 229.854 77.8669 229.733C77.7903 229.613 77.7426 229.476 77.7275 229.333C77.7275 229.09 77.9263 229.002 78.1692 229.145L85.6215 233.348C85.7438 233.422 85.8472 233.523 85.9238 233.644C86.0004 233.765 86.0481 233.902 86.0632 234.044C86.1184 234.332 85.8644 234.453 85.6215 234.277Z" fill="#FF8578"/>
        <path d="M97.5346 241.166L90.0822 236.864C89.96 236.79 89.8566 236.689 89.78 236.568C89.7033 236.447 89.6557 236.31 89.6406 236.168C89.6406 235.913 89.8393 235.836 90.0822 235.98L97.5346 240.281C97.6569 240.356 97.7603 240.457 97.8369 240.578C97.9135 240.699 97.9612 240.836 97.9763 240.978C97.9763 241.221 97.7775 241.31 97.5346 241.166Z" fill="#606BF1"/>
        <path d="M83.0011 237.967L71.4416 231.332C71.3194 231.257 71.2159 231.156 71.1393 231.035C71.0627 230.914 71.015 230.777 71 230.635C71 230.392 71.1987 230.303 71.4416 230.447L83.0011 237.082C83.1234 237.156 83.2268 237.258 83.3034 237.379C83.38 237.5 83.4277 237.637 83.4427 237.779C83.4427 238.022 83.233 238.111 83.0011 237.967Z" fill="#606BF1"/>
        <path d="M99.6757 248.067L88.1272 241.376C88.0013 241.306 87.8949 241.206 87.8178 241.084C87.7406 240.963 87.6952 240.823 87.6855 240.68C87.6855 240.436 87.8732 240.359 88.1272 240.503L99.6757 247.138C99.7991 247.211 99.9034 247.312 99.9802 247.433C100.057 247.554 100.104 247.692 100.117 247.835C100.117 248.122 99.9186 248.199 99.6757 248.067Z" fill="#FBD15B"/>
        <path d="M85.853 244.827L77.8596 240.204C77.7362 240.131 77.6318 240.03 77.5551 239.909C77.4783 239.788 77.4313 239.65 77.418 239.507C77.418 239.264 77.6167 239.187 77.8596 239.319L85.853 243.942C85.9752 244.016 86.0787 244.118 86.1553 244.238C86.2319 244.359 86.2796 244.496 86.2946 244.639C86.2946 244.882 86.118 244.97 85.853 244.827Z" fill="#FBD15B"/>
        <path d="M99.367 252.667L91.3957 248.056C91.2723 247.983 91.168 247.882 91.0912 247.761C91.0144 247.639 90.9674 247.502 90.9541 247.359C90.9541 247.116 91.1528 247.038 91.3957 247.171L99.367 251.782C99.4883 251.857 99.5905 251.958 99.6653 252.079C99.7401 252.2 99.7854 252.337 99.7976 252.479C99.8418 252.722 99.6541 252.811 99.367 252.667Z" fill="#606BF1"/>
        <path d="M113.952 261.083L105.991 256.471C105.869 256.397 105.766 256.296 105.689 256.175C105.613 256.054 105.565 255.917 105.55 255.775C105.55 255.531 105.749 255.443 105.991 255.587L113.963 260.198C114.086 260.271 114.191 260.372 114.267 260.493C114.344 260.614 114.391 260.752 114.404 260.895C114.393 261.138 114.195 261.216 113.952 261.083Z" fill="#FF8578"/>
        <path d="M102.061 258.96L79.3948 245.855C79.2714 245.782 79.167 245.681 79.0902 245.56C79.0135 245.439 78.9665 245.301 78.9531 245.158C78.9531 244.915 79.1519 244.838 79.3948 244.97L102.061 258.075C102.183 258.149 102.287 258.251 102.363 258.371C102.44 258.492 102.488 258.629 102.503 258.772C102.503 259.015 102.304 259.103 102.061 258.96Z" fill="#FF8578"/>
        <path d="M110.65 263.925L104.987 260.607C104.862 260.536 104.757 260.435 104.68 260.314C104.603 260.192 104.556 260.054 104.545 259.911C104.545 259.667 104.744 259.59 104.987 259.734L110.65 263.051C110.774 263.124 110.878 263.225 110.955 263.346C111.032 263.468 111.079 263.605 111.092 263.748C111.092 263.991 110.893 264.069 110.65 263.925Z" fill="#FBD15B"/>
        <path d="M96.5851 260.563L73.7531 247.293C73.6286 247.221 73.5232 247.12 73.4463 246.999C73.3693 246.878 73.3231 246.739 73.3115 246.596C73.3115 246.353 73.5103 246.275 73.7531 246.419L96.5851 259.623C96.7073 259.697 96.8108 259.799 96.8874 259.92C96.964 260.04 97.0117 260.177 97.0267 260.32C97.0267 260.618 96.828 260.707 96.5851 260.563Z" fill="#606BF1"/>
        <path d="M123.998 276.41L101.166 263.206C101.043 263.133 100.938 263.032 100.862 262.911C100.785 262.79 100.738 262.652 100.725 262.509C100.725 262.266 100.923 262.189 101.166 262.321L123.998 275.526C124.12 275.6 124.224 275.701 124.3 275.822C124.377 275.943 124.425 276.08 124.44 276.222C124.44 276.477 124.241 276.554 123.998 276.41Z" fill="#FF8578"/>
        <path d="M81.7685 256.748L70.496 250.234C70.3761 250.161 70.2748 250.061 70.2 249.942C70.1253 249.823 70.0792 249.689 70.0654 249.549C70.0654 249.305 70.2531 249.217 70.496 249.361L81.7685 255.885C81.8917 255.956 81.9961 256.055 82.073 256.174C82.1498 256.293 82.1969 256.43 82.2101 256.571C82.2101 256.814 82.0114 256.892 81.7685 256.748Z" fill="#FF8578"/>
        <path d="M98.1412 266.225L86.8798 259.712C86.7615 259.637 86.6615 259.536 86.587 259.418C86.5125 259.299 86.4654 259.165 86.4492 259.026C86.4492 258.783 86.6479 258.694 86.8798 258.838L98.1412 265.352C98.2629 265.423 98.3656 265.522 98.4406 265.641C98.5156 265.761 98.5606 265.897 98.5718 266.037C98.5718 266.28 98.3841 266.358 98.1412 266.225Z" fill="#FBD15B"/>
        <path d="M114.095 275.448L102.845 268.935C102.722 268.864 102.617 268.765 102.541 268.646C102.464 268.526 102.417 268.39 102.403 268.249C102.403 268.006 102.602 267.928 102.845 268.061L114.095 274.575C114.217 274.646 114.321 274.746 114.397 274.865C114.474 274.984 114.522 275.119 114.537 275.26C114.537 275.503 114.338 275.592 114.095 275.448Z" fill="#FF8578"/>
    </g>
    <g opacity="0.5">
        <path d="M181.675 102.766V137.69C181.675 138.939 180.659 139.37 179.412 138.652L128.735 109.346C128.116 108.961 127.594 108.436 127.211 107.815C126.827 107.193 126.594 106.491 126.527 105.763V70.8395C126.527 69.5898 127.543 69.1585 128.735 69.8774L179.412 99.183C180.042 99.5622 180.575 100.084 180.968 100.706C181.361 101.328 181.603 102.033 181.675 102.766Z" fill="#DAE9FF"/>
        <path d="M181.675 102.766V104.823L126.472 72.8964V70.8395C126.472 69.5898 127.487 69.1585 128.68 69.8774L179.356 99.183C179.996 99.5559 180.54 100.075 180.943 100.697C181.346 101.32 181.596 102.028 181.675 102.766Z" fill="#1543BA"/>
        <path d="M172.61 97.3251C172.61 97.7675 172.246 97.9223 171.804 97.668C171.581 97.5321 171.393 97.3467 171.253 97.1262C171.113 96.9057 171.026 96.6559 170.998 96.3962C170.998 95.9538 171.362 95.799 171.804 96.0644C172.028 96.1966 172.217 96.3795 172.357 96.5985C172.497 96.8175 172.584 97.0664 172.61 97.3251Z" fill="#606BF1"/>
        <path d="M175.945 99.3046C175.945 99.747 175.591 99.9018 175.15 99.6364C174.926 99.5042 174.737 99.3213 174.597 99.1023C174.457 98.8833 174.37 98.6344 174.344 98.3757C174.344 97.9334 174.708 97.7785 175.15 98.0329C175.372 98.1681 175.56 98.3535 175.698 98.5743C175.836 98.7951 175.92 99.0452 175.945 99.3046Z" fill="#FBD15B"/>
        <path d="M179.058 101.185C179.058 101.627 178.694 101.782 178.252 101.516C178.03 101.384 177.842 101.2 177.704 100.981C177.566 100.762 177.481 100.514 177.457 100.256C177.457 99.8133 177.81 99.6585 178.252 99.9128C178.475 100.049 178.663 100.234 178.803 100.455C178.943 100.675 179.03 100.925 179.058 101.185Z" fill="#FF8578"/>
        <path d="M131.594 78.8681C131.478 78.798 131.379 78.7014 131.306 78.5862C131.233 78.471 131.188 78.3403 131.175 78.2046C131.175 77.9723 131.363 77.8949 131.594 78.0276C131.711 78.0978 131.81 78.1943 131.883 78.3095C131.956 78.4247 132.001 78.5554 132.014 78.6911C132.014 78.9234 131.826 79.0008 131.594 78.8681Z" fill="#67A0F3"/>
        <path d="M131.594 104.646C131.478 104.576 131.379 104.479 131.306 104.364C131.233 104.249 131.188 104.118 131.175 103.982V103.109C131.175 102.877 131.363 102.799 131.594 102.932C131.711 103.002 131.81 103.099 131.883 103.214C131.956 103.329 132.001 103.46 132.014 103.595V104.469C132.014 104.701 131.826 104.779 131.594 104.646Z" fill="#67A0F3"/>
        <path d="M131.594 100.355C131.478 100.285 131.379 100.189 131.306 100.073C131.233 99.9581 131.188 99.8274 131.175 99.6917V98.807C131.175 98.5748 131.363 98.4974 131.594 98.6301C131.711 98.7002 131.81 98.7967 131.883 98.9119C131.956 99.0272 132.001 99.1579 132.014 99.2936V100.178C132.014 100.41 131.826 100.488 131.594 100.355Z" fill="#67A0F3"/>
        <path d="M131.594 96.0533C131.478 95.9832 131.379 95.8867 131.306 95.7715C131.233 95.6563 131.188 95.5256 131.175 95.3898V94.5162C131.175 94.284 131.363 94.2066 131.594 94.3393C131.711 94.4094 131.81 94.5059 131.883 94.6211C131.956 94.7364 132.001 94.8671 132.014 95.0028V95.8764C132.014 96.1086 131.826 96.2192 131.594 96.0533Z" fill="#67A0F3"/>
        <path d="M131.594 91.7958C131.478 91.7256 131.379 91.6291 131.306 91.5139C131.233 91.3987 131.188 91.268 131.175 91.1322V90.2475C131.175 90.0153 131.363 89.9379 131.594 90.0706C131.711 90.1407 131.81 90.2372 131.883 90.3525C131.956 90.4677 132.001 90.5984 132.014 90.7341V91.6188C132.014 91.7957 131.826 91.8953 131.594 91.7958Z" fill="#67A0F3"/>
        <path d="M131.594 87.4607C131.478 87.3906 131.379 87.2941 131.306 87.1789C131.233 87.0636 131.188 86.9329 131.175 86.7972V85.9236C131.175 85.6913 131.363 85.6139 131.594 85.7466C131.711 85.8168 131.81 85.9133 131.883 86.0285C131.956 86.1437 132.001 86.2744 132.014 86.4102V87.2838C132.014 87.516 131.826 87.5934 131.594 87.4607Z" fill="#67A0F3"/>
        <path d="M131.594 83.1699C131.478 83.0998 131.379 83.0033 131.306 82.8881C131.233 82.7728 131.188 82.6421 131.175 82.5064V81.6328C131.175 81.3895 131.363 81.3121 131.594 81.4448C131.712 81.5167 131.811 81.6151 131.884 81.7322C131.957 81.8494 132.001 81.9819 132.014 82.1194V82.9488C132.014 83.2252 131.826 83.3026 131.594 83.1699Z" fill="#67A0F3"/>
        <path d="M131.594 108.063C131.478 107.993 131.379 107.896 131.306 107.781C131.233 107.666 131.188 107.535 131.175 107.4C131.175 107.167 131.363 107.09 131.594 107.223C131.711 107.293 131.81 107.389 131.883 107.505C131.956 107.62 132.001 107.75 132.014 107.886C132.014 108.118 131.826 108.207 131.594 108.063Z" fill="#67A0F3"/>
        <path d="M137.48 82.7276L143 85.9125C143.177 86.0231 143.32 85.9125 143.32 85.7798C143.312 85.6738 143.279 85.5713 143.223 85.4808C143.168 85.3904 143.091 85.3146 143 85.26L137.48 82.0641C137.303 81.9646 137.148 82.0641 137.148 82.2078C137.162 82.3137 137.198 82.4152 137.256 82.5051C137.313 82.595 137.389 82.671 137.48 82.7276Z" fill="#FF8578"/>
        <path d="M145.65 87.4497L157.121 94.0849C157.308 94.1955 157.452 94.0849 157.452 93.9522C157.444 93.8449 157.409 93.7413 157.352 93.6506C157.294 93.56 157.214 93.485 157.121 93.4324L145.65 86.7972C145.473 86.6977 145.318 86.7972 145.318 86.941C145.331 87.0455 145.367 87.1458 145.425 87.2341C145.482 87.3223 145.559 87.396 145.65 87.4497Z" fill="#606BF1"/>
        <path d="M161.901 100.388L166.56 103.087C166.747 103.197 166.891 103.087 166.891 102.954C166.883 102.847 166.848 102.743 166.79 102.652C166.733 102.562 166.653 102.487 166.56 102.434L161.901 99.7359C161.713 99.6253 161.569 99.7359 161.569 99.8686C161.577 99.9759 161.612 100.079 161.67 100.17C161.728 100.261 161.807 100.336 161.901 100.388Z" fill="#FBD15B"/>
        <path d="M141.155 88.3896L158.158 98.2319C158.346 98.3315 158.489 98.2319 158.489 98.0882C158.478 97.9817 158.443 97.8792 158.385 97.7889C158.328 97.6986 158.25 97.6231 158.158 97.5684L141.155 87.7372C140.968 87.6266 140.824 87.7372 140.824 87.8699C140.832 87.9771 140.867 88.0807 140.925 88.1714C140.982 88.2621 141.062 88.3371 141.155 88.3896Z" fill="#FBD15B"/>
        <path d="M137.645 89.9158L157.187 101.207C157.363 101.317 157.507 101.207 157.507 101.074C157.499 100.968 157.466 100.865 157.41 100.775C157.354 100.685 157.278 100.609 157.187 100.554L137.645 89.2523C137.468 89.1528 137.313 89.2523 137.313 89.396C137.327 89.5019 137.363 89.6034 137.421 89.6933C137.478 89.7832 137.554 89.8592 137.645 89.9158Z" fill="#606BF1"/>
        <path d="M152.66 102.147L158.181 105.354C158.368 105.453 158.512 105.354 158.512 105.21C158.501 105.103 158.465 105.001 158.408 104.911C158.35 104.82 158.273 104.745 158.181 104.69L152.66 101.483C152.484 101.384 152.329 101.483 152.329 101.627C152.342 101.733 152.379 101.834 152.436 101.924C152.494 102.014 152.57 102.09 152.66 102.147Z" fill="#FF8578"/>
        <path d="M143.794 97.0154L149.314 100.222C149.491 100.322 149.646 100.222 149.646 100.079C149.632 99.9729 149.596 99.8714 149.539 99.7815C149.481 99.6916 149.405 99.6155 149.314 99.559L143.794 96.3519C143.606 96.2524 143.463 96.3519 143.463 96.4957C143.474 96.6022 143.509 96.7047 143.567 96.795C143.624 96.8852 143.702 96.9607 143.794 97.0154Z" fill="#606BF1"/>
        <path d="M149.05 104.248L157.651 109.224C157.838 109.324 157.982 109.224 157.982 109.081C157.971 108.974 157.935 108.872 157.878 108.781C157.82 108.691 157.742 108.616 157.651 108.561L149.05 103.584C148.873 103.485 148.719 103.584 148.719 103.728C148.73 103.835 148.765 103.937 148.823 104.027C148.88 104.118 148.958 104.193 149.05 104.248Z" fill="#FBD15B"/>
        <path d="M136.275 96.8828L144.887 101.859C145.064 101.959 145.207 101.859 145.207 101.715C145.196 101.61 145.161 101.509 145.106 101.419C145.05 101.329 144.976 101.253 144.887 101.196L136.275 96.2192C136.099 96.1197 135.955 96.2192 135.955 96.363C135.966 96.4681 136.001 96.5693 136.056 96.6592C136.112 96.7492 136.187 96.8256 136.275 96.8828Z" fill="#606BF1"/>
        <path d="M146.687 106.449L163.568 116.202C163.744 116.313 163.888 116.202 163.888 116.07C163.88 115.964 163.847 115.861 163.791 115.771C163.735 115.68 163.659 115.605 163.568 115.55L146.687 105.785C146.51 105.685 146.355 105.785 146.355 105.929C146.369 106.035 146.405 106.136 146.463 106.226C146.52 106.316 146.596 106.392 146.687 106.449Z" fill="#FF8578"/>
        <path d="M140.294 102.744L144.501 105.188C144.688 105.287 144.832 105.188 144.832 105.044C144.821 104.938 144.785 104.835 144.728 104.745C144.67 104.655 144.593 104.579 144.501 104.524L140.294 102.091C140.106 101.981 139.963 102.091 139.963 102.224C139.971 102.331 140.006 102.435 140.063 102.526C140.121 102.616 140.2 102.691 140.294 102.744Z" fill="#FBD15B"/>
        <path d="M157.032 115.97L174.035 125.812C174.223 125.912 174.366 125.812 174.366 125.669C174.355 125.562 174.32 125.46 174.262 125.369C174.205 125.279 174.127 125.204 174.035 125.149L157.032 115.318C156.845 115.207 156.701 115.318 156.701 115.45C156.709 115.558 156.744 115.661 156.802 115.752C156.859 115.843 156.939 115.918 157.032 115.97Z" fill="#FBD15B"/>
        <path d="M136.618 104.17L153.621 114.002C153.798 114.101 153.952 114.002 153.952 113.858C153.939 113.752 153.902 113.651 153.845 113.561C153.788 113.471 153.711 113.395 153.621 113.338L136.618 103.507C136.431 103.407 136.287 103.507 136.287 103.651C136.298 103.757 136.334 103.86 136.391 103.95C136.449 104.04 136.526 104.116 136.618 104.17Z" fill="#606BF1"/>
        <path d="M160.974 121.798L169.365 126.653C169.541 126.752 169.685 126.653 169.685 126.509C169.675 126.404 169.641 126.302 169.586 126.212C169.53 126.121 169.454 126.045 169.365 125.989L160.974 121.135C160.786 121.035 160.643 121.135 160.643 121.278C160.653 121.385 160.688 121.488 160.745 121.578C160.803 121.669 160.881 121.744 160.974 121.798Z" fill="#FF8578"/>
        <path d="M148.773 114.743L157.164 119.597C157.341 119.697 157.484 119.597 157.484 119.454C157.473 119.35 157.438 119.25 157.383 119.162C157.327 119.074 157.253 119 157.164 118.945L148.773 114.101C148.597 113.991 148.453 114.101 148.453 114.234C148.463 114.338 148.497 114.438 148.552 114.527C148.608 114.615 148.684 114.689 148.773 114.743Z" fill="#FBD15B"/>
        <path d="M136.905 107.875L145.285 112.719C145.473 112.829 145.616 112.719 145.616 112.586C145.606 112.481 145.571 112.379 145.513 112.291C145.456 112.202 145.377 112.129 145.285 112.077L136.905 107.212C136.728 107.112 136.585 107.212 136.585 107.355C136.593 107.461 136.626 107.564 136.682 107.654C136.738 107.745 136.814 107.821 136.905 107.875Z" fill="#FF8578"/>
    </g>
    <g opacity="0.75">
        <path d="M409.233 369.105V409.79C409.233 411.791 407.621 412.477 405.623 411.327L324.596 364.471C323.589 363.867 322.736 363.036 322.108 362.043C321.479 361.05 321.091 359.924 320.975 358.754V318.057C320.975 316.056 322.598 315.37 324.596 316.531L405.623 363.387C406.63 363.99 407.481 364.822 408.108 365.815C408.735 366.808 409.121 367.935 409.233 369.105Z" fill="#DAE9FF"/>
        <path d="M409.233 369.104V372.422L320.975 321.386V318.068C320.975 316.067 322.598 315.381 324.596 316.542L405.623 363.398C406.628 364 407.479 364.83 408.106 365.821C408.733 366.812 409.119 367.937 409.233 369.104Z" fill="#1543BA"/>
        <path d="M394.737 360.523C394.737 361.231 394.163 361.474 393.456 361.065C393.1 360.851 392.799 360.557 392.576 360.205C392.354 359.854 392.217 359.455 392.176 359.041C392.176 358.333 392.75 358.09 393.456 358.499C393.813 358.713 394.114 359.007 394.337 359.359C394.559 359.71 394.696 360.109 394.737 360.523Z" fill="#606BF1"/>
        <path d="M400.081 363.575C400.081 364.283 399.507 364.526 398.8 364.117C398.444 363.903 398.142 363.609 397.92 363.258C397.698 362.906 397.56 362.507 397.52 362.093C397.52 361.386 398.094 361.142 398.8 361.551C399.157 361.765 399.458 362.06 399.681 362.411C399.903 362.762 400.04 363.161 400.081 363.575Z" fill="#FBD15B"/>
        <path d="M405.049 366.572C405.049 367.28 404.475 367.523 403.768 367.114C403.412 366.903 403.11 366.61 402.888 366.261C402.665 365.911 402.528 365.514 402.487 365.101C402.487 364.382 403.061 364.15 403.768 364.559C404.125 364.77 404.427 365.062 404.649 365.412C404.872 365.762 405.009 366.159 405.049 366.572Z" fill="#FF8578"/>
        <path d="M329.156 333.54C328.964 333.422 328.804 333.261 328.689 333.068C328.574 332.876 328.506 332.658 328.493 332.434C328.493 332.058 328.791 331.936 329.156 332.146C329.348 332.263 329.51 332.424 329.627 332.617C329.744 332.809 329.814 333.027 329.829 333.252C329.829 333.628 329.531 333.75 329.156 333.54Z" fill="#67A0F3"/>
        <path d="M329.156 354.142C328.964 354.025 328.804 353.863 328.689 353.671C328.574 353.478 328.506 353.26 328.493 353.036V351.676C328.493 351.3 328.791 351.167 329.156 351.388C329.35 351.503 329.513 351.664 329.631 351.857C329.748 352.05 329.816 352.269 329.829 352.494V353.888C329.829 354.231 329.531 354.363 329.156 354.142Z" fill="#67A0F3"/>
        <path d="M329.156 347.253C328.964 347.135 328.804 346.974 328.689 346.781C328.574 346.588 328.506 346.371 328.493 346.147V344.742C328.493 344.377 328.791 344.245 329.156 344.466C329.35 344.58 329.513 344.741 329.631 344.934C329.748 345.127 329.816 345.346 329.829 345.572V346.965C329.829 347.363 329.531 347.496 329.156 347.253Z" fill="#67A0F3"/>
        <path d="M329.156 340.407C328.964 340.29 328.804 340.128 328.689 339.936C328.574 339.743 328.506 339.525 328.493 339.301V337.897C328.493 337.532 328.791 337.399 329.156 337.62C329.35 337.735 329.513 337.896 329.631 338.089C329.748 338.282 329.816 338.501 329.829 338.726V340.12C329.829 340.496 329.531 340.617 329.156 340.407Z" fill="#67A0F3"/>
        <path d="M329.156 359.616C328.966 359.497 328.808 359.335 328.692 359.143C328.577 358.95 328.509 358.734 328.493 358.51C328.493 358.134 328.791 358.002 329.156 358.223C329.35 358.337 329.513 358.498 329.631 358.691C329.748 358.884 329.816 359.103 329.829 359.329C329.829 359.705 329.531 359.826 329.156 359.616Z" fill="#67A0F3"/>
        <path d="M351.568 347.253L337.844 339.257C337.698 339.169 337.574 339.049 337.482 338.905C337.39 338.761 337.333 338.597 337.314 338.428C337.314 338.14 337.557 338.041 337.844 338.206L351.568 346.147C351.712 346.236 351.834 346.357 351.924 346.501C352.014 346.645 352.07 346.807 352.087 346.976C352.087 347.253 351.855 347.374 351.568 347.253Z" fill="#606BF1"/>
        <path d="M371.927 358.986L358.181 351.035C358.035 350.947 357.911 350.826 357.819 350.682C357.727 350.538 357.67 350.375 357.651 350.205C357.651 349.918 357.883 349.818 358.181 349.984L371.927 357.935C372.073 358.023 372.197 358.144 372.289 358.288C372.381 358.432 372.438 358.595 372.457 358.765C372.457 359.052 372.225 359.152 371.927 358.986Z" fill="#FBD15B"/>
        <path d="M355.51 355.137L346.004 349.608C345.857 349.52 345.733 349.4 345.641 349.256C345.549 349.112 345.492 348.948 345.474 348.779C345.474 348.48 345.705 348.38 346.004 348.546L355.51 354.076C355.656 354.164 355.78 354.284 355.872 354.428C355.964 354.572 356.021 354.735 356.04 354.905C355.995 355.204 355.764 355.303 355.51 355.137Z" fill="#FBD15B"/>
        <path d="M371.607 364.471L362.123 358.942C361.976 358.854 361.852 358.733 361.76 358.589C361.669 358.445 361.611 358.282 361.593 358.112C361.593 357.825 361.825 357.725 362.123 357.891L371.607 363.42C371.753 363.508 371.877 363.629 371.969 363.773C372.061 363.917 372.118 364.08 372.136 364.25C372.136 364.537 371.905 364.637 371.607 364.471Z" fill="#606BF1"/>
        <path d="M388.93 374.49L379.435 368.961C379.291 368.872 379.169 368.751 379.079 368.607C378.989 368.463 378.933 368.3 378.916 368.131C378.916 367.844 379.148 367.744 379.435 367.91L388.93 373.44C389.074 373.529 389.196 373.65 389.286 373.794C389.376 373.938 389.432 374.1 389.449 374.269C389.449 374.557 389.217 374.656 388.93 374.49Z" fill="#FF8578"/>
        <path d="M374.764 371.969L347.781 356.365C347.636 356.276 347.515 356.155 347.425 356.011C347.335 355.867 347.279 355.704 347.262 355.535C347.262 355.248 347.494 355.148 347.781 355.314L374.764 370.918C374.91 371.006 375.034 371.127 375.126 371.271C375.218 371.414 375.276 371.578 375.294 371.748C375.294 372.035 375.062 372.135 374.764 371.969Z" fill="#FF8578"/>
        <path d="M384.999 377.885L378.253 373.982C378.109 373.892 377.987 373.771 377.897 373.627C377.807 373.484 377.752 373.321 377.734 373.152C377.734 372.865 377.966 372.765 378.253 372.931L384.999 376.835C385.143 376.924 385.265 377.045 385.355 377.189C385.445 377.333 385.501 377.495 385.518 377.664C385.518 377.952 385.319 378.051 384.999 377.885Z" fill="#FBD15B"/>
        <path d="M368.251 373.871L341.058 358.145C340.914 358.056 340.792 357.935 340.702 357.791C340.612 357.647 340.556 357.485 340.539 357.316C340.539 357.028 340.771 356.929 341.058 357.095L368.251 372.82C368.397 372.908 368.521 373.029 368.613 373.173C368.705 373.317 368.763 373.48 368.781 373.65C368.759 373.937 368.549 374.037 368.251 373.871Z" fill="#606BF1"/>
        <path d="M400.897 392.748L373.704 377.023C373.56 376.934 373.438 376.812 373.348 376.669C373.258 376.525 373.203 376.362 373.186 376.193C373.186 375.906 373.417 375.806 373.704 375.972L400.897 391.698C401.042 391.787 401.163 391.908 401.253 392.052C401.343 392.195 401.399 392.358 401.416 392.527C401.416 392.814 401.184 392.914 400.897 392.748Z" fill="#FF8578"/>
        <path d="M350.607 369.37L337.193 361.629C337.05 361.541 336.929 361.421 336.839 361.28C336.749 361.138 336.693 360.977 336.674 360.811C336.674 360.523 336.906 360.423 337.193 360.589L350.607 368.33C350.752 368.417 350.875 368.536 350.967 368.678C351.059 368.82 351.117 368.981 351.137 369.149C351.093 369.37 350.894 369.503 350.607 369.37Z" fill="#FF8578"/>
        <path d="M370.106 380.606L356.703 372.865C356.56 372.777 356.439 372.657 356.349 372.515C356.259 372.374 356.202 372.213 356.184 372.046C356.184 371.759 356.415 371.659 356.703 371.825L370.106 379.566C370.249 379.654 370.37 379.774 370.459 379.915C370.549 380.057 370.606 380.218 370.625 380.385C370.625 380.672 370.393 380.772 370.106 380.606Z" fill="#FBD15B"/>
        <path d="M389.106 391.598L375.703 383.857C375.56 383.769 375.439 383.65 375.349 383.508C375.259 383.366 375.202 383.206 375.184 383.039C375.184 382.751 375.415 382.652 375.703 382.817L389.106 390.559C389.249 390.647 389.37 390.766 389.459 390.908C389.549 391.05 389.606 391.21 389.625 391.377C389.625 391.664 389.393 391.764 389.106 391.598Z" fill="#FF8578"/>
    </g>
    <g opacity="0.5">
        <path opacity="0.25" d="M200.554 16.7733L179.069 4.13318C178.543 3.81145 178.099 3.37087 177.773 2.84665C177.447 2.32244 177.248 1.72913 177.192 1.11415C177.192 0.00827434 178.031 -0.30137 179.069 0.30686L200.554 12.947C201.079 13.2707 201.521 13.7118 201.847 14.2356C202.173 14.7594 202.373 15.3517 202.431 15.966C202.431 17.0166 201.581 17.3815 200.554 16.7733Z" fill="#FF8578"/>
        <path opacity="0.25" d="M202.497 139.647L179.069 125.857C178.543 125.535 178.099 125.094 177.773 124.57C177.447 124.046 177.248 123.453 177.192 122.838C177.192 121.787 178.031 121.422 179.069 122.03L202.497 135.821C203.023 136.144 203.465 136.585 203.791 137.108C204.117 137.632 204.317 138.225 204.374 138.84C204.374 139.901 203.535 140.255 202.497 139.647Z" fill="#FF8578"/>
        <path opacity="0.25" d="M242.144 41.2573L211.363 23.1431C210.839 22.8188 210.397 22.3776 210.072 21.8539C209.746 21.3302 209.546 20.7382 209.486 20.1241C209.486 19.0182 210.325 18.6975 211.363 19.3058L242.144 37.431C242.67 37.754 243.112 38.195 243.438 38.7189C243.764 39.2429 243.964 39.8355 244.021 40.45C243.999 41.5117 243.182 41.8766 242.144 41.2573Z" fill="#FBD15B"/>
        <path opacity="0.25" d="M227.737 42.883L192.385 22.1258C191.858 21.804 191.415 21.3634 191.089 20.8392C190.763 20.315 190.564 19.7217 190.508 19.1067C190.508 18.0561 191.347 17.6912 192.385 18.2994L227.715 39.112C228.237 39.4195 228.683 39.8423 229.017 40.3482C229.352 40.8541 229.567 41.4298 229.647 42.0315C229.647 43.1374 228.763 43.4912 227.737 42.883Z" fill="#606BF1"/>
        <path opacity="0.25" d="M227.736 144.247L192.406 123.435C191.88 123.113 191.436 122.672 191.11 122.148C190.784 121.624 190.585 121.031 190.529 120.416C190.529 119.365 191.368 119 192.406 119.608L227.736 140.41C228.258 140.736 228.699 141.178 229.024 141.701C229.35 142.225 229.551 142.816 229.613 143.429C229.646 144.491 228.763 144.878 227.736 144.247Z" fill="#FBD15B"/>
        <path opacity="0.25" d="M220.814 160.537L192.385 143.772C191.861 143.447 191.419 143.006 191.093 142.483C190.768 141.959 190.567 141.367 190.508 140.753C190.508 139.647 191.347 139.326 192.385 139.934L220.814 156.711C221.339 157.034 221.782 157.475 222.108 157.998C222.434 158.522 222.633 159.115 222.691 159.73C222.702 160.791 221.918 161.145 220.814 160.537Z" fill="#606BF1"/>
        <path opacity="0.25" d="M220.814 221.327L192.385 204.595C191.858 204.273 191.415 203.833 191.089 203.308C190.763 202.784 190.564 202.191 190.508 201.576C190.508 200.525 191.347 200.16 192.385 200.769L220.814 217.5C221.341 217.822 221.784 218.263 222.11 218.787C222.436 219.311 222.635 219.904 222.691 220.519C222.702 221.57 221.918 221.935 220.814 221.327Z" fill="#606BF1"/>
        <path opacity="0.25" d="M264.977 64.8014L238.81 49.4076C238.287 49.0833 237.845 48.642 237.519 48.1183C237.193 47.5946 236.993 47.0026 236.934 46.3886C236.934 45.2827 237.773 44.962 238.81 45.5702L264.977 60.975C265.503 61.2968 265.947 61.7374 266.273 62.2616C266.599 62.7858 266.798 63.3791 266.854 63.9941C266.854 65.0557 266.015 65.4096 264.977 64.8014Z" fill="#FF8578"/>
        <path opacity="0.25" d="M356.282 159.132L330.116 143.772C329.592 143.448 329.149 143.007 328.824 142.483C328.498 141.959 328.298 141.367 328.239 140.753C328.239 139.647 329.089 139.337 330.116 139.946L356.282 155.339C356.806 155.664 357.248 156.105 357.574 156.629C357.9 157.152 358.1 157.744 358.159 158.358C358.159 159.376 357.32 159.741 356.282 159.132Z" fill="#FF8578"/>
        <path opacity="0.25" d="M347.571 194.576L321.416 179.16C320.889 178.838 320.444 178.398 320.116 177.874C319.789 177.35 319.587 176.756 319.528 176.141C319.528 175.09 320.378 174.725 321.416 175.333L347.571 190.738C348.098 191.06 348.541 191.501 348.867 192.025C349.193 192.549 349.392 193.142 349.448 193.757C349.448 194.819 348.609 195.184 347.571 194.576Z" fill="#606BF1"/>
        <path opacity="0.25" d="M319.075 258.783L292.909 243.389C292.384 243.066 291.941 242.625 291.615 242.101C291.29 241.577 291.09 240.984 291.032 240.37C291.032 239.264 291.871 238.954 292.909 239.563L319.075 254.945C319.599 255.27 320.041 255.711 320.367 256.235C320.692 256.758 320.893 257.35 320.952 257.964C320.919 259.026 320.08 259.391 319.075 258.783Z" fill="#FBD15B"/>
        <path opacity="0.25" d="M311.225 81.9203L298.098 74.2124C297.571 73.8907 297.128 73.4501 296.802 72.9259C296.476 72.4017 296.277 71.8083 296.221 71.1934C296.221 70.0875 297.06 69.7779 298.098 70.3861L311.192 78.1272C311.716 78.4515 312.158 78.8927 312.483 79.4164C312.809 79.9401 313.009 80.5321 313.069 81.1462C313.102 82.1746 312.263 82.5396 311.225 81.9203Z" fill="#F9FBFC"/>
        <path opacity="0.25" d="M327.002 152L310.298 142.168C309.774 141.844 309.332 141.403 309.006 140.879C308.681 140.355 308.48 139.763 308.421 139.149C308.421 138.043 309.26 137.723 310.298 138.331L327.002 148.195C327.526 148.52 327.968 148.961 328.294 149.485C328.619 150.008 328.82 150.6 328.879 151.214C328.879 152.243 328.04 152.619 327.002 152Z" fill="#FBD15B"/>
        <path opacity="0.25" d="M268.432 158.148L251.727 148.262C251.201 147.94 250.757 147.499 250.432 146.975C250.106 146.451 249.907 145.858 249.851 145.243C249.851 144.137 250.69 143.827 251.727 144.435L268.432 154.267C268.958 154.588 269.402 155.029 269.728 155.553C270.054 156.077 270.253 156.671 270.309 157.286C270.309 158.336 269.47 158.701 268.432 158.148Z" fill="#F9FBFC"/>
        <path opacity="0.25" d="M268.575 198.756L251.882 188.925C251.356 188.603 250.912 188.162 250.586 187.638C250.26 187.114 250.061 186.521 250.005 185.906C250.005 184.855 250.844 184.49 251.882 185.098L268.575 194.929C269.111 195.247 269.564 195.687 269.898 196.214C270.232 196.741 270.437 197.339 270.496 197.96C270.496 199.065 269.613 199.364 268.575 198.756Z" fill="#FF8578"/>
        <path opacity="0.25" d="M357.033 260.928L340.328 251.097C339.804 250.773 339.361 250.332 339.035 249.808C338.71 249.284 338.51 248.692 338.451 248.078C338.451 247.027 339.301 246.662 340.328 247.271L357.033 257.102C357.558 257.425 358.001 257.866 358.326 258.39C358.652 258.914 358.852 259.506 358.909 260.121C358.909 261.182 358.07 261.536 357.033 260.928Z" fill="#FBD15B"/>
        <path opacity="0.25" d="M305.075 240.447L288.371 230.616C287.845 230.294 287.401 229.854 287.075 229.33C286.749 228.805 286.55 228.212 286.494 227.597C286.494 226.491 287.333 226.181 288.371 226.79L305.075 236.665C305.601 236.988 306.043 237.429 306.369 237.953C306.695 238.477 306.895 239.07 306.952 239.684C306.93 240.702 306.113 241.089 305.075 240.447Z" fill="#F9FBFC"/>
        <path opacity="0.25" d="M286.748 67.4666L253.074 47.6493C252.55 47.3256 252.107 46.8845 251.782 46.3607C251.456 45.8369 251.256 45.2446 251.197 44.6303C251.197 43.5244 252.047 43.2147 253.074 43.823L286.748 63.6402C287.272 63.9646 287.714 64.4058 288.04 64.9295C288.365 65.4532 288.565 66.0452 288.625 66.6593C288.625 67.7652 287.786 68.1301 286.748 67.4666Z" fill="#F9FBFC"/>
        <path opacity="0.25" d="M275.034 101.196L246.77 84.6076C246.247 84.2832 245.805 83.842 245.479 83.3183C245.153 82.7946 244.953 82.2026 244.894 81.5885C244.894 80.4826 245.733 80.1619 246.77 80.7702L275.034 97.3251C275.561 97.6469 276.004 98.0875 276.33 98.6117C276.656 99.1359 276.855 99.7292 276.911 100.344C276.911 101.45 276.072 101.804 275.034 101.196Z" fill="#F9FBFC"/>
        <path opacity="0.25" d="M280.599 124.673L246.925 104.856C246.399 104.534 245.955 104.094 245.629 103.57C245.303 103.045 245.104 102.452 245.048 101.837C245.048 100.731 245.887 100.422 246.925 101.03L280.599 120.847C281.121 121.173 281.562 121.615 281.887 122.138C282.212 122.662 282.414 123.253 282.476 123.866C282.476 124.972 281.625 125.293 280.599 124.673Z" fill="#606BF1"/>
        <path opacity="0.25" d="M269.779 138.53L246.925 125.072C246.4 124.748 245.957 124.308 245.631 123.784C245.305 123.26 245.106 122.667 245.048 122.052C245.048 120.947 245.887 120.626 246.925 121.245L269.779 134.693C270.303 135.017 270.745 135.458 271.07 135.982C271.396 136.506 271.596 137.098 271.656 137.712C271.656 138.773 270.817 139.138 269.779 138.53Z" fill="#F9FBFC"/>
        <path opacity="0.25" d="M356.282 250.389L337.778 239.496C337.254 239.172 336.812 238.731 336.487 238.207C336.161 237.683 335.961 237.091 335.901 236.477C335.901 235.371 336.74 235.051 337.778 235.659L356.282 246.552C356.806 246.876 357.248 247.317 357.574 247.841C357.899 248.365 358.1 248.957 358.159 249.571C358.159 250.632 357.32 251.042 356.282 250.389Z" fill="#606BF1"/>
        <path opacity="0.25" d="M333.428 257.157L314.924 246.264C314.398 245.942 313.954 245.502 313.628 244.978C313.302 244.453 313.103 243.86 313.047 243.245C313.047 242.195 313.886 241.83 314.924 242.438L333.428 253.331C333.952 253.654 334.395 254.095 334.72 254.619C335.046 255.143 335.246 255.735 335.305 256.35C335.338 257.411 334.532 257.765 333.428 257.157Z" fill="#606BF1"/>
        <path opacity="0.25" d="M282.398 237.207L263.872 226.314C263.346 225.992 262.902 225.552 262.576 225.028C262.25 224.503 262.051 223.91 261.995 223.295C261.995 222.245 262.834 221.88 263.872 222.488L282.398 233.348C282.924 233.669 283.368 234.11 283.694 234.634C284.02 235.158 284.219 235.752 284.275 236.367C284.275 237.45 283.436 237.771 282.398 237.207Z" fill="#F9FBFC"/>
        <path opacity="0.25" d="M282.995 187.034L260.141 173.63C259.614 173.309 259.171 172.868 258.845 172.344C258.519 171.82 258.32 171.226 258.264 170.611C258.264 169.561 259.103 169.196 260.141 169.804L282.995 183.263C283.521 183.584 283.965 184.025 284.291 184.549C284.616 185.073 284.815 185.667 284.872 186.282C284.849 187.277 284.032 187.642 282.995 187.034Z" fill="#FBD15B"/>
        <path opacity="0.25" d="M266.08 85.6914L233.985 66.7699C233.459 66.4482 233.015 66.0076 232.689 65.4834C232.363 64.9592 232.164 64.3658 232.108 63.7509C232.108 62.645 232.947 62.3353 233.985 62.9436L266.08 81.8429C266.607 82.1647 267.05 82.6052 267.376 83.1295C267.702 83.6537 267.901 84.247 267.957 84.862C268.001 85.9347 267.184 86.2664 266.08 85.6914Z" fill="#F9FBFC"/>
        <path opacity="0.25" d="M301.62 137.059L290.756 130.656C290.23 130.334 289.786 129.894 289.46 129.37C289.134 128.845 288.935 128.252 288.879 127.637C288.879 126.531 289.718 126.222 290.756 126.83L301.62 133.222C302.144 133.546 302.586 133.987 302.911 134.511C303.237 135.035 303.437 135.627 303.497 136.241C303.497 137.302 302.658 137.667 301.62 137.059Z" fill="#F9FBFC"/>
        <path opacity="0.25" d="M266.081 106.051L233.941 87.1401C233.416 86.817 232.973 86.3761 232.648 85.8521C232.322 85.3282 232.122 84.7355 232.064 84.121C232.064 83.0151 232.904 82.6944 233.941 83.3137L266.081 102.224C266.606 102.547 267.049 102.988 267.374 103.512C267.7 104.036 267.9 104.629 267.957 105.243C268.002 106.305 267.185 106.67 266.081 106.051Z" fill="#FBD15B"/>
        <path opacity="0.25" d="M265.671 126L233.532 107.079C233.006 106.757 232.562 106.317 232.236 105.792C231.91 105.268 231.711 104.675 231.655 104.06C231.655 102.954 232.494 102.644 233.532 103.253L265.671 122.174C266.198 122.496 266.641 122.936 266.967 123.461C267.293 123.985 267.492 124.578 267.548 125.193C267.548 126.244 266.709 126.609 265.671 126Z" fill="#FBD15B"/>
        <path opacity="0.25" d="M266.081 146.625L233.941 127.715C233.416 127.391 232.973 126.951 232.648 126.427C232.322 125.903 232.122 125.31 232.064 124.695C232.064 123.59 232.904 123.269 233.941 123.888L266.081 142.799C266.606 143.122 267.049 143.563 267.374 144.087C267.7 144.611 267.9 145.203 267.957 145.818C268.002 146.879 267.185 147.244 266.081 146.625Z" fill="#FF8578"/>
        <path opacity="0.25" d="M234.99 57.2594L211.209 43.259C210.683 42.9373 210.239 42.4967 209.913 41.9725C209.587 41.4483 209.388 40.855 209.332 40.24C209.332 39.1341 210.171 38.8245 211.209 39.4327L234.99 53.4331C235.517 53.7548 235.96 54.1954 236.286 54.7196C236.612 55.2438 236.811 55.8371 236.867 56.4521C236.867 57.5137 236.028 57.8676 234.99 57.2594Z" fill="#FBD15B"/>
        <path opacity="0.25" d="M327.3 121.654L276.514 91.7958C275.991 91.4696 275.551 91.0278 275.225 90.5045C274.9 89.9812 274.699 89.3901 274.637 88.7768C274.637 87.6709 275.487 87.3502 276.514 87.9584L327.3 117.872C327.825 118.195 328.268 118.636 328.594 119.16C328.92 119.684 329.119 120.277 329.177 120.891C329.177 121.953 328.338 122.307 327.3 121.654Z" fill="#606BF1"/>
        <path opacity="0.25" d="M319.792 137.645L276.635 112.21C276.108 111.888 275.665 111.448 275.339 110.924C275.013 110.399 274.814 109.806 274.758 109.191C274.758 108.085 275.597 107.776 276.635 108.384L319.792 133.819C320.319 134.141 320.762 134.581 321.088 135.106C321.414 135.63 321.613 136.223 321.669 136.838C321.669 137.889 320.83 138.242 319.792 137.645Z" fill="#F9FBFC"/>
        <path opacity="0.25" d="M310.784 152.552L276.183 132.193C275.659 131.869 275.217 131.428 274.891 130.904C274.565 130.38 274.365 129.788 274.306 129.174C274.306 128.068 275.145 127.748 276.183 128.367L310.784 148.726C311.31 149.048 311.754 149.488 312.08 150.013C312.406 150.537 312.605 151.13 312.661 151.745C312.661 152.796 311.822 153.161 310.784 152.552Z" fill="#F9FBFC"/>
        <path opacity="0.25" d="M310.784 172.912L276.183 152.552C275.656 152.231 275.213 151.79 274.887 151.266C274.561 150.742 274.362 150.148 274.306 149.533C274.306 148.428 275.145 148.118 276.183 148.726L310.784 169.085C311.308 169.41 311.75 169.851 312.075 170.375C312.401 170.898 312.601 171.49 312.661 172.104C312.661 173.166 311.822 173.531 310.784 172.912Z" fill="#F9FBFC"/>
        <path opacity="0.25" d="M327.908 213.309L293.317 192.95C292.792 192.627 292.349 192.186 292.024 191.662C291.698 191.138 291.498 190.546 291.44 189.931C291.44 188.825 292.28 188.515 293.317 189.124L327.908 209.483C328.434 209.805 328.878 210.245 329.203 210.769C329.529 211.294 329.728 211.887 329.784 212.502C329.773 213.563 328.934 213.917 327.908 213.309Z" fill="#606BF1"/>
        <path opacity="0.25" d="M316.79 267.552L282.188 247.193C281.662 246.871 281.218 246.431 280.892 245.907C280.567 245.382 280.368 244.789 280.312 244.174C280.312 243.068 281.151 242.759 282.188 243.367L316.79 263.726C317.315 264.049 317.758 264.49 318.083 265.014C318.409 265.538 318.609 266.13 318.667 266.745C318.667 267.807 317.827 268.172 316.79 267.552Z" fill="#FF8578"/>
        <path opacity="0.25" d="M330.115 241.277L298.727 222.809L265.793 203.412L264.137 202.438C263.099 201.83 262.26 202.195 262.26 203.246C262.316 203.861 262.515 204.454 262.841 204.978C263.167 205.502 263.61 205.943 264.137 206.265L265.793 207.238L298.727 226.635L330.115 245.103C331.153 245.722 331.992 245.357 331.992 244.296C331.934 243.681 331.735 243.089 331.409 242.565C331.083 242.041 330.64 241.6 330.115 241.277Z" fill="#F9FBFC"/>
        <path opacity="0.25" d="M327.301 233.348L278.59 204.672C278.064 204.351 277.62 203.91 277.294 203.386C276.968 202.862 276.769 202.268 276.713 201.653C276.713 200.547 277.552 200.238 278.59 200.846L327.301 229.521C327.827 229.843 328.271 230.284 328.597 230.808C328.923 231.332 329.122 231.925 329.178 232.54C329.178 233.569 328.339 233.934 327.301 233.348Z" fill="#F9FBFC"/>
        <path opacity="0.25" d="M296.662 93.5652L246.902 64.2706C246.376 63.9488 245.932 63.5083 245.606 62.984C245.28 62.4598 245.081 61.8665 245.025 61.2515C245.025 60.1457 245.864 59.836 246.902 60.4443L296.662 89.7388C297.189 90.0606 297.632 90.5012 297.958 91.0254C298.284 91.5496 298.483 92.1429 298.539 92.7579C298.539 93.8085 297.7 94.1734 296.662 93.5652Z" fill="#F9FBFC"/>
        <path opacity="0.25" d="M234.99 77.6295L211.209 63.6292C210.684 63.3061 210.241 62.8652 209.915 62.3413C209.589 61.8173 209.39 61.2247 209.332 60.6102C209.332 59.5043 210.171 59.1836 211.209 59.8029L234.99 73.7922C235.514 74.1165 235.956 74.5577 236.282 75.0814C236.607 75.6051 236.808 76.1971 236.867 76.8112C236.867 77.8728 236.028 78.2378 234.99 77.6295Z" fill="#FF8578"/>
        <path opacity="0.25" d="M234.99 97.8339L211.209 83.8335C210.683 83.5118 210.239 83.0712 209.913 82.547C209.587 82.0228 209.388 81.4295 209.332 80.8145C209.332 79.7639 210.171 79.399 211.209 80.0072L234.99 94.0075C235.517 94.3293 235.96 94.7699 236.286 95.2941C236.612 95.8183 236.811 96.4116 236.867 97.0266C236.867 98.0882 236.028 98.431 234.99 97.8339Z" fill="#FF8578"/>
        <path opacity="0.25" d="M234.99 118.204L211.209 104.204C210.684 103.881 210.241 103.44 209.915 102.916C209.589 102.392 209.39 101.799 209.332 101.185C209.332 100.079 210.171 99.758 211.209 100.377L234.99 114.367C235.514 114.691 235.956 115.132 236.282 115.656C236.607 116.18 236.808 116.772 236.867 117.386C236.867 118.447 236.028 118.812 234.99 118.204Z" fill="#606BF1"/>
        <path opacity="0.25" d="M240.246 182.079L211.209 164.994C210.685 164.669 210.243 164.228 209.917 163.704C209.592 163.181 209.391 162.589 209.332 161.975C209.332 160.869 210.171 160.548 211.209 161.156L240.246 178.253C240.772 178.575 241.216 179.015 241.542 179.54C241.868 180.064 242.067 180.657 242.123 181.272C242.123 182.334 241.284 182.688 240.246 182.079Z" fill="#FBD15B"/>
        <path opacity="0.25" d="M229.646 216.383L211.264 205.568C210.74 205.244 210.298 204.802 209.972 204.279C209.647 203.755 209.446 203.163 209.387 202.549C209.387 201.443 210.226 201.122 211.264 201.731L229.646 212.557C230.171 212.881 230.613 213.322 230.939 213.846C231.265 214.37 231.465 214.962 231.523 215.576C231.468 216.627 230.618 216.992 229.646 216.383Z" fill="#FBD15B"/>
        <path opacity="0.25" d="M271.435 240.856L241.625 223.328C241.1 223.005 240.657 222.564 240.331 222.04C240.005 221.516 239.806 220.924 239.748 220.309C239.748 219.203 240.587 218.883 241.625 219.502L271.435 237.03C271.96 237.353 272.403 237.794 272.728 238.318C273.054 238.842 273.254 239.435 273.311 240.049C273.311 241.089 272.472 241.465 271.435 240.856Z" fill="#F9FBFC"/>
        <path opacity="0.25" d="M254.013 200.293L230.231 186.293C229.706 185.97 229.263 185.529 228.938 185.005C228.612 184.481 228.412 183.888 228.354 183.274C228.354 182.168 229.194 181.847 230.231 182.466L254.013 196.456C254.537 196.78 254.979 197.221 255.304 197.745C255.63 198.269 255.83 198.861 255.89 199.475C255.89 200.536 255.04 200.901 254.013 200.293Z" fill="#606BF1"/>
        <path opacity="0.25" d="M254.013 220.652L230.231 206.652C229.705 206.33 229.261 205.889 228.935 205.365C228.61 204.841 228.411 204.248 228.354 203.633C228.354 202.582 229.194 202.217 230.231 202.825L254.013 216.826C254.539 217.148 254.983 217.588 255.309 218.112C255.635 218.637 255.834 219.23 255.89 219.845C255.89 220.895 255.04 221.26 254.013 220.652Z" fill="#606BF1"/>
        <path opacity="0.25" d="M278.645 224.888L245.247 205.236C244.721 204.915 244.277 204.474 243.951 203.95C243.625 203.426 243.426 202.832 243.37 202.217C243.37 201.111 244.209 200.802 245.247 201.41L278.645 221.061C279.17 221.384 279.613 221.825 279.939 222.349C280.264 222.873 280.464 223.466 280.522 224.08C280.522 225.142 279.683 225.507 278.645 224.888Z" fill="#FF8578"/>
        <path opacity="0.25" d="M240.853 141.859L211.209 124.408C210.683 124.086 210.239 123.646 209.913 123.121C209.587 122.597 209.388 122.004 209.332 121.389C209.332 120.283 210.171 119.973 211.209 120.582L240.853 138.032C241.379 138.354 241.823 138.795 242.149 139.319C242.475 139.843 242.674 140.436 242.73 141.051C242.73 142.102 241.891 142.467 240.853 141.859Z" fill="#F9FBFC"/>
        <path opacity="0.25" d="M250.104 167.67L212.964 145.807C212.438 145.485 211.994 145.044 211.668 144.52C211.342 143.996 211.143 143.403 211.087 142.788C211.087 141.682 211.926 141.372 212.964 141.98L250.104 163.843C250.63 164.166 251.072 164.607 251.398 165.131C251.724 165.655 251.924 166.248 251.981 166.862C251.981 167.924 251.142 168.278 250.104 167.67Z" fill="#F9FBFC"/>
        <path opacity="0.25" d="M345.021 101.815L321.99 88.257C321.464 87.9353 321.02 87.4947 320.694 86.9705C320.368 86.4462 320.169 85.8529 320.113 85.238C320.113 84.1874 320.952 83.8224 321.99 84.4307L345.021 97.9887C345.547 98.3104 345.991 98.751 346.317 99.2752C346.643 99.7994 346.842 100.393 346.898 101.008C346.898 102.069 346.059 102.423 345.021 101.815Z" fill="#606BF1"/>
    </g>
    <path d="M239.825 239.198C239.825 239.198 235.199 239.198 243.138 244.727C252.732 251.362 257.623 254.05 268.2 258.163C270.288 260.64 272.499 263.009 274.824 265.263C251.131 261.735 221.2 233.668 239.814 239.22" fill="#AFB7EF"/>
    <path d="M236.933 224.257C236.933 224.257 231.744 225.098 239.66 230.505C249.655 237.594 260.525 243.356 271.998 247.647C273.421 249.807 275.092 251.793 276.977 253.563C248.338 245.391 216.43 219.215 236.933 224.257Z" fill="#AFB7EF"/>
    <path d="M261.333 215.853C267.173 225.96 259.798 227.763 259.798 227.763C259.798 227.763 274.626 228.67 267.814 215.134C261.454 202.505 256.585 195.228 282.972 195.173C282.972 195.173 241.548 181.571 261.333 215.853Z" fill="white"/>
    <path d="M292.667 279.573C292.667 279.573 296.089 284.384 288.902 282.404C275.222 278.644 231.987 254.89 219.975 242.714C215.658 238.291 223.751 240.403 226.301 241.332C227.757 241.831 229.156 242.484 230.475 243.278C225.672 237.108 199.429 231.976 217.149 245.092C265.451 280.878 305.198 292.479 292.667 279.573Z" fill="#AFB7EF"/>
    <path d="M242.046 213.442C242.046 213.442 220.053 205.955 234.317 216.074C240.312 220.342 252.269 227.077 263.409 232.585C272.507 237.074 281.648 240.724 281.648 240.724C279.821 240.459 277.971 240.381 276.128 240.492C253.793 233.458 210.646 205.778 223.067 206.939C229.783 207.728 236.254 209.945 242.046 213.442Z" fill="#AFB7EF"/>
    <path d="M281.538 258.373C304.237 259.689 293.749 242.261 286.418 239.574C285.574 239.239 284.707 238.97 283.823 238.766C284.092 238.553 284.407 238.408 284.743 238.343C285.08 238.277 285.427 238.294 285.755 238.39C300.251 241.708 311.402 268.249 281.085 258.727C281.268 258.67 281.427 258.553 281.538 258.396" fill="#AFB7EF"/>
    <path d="M267.814 161.643C267.814 161.643 280.389 181.548 255.89 186.724C236.238 190.904 251.408 208.532 255.89 221.238C244.419 204.252 236.017 190.274 241.659 185.032C249.939 177.357 272.904 184.59 267.825 161.643" fill="white"/>
    <path d="M244.275 268.868C266.069 282.869 299.544 300.054 300.328 290.178C300.328 290.178 298.805 293.22 282.321 286.794C263.718 279.54 240.775 265.86 227.118 255.742C227.118 255.742 229.9 259.667 244.22 268.868" fill="#AFB7EF"/>
    <g opacity="0.5">
        <path d="M352.329 63.6402C351.093 62.9214 350.673 63.0209 350.673 63.9388V68.0748C350.673 69.6893 350.011 69.7889 348.896 69.4571C349.451 69.8353 349.904 70.3453 350.214 70.9416C350.524 71.5379 350.682 72.2019 350.673 72.8742V76.9991C350.673 77.9281 351.115 78.5142 352.329 79.2109V81.0135C349.205 79.2109 348.322 77.6958 348.322 75.6057V71.702C348.372 71.2275 348.272 70.7491 348.036 70.3344C347.801 69.9197 347.441 69.5896 347.008 69.3908V67.3228C348.024 67.9199 348.322 67.6324 348.322 66.5155V62.6007C348.322 60.4885 349.205 60.024 352.329 61.8266V63.6402Z" fill="#606BF1"/>
        <path d="M362.619 70.8726V74.7874C362.57 75.2689 362.673 75.7537 362.912 76.174C363.152 76.5944 363.516 76.9292 363.955 77.1319V79.1888C362.917 78.5916 362.619 78.857 362.619 79.9739V83.8887C362.619 85.9788 361.736 86.4654 358.611 84.6629V82.8492C359.826 83.557 360.267 83.4685 360.267 82.5506V78.4147C360.267 76.8222 360.93 76.7227 362.045 77.0655C361.489 76.68 361.037 76.1638 360.727 75.5623C360.417 74.9607 360.259 74.2921 360.267 73.6152V69.4903C360.267 68.5614 359.848 67.9863 358.611 67.2785V65.4649C361.736 67.2675 362.619 68.7604 362.619 70.8726Z" fill="#606BF1"/>
    </g>
    <path d="M116.59 136.13C114.769 135.024 114.161 135.223 114.161 136.584V142.666C114.161 145.033 113.19 145.187 111.545 144.701C112.361 145.254 113.027 146.001 113.484 146.875C113.94 147.749 114.173 148.724 114.161 149.71V155.782C114.161 157.142 114.802 157.993 116.59 159.033V161.698C111.997 159.044 110.706 156.821 110.706 153.758V148.007C110.786 147.308 110.642 146.6 110.295 145.988C109.948 145.376 109.415 144.89 108.773 144.601V141.56C110.275 142.423 110.706 142.013 110.706 140.366V134.604C110.706 131.519 111.997 130.822 116.59 133.498V136.13Z" fill="#FFD65A"/>
    <path d="M131.716 146.758V152.508C131.639 153.216 131.787 153.93 132.138 154.549C132.488 155.168 133.024 155.661 133.67 155.959V158.989C132.147 158.104 131.716 158.491 131.716 160.094V165.889C131.716 168.953 130.413 169.682 125.82 166.995V164.33C127.609 165.37 128.249 165.248 128.249 163.888V157.816C128.249 155.472 129.232 155.317 130.877 155.837C130.058 155.271 129.39 154.512 128.932 153.627C128.474 152.742 128.239 151.758 128.249 150.761V144.69C128.249 143.329 127.642 142.478 125.82 141.438V138.784C130.413 141.472 131.716 143.661 131.716 146.758Z" fill="#FFD65A"/>
    <defs>
        <linearGradient id="paint0_linear" x1="160.643" y1="217.843" x2="387.814" y2="217.843" gradientUnits="userSpaceOnUse">
            <stop offset="0.01" stop-color="white"/>
            <stop offset="1" stop-color="#E3F1FE"/>
        </linearGradient>
        <linearGradient id="paint1_linear" x1="162.74" y1="156.275" x2="371.297" y2="156.275" gradientUnits="userSpaceOnUse">
            <stop/>
            <stop offset="1" stop-color="white"/>
        </linearGradient>
        <linearGradient id="paint2_linear" x1="0" y1="67455.1" x2="124601" y2="67455.1" gradientUnits="userSpaceOnUse">
            <stop offset="0.01" stop-color="white"/>
            <stop offset="1" stop-color="#E3F1FE"/>
        </linearGradient>
    </defs>
</svg>
