<?xml version="1.0" encoding="UTF-8"?>
<svg id="_Слой_1" data-name="Слой_1" xmlns="http://www.w3.org/2000/svg" viewBox="0 0 279 83">
  <defs>
    <style>
      .cls-1 {
        fill: none;
        stroke: #ffc328;
        stroke-linecap: round;
        stroke-linejoin: round;
        stroke-width: 4px;
      }
    </style>
  </defs>
  <path class="cls-1" d="M24.36,19.5c7.71-4.25,29.89-13.37,56.97-15.83,33.85-3.08,75.13-2.2,123.84,5.28,48.71,7.48,71.83,20.67,71.83,29.47s-13.21,21.11-79.26,32.55c-66.05,11.43-109.81,13.19-150.26,4.84C7.02,67.43,1.25,47.2,2.07,39.29c.83-7.92,8.26-27.72,76.78-32.1,68.53-4.39,116.41,4.4,139.53,10.11,23.12,5.72,47.06,16.27,47.06,27.71s-53.66,32.06-145.31,28.59C28.49,70.12,2.07,32.25,45,33.57"/>
</svg>