<?xml version="1.0" encoding="UTF-8"?>
<svg id="_Слой_1" data-name="Слой_1" xmlns="http://www.w3.org/2000/svg" xmlns:xlink="http://www.w3.org/1999/xlink" viewBox="0 0 236 136">
  <defs>
    <style>
      .cls-1 {
        fill: #fff;
      }

      .cls-2, .cls-3 {
        fill: none;
      }

      .cls-4 {
        fill: #c9b7ec;
      }

      .cls-3 {
        stroke: #0d1117;
        stroke-linecap: round;
        stroke-linejoin: round;
      }

      .cls-5 {
        fill: #00afb2;
      }

      .cls-6 {
        fill: #cdf567;
      }

      .cls-7 {
        fill: #ffc328;
      }

      .cls-8 {
        fill: #0d1117;
      }

      .cls-9 {
        clip-path: url(#clippath);
      }
    </style>
    <clipPath id="clippath">
      <rect class="cls-2" y="0" width="236" height="136"/>
    </clipPath>
  </defs>
  <g class="cls-9">
    <g>
      <path class="cls-8" d="M152.43,34.89s4.23-11.33,2.52-18.41c-1.71-7.08-5.8-9.89-11.77-9.04,0,0-1.26-3.5-7.24-5.8-5.98-2.3-12.03-.26-16.63.94-4.6,1.2-7.42,1.92-9.38-1.98,0,0-4.43,3.52-4.6,12.55-.17,9.03,6.39,13.39,11.34,14.75,4.95,1.36,19.44,2.13,23.79-1.88,0,0,6.87,2.38,5.93,14.4-.94,12.02-14.71,11.94-14.71,11.94,0,0,.17-2.39-2.73-2.47-2.9-.08-3.07,2.47-3.07,2.47,0,0-12.36-1.11-13.3-13.04,0,0-1.45,11,3.41,14.92,4.86,3.92,8.61,4.01,14.24,3.92,5.63-.09,11-.26,14.24-3.15,3.24-2.89,4.44-6.42,4.44-9.15v-10.31l3.52-.67h0Z"/>
      <path class="cls-8" d="M123.66,61.17s.66,4.78,7.22,4.88c6.56.1,8.25-4.88,8.25-4.88,0,0,3.38,1.78,1.97,5.35-1.41,3.57-9.6,4.84-13.6,3.85-3.57-.89-9-3.85-3.85-9.19h.01Z"/>
      <path class="cls-8" d="M124.25,81.35v2.84s-2.17-.84-2.17,1.62.78,7.5-2.29,7.5c0,0,2.01.69,2.01,4.48s.95,5.13,2.45,5.07v2.9s-4.52.72-4.85-2.68-.33-7.97-3.46-8.2v-3.97s3.23.12,3.4-2.72c.17-2.84-.72-5.02.84-6.24,1.56-1.22,4.07-.61,4.07-.61h0Z"/>
      <path class="cls-8" d="M128.6,81.19v3.16s3.12-.52,3.46,1.23-.06,2.95,0,4.68c.06,1.73,1.45,3.37,2.56,3.25,0,0-2.51,1.1-2.73,4.23-.22,3.13-.39,5.39-3.29,5.12v2.95s4.13.45,5.24-2.68c1.11-3.13-.11-7.23,3.68-7.85v-4.18s-2.34.28-2.4-2.9.06-7.01-6.52-7.01Z"/>
      <path class="cls-6" d="M18.45,103.9s2.01,10.21,4.52,13.06l-4.52-13.06Z"/>
      <path class="cls-7" d="M133.82,127.17s-17.21-.09-32.64-.07c-2.3-6.47-6.73-19.05-7.72-22.37-1.34-4.52-12.89-42.03-13.73-45.04-.84-3.01-9.71-2.23-9.71-2.23-1.52-.05-2.68.15-2.68.15,0,0-57.53,4.08-62.84,4.08s-3.67,4.25-3.67,4.25c0,0,2.24,10.64,6.53,25.13,4.28,14.48,13.67,37.13,13.67,37.13l1.41.89c-1.17.3-1.89,1.02-.81,2.6,2.51,3.68,7.87,3.18,12.06,3.18s56.6.05,70.83.02c14.23-.03,25.62-.19,28.47-1.36,2.85-1.17,7.37-6.33.84-6.36h0ZM96.29,125.6l.41,1.07s-.15-.36-.41-1.07Z"/>
      <path class="cls-1" d="M51.77,92.83s-2.51-4.5-7.7-4.17c-5.19.33-8.04,5.19-6.7,9.88,1.34,4.69,7.53,6.2,10.72,5.36,3.19-.84,5.86-6.24,3.68-11.07Z"/>
      <path class="cls-5" d="M221.73,84.06c-1.81-.15-18.84.15-28.19,0-9.35-.15-26.08.06-29.09-.04-3.02-.11-4.52.19-4.52,2.46s-1.81,14.53,1.21,14.57c-5.69.02-8.62.08-10.12.02-3.01-.11-4.52.19-4.52,2.46s-1.81,14.53,1.21,14.57c3.02.04,39.35-.25,39.35-.25,0,0,11.91-.3,15.98,0,.29.02.57.04.85.07l-50.82.3c-.75.34-1.13.99-1.13,2.12,0,2.26-1.81,14.53,1.21,14.57,3.02.05,39.35-.25,39.35-.25,0,0,11.91-.3,15.98,0,4.07.3,6.33.9,6.18-2.26-.15-3.16.9-14.32-.9-14.47-.59-.05-1.78-.05-4.79-.03h-.8c.76-.29,1.14-.95,1.08-2.3-.15-3.17.81-14.76-.99-14.92,3.15-.02,6.46,0,8.25.12,4.07.3,6.33.9,6.18-2.26-.15-3.16.9-14.32-.9-14.47h-.06Z"/>
      <path class="cls-1" d="M178.91,83.99v17.06h-13.29v16.96l5.28.1v16.8l25.33-.34v-16.86l-5.43.06v-16.9l13.44-.21v-16.57l-25.33-.1Z"/>
      <path class="cls-4" d="M169.91,59.88s3.42.36,5.76-3.06c2.34-3.42,2.16-6.12,2.16-6.12,0,0,.54,5.04,2.7,7.02s4.5,2.17,4.5,2.17c0,0-7.38,2.33-7.56,8.99,0,0-1.62-8.82-7.56-9Z"/>
      <path class="cls-5" d="M68.07,27.89s3.42.36,5.76-3.06c2.34-3.42,2.16-6.12,2.16-6.12,0,0,.54,5.04,2.7,7.02,2.16,1.98,4.5,2.17,4.5,2.17,0,0-7.38,2.33-7.56,8.99,0,0-1.62-8.82-7.56-9Z"/>
      <path class="cls-4" d="M35.52,41.87s2.32.24,3.91-2.08c1.59-2.32,1.47-4.16,1.47-4.16,0,0,.37,3.42,1.83,4.77,1.46,1.35,3.06,1.47,3.06,1.47,0,0-5.01,1.58-5.13,6.1,0,0-1.1-5.99-5.13-6.11h0Z"/>
      <path class="cls-6" d="M202.62,42.1s2.03.21,3.42-1.82,1.28-3.63,1.28-3.63c0,0,.32,2.99,1.6,4.17s2.67,1.29,2.67,1.29c0,0-4.38,1.38-4.49,5.33,0,0-.96-5.23-4.49-5.34h0Z"/>
      <path class="cls-8" d="M142.07,33.25v1.35h-1.5v1.34h-1.33v1.37h-1.43v1.35h-9.88v-1.37h-1.44v-1.37h-1.39v-1.31h-2.71v1.33h-1.44v1.34h-9.68v-1.36h-1.57v-1.36h-1.22v-2.71h41.72v1.35h2.87v1.35h-2.89v-1.32h-8.11v.02ZM135.07,37.25h1.35v-1.3h-1.36c0-.45.01-.91.02-1.36h1.32v-1.34h-1.3v1.35h-1.32v1.35h-1.35v1.3h1.33v-1.31h1.31v1.31ZM118.1,34.6v-1.35h-1.3v1.36h-1.34v1.29h1.33v-1.3h1.31ZM139.14,34.55v-1.3h-1.27v1.37h-1.39v1.29h1.3c.03-.44.06-.87.08-1.29.42-.02.83-.04,1.28-.07ZM119.82,33.23c-.07,0-.18.11-.18.17-.02.38,0,.76,0,1.16h1.33v-1.34h-1.15ZM119.62,34.61h-1.32v1.3h1.32v-1.3Z"/>
      <path class="cls-3" d="M169.91,59.88s3.42.36,5.76-3.06c2.34-3.42,2.16-6.12,2.16-6.12,0,0,.54,5.04,2.7,7.02s4.5,2.17,4.5,2.17c0,0-7.38,2.33-7.56,8.99,0,0-1.62-8.82-7.56-9Z"/>
      <path class="cls-3" d="M68.07,27.89s3.42.36,5.76-3.06c2.34-3.42,2.16-6.12,2.16-6.12,0,0,.54,5.04,2.7,7.02,2.16,1.98,4.5,2.17,4.5,2.17,0,0-7.38,2.33-7.56,8.99,0,0-1.62-8.82-7.56-9Z"/>
      <path class="cls-3" d="M35.52,41.87s2.32.24,3.91-2.08c1.59-2.32,1.47-4.16,1.47-4.16,0,0,.37,3.42,1.83,4.77,1.46,1.35,3.06,1.47,3.06,1.47,0,0-5.01,1.58-5.13,6.1,0,0-1.1-5.99-5.13-6.11h0Z"/>
      <path class="cls-3" d="M202.62,42.1s2.03.21,3.42-1.82,1.28-3.63,1.28-3.63c0,0,.32,2.99,1.6,4.17s2.67,1.29,2.67,1.29c0,0-4.38,1.38-4.49,5.33,0,0-.96-5.23-4.49-5.34h0Z"/>
      <path class="cls-3" d="M112.58,39.33s-1.45,11,3.41,14.92c4.86,3.92,8.61,4.01,14.24,3.92,5.63-.09,11-.26,14.24-3.15s4.44-6.42,4.44-9.15v-4.62"/>
      <path class="cls-3" d="M152.43,33.89s4.23-10.33,2.52-17.41c-1.71-7.08-5.8-9.89-11.77-9.04,0,0-1.26-3.5-7.24-5.8-5.98-2.3-12.03-.26-16.63.94-4.6,1.2-7.42,1.92-9.38-1.98,0,0-4.43,3.52-4.6,12.55-.17,9.03,6.39,13.39,11.34,14.75,4.95,1.36,19.44,2.13,23.79-1.88,0,0,6.87,2.38,5.93,14.4-.94,12.02-14.71,11.94-14.71,11.94,0,0,.17-2.39-2.73-2.47-2.9-.08-3.07,2.47-3.07,2.47,0,0-12.36-1.11-13.3-13.04v-12.96"/>
      <path class="cls-3" d="M123.66,33.57v5.32s-3.06-.69-3.06,1.53,3.06,1.53,3.06,1.53"/>
      <path class="cls-3" d="M148.91,42.25s.32,1.96,2.53,1.96,3.28-3.79,3.28-5.81-1.96-4.85-5.81-3.02v6.88h0Z"/>
      <path class="cls-3" d="M151.81,37.2s-1.26,2.4-2.46,3.16c0,0,1.33.76,2.02,1.45"/>
      <path class="cls-3" d="M124.54,45.91s4.26,2.37,7.66-2.95"/>
      <path class="cls-3" d="M151.37,128.94c-5.5.89-10.9,1.36-14.81,1.6"/>
      <path class="cls-3" d="M141.12,63.37c18.26,6.72,24.51,20.62,24.51,20.62"/>
      <path class="cls-3" d="M109.54,117.32c-2.35,2-5.93,3.55-10.01,4.75"/>
      <path class="cls-3" d="M121.91,63.37s-5.95,1.1-12.55,6.98c-3.85,3.43-6.87,7.69-9.04,12.37-2.03,4.4-3.72,14.83-7.77,19"/>
      <path class="cls-3" d="M109.95,121.67s-1.4-24.42.94-33.58"/>
      <path class="cls-3" d="M151.5,100.94c-1.24-4-2.89-8.4-4.8-12"/>
      <path class="cls-3" d="M127.78,114.51s-1.05-1.46,5.17-1.81c3.11-.18,8.09-.63,12.29-1.04"/>
      <path class="cls-3" d="M119.05,120.48s-9.35,2.8-9.3,6.49"/>
      <path class="cls-3" d="M122.25,123.83s-4.83,1.21-7.85,3.14"/>
      <path class="cls-3" d="M107.8,126.85c-.81-1.08-.25-4.23,5.37-7.48,7.08-4.08,15.28-4.87,15.28-4.87,0,0,2.22.11,3.07,7.25.26,2.22.31,3.98.23,5.35"/>
      <path class="cls-3" d="M123.66,61.17s.66,4.78,7.22,4.88c6.56.1,8.25-4.88,8.25-4.88,0,0,3.38,1.78,1.97,5.35-1.41,3.57-9.6,4.84-13.6,3.85-3.57-.89-9-3.85-3.85-9.19h.01Z"/>
      <path class="cls-3" d="M123.66,58.37v2.8"/>
      <path class="cls-3" d="M139.14,61.17v-2.98"/>
      <path class="cls-3" d="M21.03,128.2s-9.38-22.65-13.67-37.13c-4.29-14.48-6.52-25.13-6.52-25.13,0,0-1.63-4.25,3.67-4.25s62.84-4.08,62.84-4.08c0,0,8.16-1.43,9.38,4.28s11.02,36.31,14.28,47.53c3.26,11.22,5.69,17.24,5.69,17.24"/>
      <path class="cls-3" d="M70.03,57.47s8.87-.78,9.71,2.23c.84,3.01,12.39,40.52,13.73,45.04,1.34,4.52,7.48,21.93,7.48,21.93"/>
      <path class="cls-3" d="M18.45,103.9s2.01,10.21,4.52,13.06"/>
      <path class="cls-3" d="M24.31,120.48l1.18,3.35"/>
      <path class="cls-3" d="M133.82,127.17s-30.31-.17-46.55,0c-16.24.17-30.31.72-41.36,1.03s-19.59.81-19.59.81c0,0-7.2-1-4.69,2.68,2.51,3.68,7.87,3.18,12.06,3.18s56.6.05,70.83.02c14.23-.03,25.62-.19,28.47-1.36,2.85-1.17,7.37-6.33.84-6.36h0Z"/>
      <path class="cls-3" d="M51.77,92.83s-2.51-4.5-7.7-4.17c-5.19.33-8.04,5.19-6.7,9.88,1.34,4.69,7.53,6.2,10.72,5.36,3.19-.84,5.86-6.24,3.68-11.07Z"/>
      <path class="cls-3" d="M124.25,81.35v2.84s-2.17-.84-2.17,1.62.78,7.5-2.29,7.5c0,0,2.01.69,2.01,4.48s.95,5.13,2.45,5.07v2.9s-4.52.72-4.85-2.68-.33-7.97-3.46-8.2v-3.97s3.23.12,3.4-2.72c.17-2.84-.72-5.02.84-6.24,1.56-1.22,4.07-.61,4.07-.61h0Z"/>
      <path class="cls-3" d="M128.6,81.19v3.16s3.12-.52,3.46,1.23-.06,2.95,0,4.68c.06,1.73,1.45,3.37,2.56,3.25,0,0-2.51,1.1-2.73,4.23-.22,3.13-.39,5.39-3.29,5.12v2.95s4.13.45,5.24-2.68c1.11-3.13-.11-7.23,3.68-7.85v-4.18s-2.34.28-2.4-2.9.06-7.01-6.52-7.01Z"/>
      <path class="cls-3" d="M221,80v-8"/>
      <path class="cls-3" d="M227,85s5.79-.22,8-1"/>
      <path class="cls-3" d="M229,76s-3.58,3.43-4,5"/>
      <path class="cls-3" d="M200.47,100.79s11.91-.3,15.98,0c4.07.3,6.33.9,6.18-2.26-.15-3.16.9-14.32-.9-14.47-1.8-.15-18.84.15-28.19,0-9.35-.15-26.08.06-29.09-.04-3.01-.1-4.52.19-4.52,2.46s-1.81,14.53,1.21,14.57c3.02.04,39.35-.25,39.35-.25h-.02Z"/>
      <path class="cls-3" d="M216.9,88.58s-5.43.3-6.93,0"/>
      <path class="cls-3" d="M204.24,84.09v15.96"/>
      <path class="cls-3" d="M178.91,84.09v16.87"/>
      <path class="cls-3" d="M184.04,84.09v8.43"/>
      <path class="cls-3" d="M199.12,100.8v-7.1"/>
      <path class="cls-3" d="M172.58,88.31s-4.82-.12-6.63,0"/>
      <path class="cls-3" d="M168.06,93.7s5.43-.3,7.09,0"/>
      <path class="cls-3" d="M172.58,97.25s-6.63.53-7.84,0"/>
      <path class="cls-3" d="M217.81,97.37s-6.63.8-8.44,0"/>
      <path class="cls-3" d="M207.1,93.57s6.33-.32,7.69.13"/>
      <path class="cls-3" d="M161.13,101.04c-5.69.02-8.62.08-10.12.02-3.01-.11-4.52.19-4.52,2.46s-1.81,14.53,1.21,14.57c3.01.05,39.35-.25,39.35-.25,0,0,11.91-.3,15.98,0,4.07.3,6.33.9,6.18-2.26-.15-3.16.81-14.77-1-14.92"/>
      <path class="cls-3" d="M203.47,105.63s-5.43.3-6.93,0"/>
      <path class="cls-3" d="M190.8,101.14v15.96"/>
      <path class="cls-3" d="M165.48,101.14v16.87"/>
      <path class="cls-3" d="M170.6,101.14v8.43"/>
      <path class="cls-3" d="M185.68,117.85v-7.09"/>
      <path class="cls-3" d="M159.15,105.36s-4.82-.12-6.63,0"/>
      <path class="cls-3" d="M154.62,110.76s5.43-.3,7.09,0"/>
      <path class="cls-3" d="M159.15,114.31s-6.63.53-7.84,0"/>
      <path class="cls-3" d="M204.37,114.42s-6.63.8-8.44,0"/>
      <path class="cls-3" d="M193.67,110.62s6.33-.32,7.69.13"/>
      <path class="cls-3" d="M153.04,118.21c-.75.34-1.13.99-1.13,2.12,0,2.26-1.81,14.53,1.21,14.57,3.02.04,39.35-.25,39.35-.25,0,0,11.91-.3,15.98,0,4.07.3,6.33.9,6.18-2.26-.15-3.16.9-14.32-.9-14.47-.59-.05-1.78-.05-4.79-.03"/>
      <path class="cls-3" d="M208.89,122.44s-5.43.3-6.93,0"/>
      <path class="cls-3" d="M196.23,117.95v15.96"/>
      <path class="cls-3" d="M170.9,117.95v16.86"/>
      <path class="cls-3" d="M176.03,117.95v8.43"/>
      <path class="cls-3" d="M191.11,134.66v-7.1"/>
      <path class="cls-3" d="M164.57,122.16s-4.82-.12-6.63,0"/>
      <path class="cls-3" d="M160.05,127.56s5.43-.3,7.09,0"/>
      <path class="cls-3" d="M164.57,131.11s-6.63.53-7.84,0"/>
      <path class="cls-3" d="M209.8,131.23s-6.63.8-8.44,0"/>
      <path class="cls-3" d="M199.09,127.43s6.33-.32,7.69.13"/>
    </g>
  </g>
</svg>