<?xml version="1.0" encoding="UTF-8"?>
<svg id="_Слой_1" data-name="Слой_1" xmlns="http://www.w3.org/2000/svg" xmlns:xlink="http://www.w3.org/1999/xlink" viewBox="0 0 434 412">
  <defs>
    <style>
      .cls-1 {
        fill: #fdae1e;
      }

      .cls-2 {
        fill: #fff;
      }

      .cls-3, .cls-4 {
        fill: none;
      }

      .cls-5 {
        fill: #c9b7ec;
      }

      .cls-4 {
        stroke: #0d1117;
        stroke-linecap: round;
        stroke-linejoin: round;
      }

      .cls-6 {
        fill: #00afb2;
      }

      .cls-7 {
        fill: #ffc328;
      }

      .cls-8 {
        fill: #0d1117;
      }

      .cls-9 {
        clip-path: url(#clippath);
      }
    </style>
    <clipPath id="clippath">
      <rect class="cls-3" y="0" width="434" height="412"/>
    </clipPath>
  </defs>
  <g class="cls-9">
    <g>
      <path class="cls-8" d="M47.33,199.2l13.49,27.18-4.14,58.04-12.95-.17-9.58-.69s.11,0-4.67-8.39c-6.34-11.13-20.18-14.92-21.05-24.58-.88-9.65,5.56-13.46,10.82-22.64,5.27-9.18-2.63-17.44-12.28-22.99-9.65-5.56-6.14-15.8-3.51-24.31,2.63-8.52,3.51-15.77,3.51-15.77,0,0,12.28-.59,25.15,9.36s15.22,24.95,15.22,24.95h0Z"/>
      <path class="cls-7" d="M284,382.28c-.34-1.22-.79-2.41-1.36-3.54-3.14-6.2-15.79-10.65-15.79-10.65l-14.51,2.83-15.89-14.22s-.24-1.03-6.57-3.14-5.28,1.05-6.94,2.86c-1.66,1.8-5.28-2.56-7.2-2.11-1.92.45-5.93,6.23-5.93,6.23-14.23,2.96-35.16,8.31-40.91,17.89-7.8,13.02,8.09,23.14,21.97,23.14,10.92,0,27.55-8.05,38.1-13.46,0,0,5.27,4.64,14.76,9.61,9.5,4.97,25.32,7.69,34.51.76,3.37-2.54,5.11-5.37,5.86-8.13l-.13-8.08h.02Z"/>
      <path class="cls-8" d="M271.53,135.43s9.91-15.54-1.02-30.94c-10.93-15.4-22.32-10.71-22.32-10.71,0,0-.22-4.91-7.36-9.15-7.14-4.24-13.83-2.23-9.59,5.58,0,0-10.48-12.83-20.3-7.75-9.81,5.07-6.25,22.48,4.46,30.74,10.71,8.26,29.9,10.04,37.03,10.04h11.16l1.51,13.24"/>
      <path class="cls-8" d="M202.69,135.96s-5.57-17.51,4.12-34.49l6.25,9.67s-2.03,2.23-3.92,9.77c-1.89,7.54-1.44,14.33-1.44,14.33l-5.02.72h0ZM210.16,150.45s.95,7.75,1.9,12.62c.95,4.88,4.72,9.52,8.08,11.12,3.36,1.6,8.79,2.88,16.54,2.96,7.75.09,14.3-.72,18.39-2.48,4.08-1.76,7.28-5.35,8.47-9.76,1.2-4.4.66-14.46.66-14.46,0,0-1.22,9.12-7.43,12.48-7.44,4.02-13.63,5.11-13.63,5.11,0,0-.49-3.11-4.41-3.26-3.92-.15-4.63,3.26-4.63,3.26,0,0-10.66-1.59-16.7-6.64,0,0-5.49-5.28-7.26-10.95h0s0,0,0,0ZM174.87,313.45s-9.83-5.62-17.97-21.35c-8.14-15.73-2.81-35.97,6.74-61.25,9.55-25.28,17.41-35.4,33.15-42.43,15.74-7.02,30.34-6.18,30.34-6.18,0,0-2.5,4.14,1.57,8.27s11.74,2.98,11.74,2.98c0,0,8.08-1.21,9.92-2.75,1.85-1.54,2.75-1.65,3.17-4.07.43-2.42-.52-4.47-.52-4.47,0,0,10.35,1.16,21.3,4.25s19.94,10.39,24.43,18.54c4.49,8.15,20.22,48.33,22.47,57.6,2.25,9.27,3.65,16.01-2.53,31.75-6.18,15.74-19.94,22.47-19.94,22.47l-.03-18.29-.03-32.28.79-9.67s1.36-3.88-.98-5.26c-2.34-1.38-4.61-1.89-9.71-1.8-5.1.09-42.92,1.8-42.92,1.8l-49.46,1.78-8.19-.03-9.4-.08s-5.68-.52-5.45,5.7c.22,6.22,1.39,37.74,1.39,37.74l.14,17.01h0ZM223.49,354.63l-6.33-6.73s-1.33-2.32-3.96-1.27c-2.64,1.05-4.83,3.86-4.83,3.86l-5.71,11.54,7.64-1.68s2.88-6.1,4.97-6.15c2.09-.05,4.39,2.08,4.39,2.08l2.45.43,1.38-2.08h0s0,0,0,0ZM231.74,360.04s.26,2.55,1.74,2.06c1.47-.49,4.04-1.59,4.04-1.59,0,0,1.89.08,3.53,2.96,1.64,2.88,2.81,6.72,2.81,6.72v1.58l-2.06,1.92v1.97l1.02,1.05,9.04-2.91-.03-2.87-1.76-8.37-3.69-7.27-2.95-2.58-1.64-.26-10.07,7.59h.02Z"/>
      <path class="cls-1" d="M387.83,377.48c10.34-10.6,7.94-29.33-6.51-35.85-3.09-1.4-6.66-2.37-10.73-2.77-25.31-2.49-37.48,6.43-37.48,6.43l.71,1.78c-4.92-6.52-12.87-10.06-15.11-10.07-2.2,0-3.09,6.8-3.09,6.8,0,0-7.59,2.83-11.92,6.08,0,0-5.91-4.55-8.19-2.78-1.46,1.14-3.13,14.53.71,23.99-1.34.37-2.24.67-2.24.67l2.34-.42c.27.65.57,1.27.89,1.87.38.69.83,1.35,1.36,1.98l-.18.13s-6.18,2.28-11.21,4.81c-5.02,2.52-8.56,5.57-6.8,7.06h0c-.18.33-.27.66-.2.99.45,1.95,2.77.85,2.77.85l.13-.34h.02c-.06.12-.11.23-.14.34-.65,1.98,2.43,1.8,7.19.24-1.99,1.82-2.85,3.46-1.68,4.29h0c-.15.34-.21.68-.11,1,.61,1.91,2.83.62,2.83.62l.14-.47.04.02c-.08.15-.13.3-.17.46-.76,3.14,7.03.37,15.9-4.81,4.52-2.64,11.71-5.94,17.69-8.55,0,0,11.04,4.66,24.41,3.74l10.93-1.84s-17.7,7.92-15.6,12.51c0,.06.02.08.07.06,0,0,.02.02.03.02l.03-.05c-.17.37-.23.71-.13,1.05.61,1.91,2.83.62,2.83.62-.76,3.14,7.03.37,15.9-4.81,5.55-3.23,14.31-8.56,20.11-12.11,0,0,8.5,12-20.1,19.29-10.14,2.58-12.8,3.92-11.88,7s13.92,8.85,31.95-3.29c16.03-10.8,4.53-26.59,4.53-26.59l-.08.06h.03s0,0,0,0Z"/>
      <path class="cls-5" d="M289.11,3.45c-1.47-2.17-3.22-3.85-12.09-2.17-8.88,1.68-39.08,5.24-41.26,6.57-.57.35-1.23.74-1.84,1.28,0,0-.06.05-.16.14-.07.06-.14.13-.21.2-1.04.98-4.08,3.82-5.9,5.31-2.24,1.82-2.87,5.18-2.17,8.46.15.72.37,1.75.65,2.96-1.01.8-2.2,1.64-3.51,2.36-3.6,1.96-9.02,5.09-8.91,11.89v.04c0,.23.04.49.05.72.12,1.7.38,5.88.33,8.4-.07,3.22-.35,6.09,6.5,11.19,6.85,5.11,15.94,3.85,24.75,1.26,8.81-2.59,19.15-6.15,25.1-6.37,5.95-.21,10.14-3.29,12.17-7.83,2.03-4.55,5.04-15.81,5.04-15.81,1.61-2.38,5.45-5.73,5.67-9.79.42-4.13-2.72-16.64-4.2-18.81l-.02-.02h0ZM281.13,40.58c-2.01,2.15-5.07,4.12-6.98,4.83-1.91.71-9.1,1.6-9.1,1.6l-8.08,1.8-17.96,4.49s-6.19,1.7-12.37.2c-6.19-1.5-9.57-4.39-9.57-4.39l-2.15-3.7s2.05-3.09,5.54-5.68c3.49-2.6,7.74-5.77,7.74-5.77,0,0,1.02,6.15,5.73,6.56,4.7.41,11.68-1.39,11.68-1.39l18.35-3.09,16.86-1.6,2.8-.3s-.48,4.3-2.49,6.44v.02ZM140.21,282.98s-.88,7.09-5.85,6.2c-4.96-.89,0-9.05,0-9.05h-6.56s-4.08,4.79-4.25,11c-.18,6.2,6.56,5.86,6.56,5.86,0,0-1.35,15.71-15.21,23.47-.28-1.62-1.34-3.73-4.69-4.86.6-3.16-1.23-4.49-2.82-5.06h.02s12.61-29.15,3.07-34.83c-9.54-5.68-18.65-2.83-21.85-2.31-3.19.53-7.27,2.13-7.98,10.11-.71,7.98,1.6,27.32,1.6,27.32-3.55,1.06-2.64,3.98-2.64,3.98-1.58.48-3.03,1.28-3.92,2.59-1.43,2.1-2.42,5.88-3.08,9.9l.03-.24s-13.09-.98-13.62-8.43c-.53-7.45,2.31-11.53,2.31-11.53,0,0,4.25-.71,6.2-5.68,1.95-4.96,2.31-7.63,2.31-7.63l-4.7-.89s-2.35,7.27-6.19,6.2-.65-6.2-.65-6.2h-4.61s-3.19,7.27-1.24,10.29c1.95,3.01,4.61,2.31,4.61,2.31,0,0-5.89,5.09-6.85,13.65-.15,1.36-.17,2.73-.07,4.1.44,5.52,3.48,8.81,7.55,10.65,4.03,1.81,9.07,2.21,13.62,1.95,0,0,.19,1.21.11,3.73-.11,3.58-.41,9.02.72,13.48,0,0,0,.03.03.1.22.85.7,1.78,1.26,2.67l-.32.03c-15.87,5.64-13.21,30.01-13.21,30.01l.29.26c-6.15,1.46-9.16,8.44-9.16,8.44h17.73s1.42-5.59-2.45-7.81c.14-3.05.5-8.97,1.39-14.39,1.27-7.7,6.61-11.44,6.64-11.46l1.1,1.22c1.1,1.06,2.98,2.53,5.55,3.17,4.25,1.06,19.33,1.42,25,0,5.68-1.42,4.32-5.15,4.32-5.15,1.26-.66,2.4-1.58,3.31-2.83,0,0,5.27-5.96,10.4-2.77,1.97,1.23,3.73,3.11,3.18,8.66-.39,3.92-3.52,8.84-6.19,16.56l.2-.09c-.08.08-.18.16-.26.26.02-.04.05-.11.07-.16-.15.15-.32.31-.47.45v.1c-1.06,1.2-1.96,2.53-2.66,3.97l17.79-2.48s.65-4.96-2.88-5.86c-1-.25-2.29-.34-3.72-.16l.2-.09s1.92-4.71,5.11-12.49c2.97-7.24.72-16.05-5.74-17.55-.5-.12-1.02-.19-1.53-.21-7.62-.36-11.18,4.79-11.18,4.79l-.52,1.61c.91-5.95.35-13.7.35-13.7l-.46-7.95s8.79-3.73,14.82-11.36c6.03-7.63,5.68-21.82,5.68-21.82,0,0,4.96.18,7.8-3.01,2.83-3.19,3.19-10.82,3.19-10.82l-6.56-.18v-.02h0Z"/>
      <path class="cls-8" d="M140.21,282.98s-.88,7.09-5.85,6.2c-4.96-.89,0-9.05,0-9.05h-6.56s-4.08,4.79-4.25,11c-.11,3.8,2.37,5.13,4.31,5.6,3.04-.37,6.17-.28,9.17.18h.02c1.66-.16,4.6-.77,6.54-2.95,2.83-3.19,3.19-10.82,3.19-10.82l-6.56-.18v.02h0ZM66.31,386.74v-.03c-2.06-.19-4.12-.37-6.18-.64l.05.04c-6.14,1.46-9.16,8.44-9.16,8.44h17.73s1.42-5.59-2.45-7.81ZM132.77,375.92c-.99-.25-2.29-.34-3.72-.16l.2-.09s.09-.21.25-.6c-2.01,1.18-3.95,1.63-5.98,2.77-.95.54-1.95,1.93-2.97,2.4v.06c-.97,1.08-1.88,2.39-2.67,3.97l17.78-2.49s.65-4.96-2.88-5.86h0ZM57.05,305.51s-.28.26-.72.71c1.63.26,3.17.77,4.67,1.4.19-.33.31-.52.31-.52,0,0,4.25-.71,6.2-5.68,1.95-4.96,2.31-7.63,2.31-7.63l-4.7-.89s-2.35,7.27-6.19,6.21-.65-6.21-.65-6.21h-4.61s-3.19,7.27-1.24,10.29c1.95,3.01,4.61,2.31,4.61,2.31h0ZM229.12,23.65l1.61,3.67.52,2.16s-2.23,5.34-5.61,7.13c-3.38,1.79-6.67,3.68-6.67,3.68l-4.05,5.13s-2.6-7.97.61-11.22c3.22-3.25,7.07-5.64,7.07-5.64l6.51-4.9h0s0,0,0,0Z"/>
      <path class="cls-8" d="M283.58,34.42c-.14.98-.75,4.34-2.45,6.15-2.01,2.15-5.07,4.12-6.98,4.83-1.91.71-9.1,1.6-9.1,1.6l-8.08,1.8-17.96,4.49s-6.19,1.7-12.37.2c-6.19-1.5-9.57-4.39-9.57-4.39l-2.15-3.7s2.05-3.09,5.54-5.68c2.51-1.86,5.01-3.73,7.51-5.6-.19-2.64-1.51-5.07-2.28-7.59-.97.75-2,1.42-3.07,2.02-3.6,1.96-9.02,5.09-8.91,11.89v.04c0,.23.04.49.05.72.12,1.7.38,5.88.33,8.4-.07,3.22-.35,6.09,6.5,11.19,6.85,5.11,15.94,3.85,24.75,1.26,8.81-2.59,19.16-6.15,25.1-6.37,5.95-.21,10.14-3.29,12.17-7.83,1.78-3.99,4.31-13.16,4.91-15.34-1.4.43-2.69,1.1-3.92,1.9h-.02s0,0,0,0ZM164.51,34.54s-2.9-2.09-8.61-1.87c-5.71.23-10.71,6.97-12.46,13.32-1.74,6.35-.28,13.53,3.74,17.76,4.02,4.22,9.44,5.7,9.44,5.7,0,0-6.5-5.46-6.15-14.9.35-9.44,3.57-13.57,6.87-15.88,3.3-2.31,7.16-4.15,7.16-4.15h0s0,0,0,0ZM168.67,35.88s5.97,4.29,9.57,1.88c3.6-2.41,2.95-4.29,1.34-6.1-1.61-1.81-4.21-3.54-4.21-3.54l-2.11-.81s3.36,2.83.4,6.3c-2.96,3.47-5,2.26-5,2.26h0s0,0,0,0ZM179.95,48.39l.43,5.06-1.51,13.48-3.91,7.5-4.27,3.22-4.82,1.42h-5.36l-8.82-1.82,1.56,1.45,8.6,2.56s7.05,2.38,12.93,1.4c5.87-.98,8.5-5.25,8.5-5.25l3.4-7.41,1.22-11.73-.06-4.2-1.21-2.22-1.7-.95-4.96-2.53h0s0,0,0,0ZM292.95,151.77l.32,12.57,8.17,6.28,20.26-16.5,18.91,14.53,22.98-26.91,13.17,13.55,20.92-36.59,9.52,8.3,2.36-27.31-4.84-11.66-1.45,25.8-7.46-4.72-19.84,33.6-12.76-9.82-22.58,25.93-18.91-14.14-20.26,16.5-8.49-9.42h0Z"/>
      <path class="cls-8" d="M381.67,99.11v9.04l2.83,2.49,4.63-5.64-7.46-5.9h0ZM329.3,87.21l7.54,14.03,12.62-6.58-7.36-13.39,7.79-5.11-21.51-6.66-5.97,22.18,6.9-4.47h0ZM331.96,205.02s-2.08,7.86,3.45,13.54c5.53,5.68,9.95,5.89,9.95,5.89,0,0,8.03,2.51,7.8,5.52-.23,3.01-1.35,7.18-1.35,7.18,0,0,4.03-1.28,5.5-3.59,1.46-2.32,0-6.84,0-6.84,0,0-.99-5.04-6.08-6.21s-9.75-1.8-13.73-5.29c-3.97-3.49-5.57-10.21-5.57-10.21h0ZM334.28,188.14l3.1,6.35-2.42,3.14-2.27-5.21,1.6-4.28ZM340.42,204.21s4.19-.83,6.52,1.21c2.33,2.03,2.06,2.76,2.06,2.76l6.21-1.36,1.79-6.57-5.17,1.63s-2.88-3.05-6.61-2.88c-3.73.17-5.14,3.06-4.8,5.22h0ZM365.78,231.13s-1.2,4.65-3.62,7.31c-2.42,2.66-1.92,2.21-2.42,2.66-.51.45,1.34,3.86,1.34,3.86l3.57-5.41,1.13-4.54v-3.88ZM362.6,249.25l-1.89,6.5-6.7.82-3.82-6.68h-4.34l-5.49-1.57-4.48-4.78,1.48-6.79s4.28,6.18,7.66,8.21c3.38,2.03,8.42,0,8.42,0l2.95,5.96,6.2-1.68h0s0,0,0,0ZM422.08,192.21c.96,1.25.27,2.38.27,2.38,0,0-1.23,3.75-3.39,5.4-2.16,1.65-4.23-.26-6.03.36-1.8.62-8.3,16.99-10.14,20.75-1.84,3.76-2.5,3.58-7.11,1.03-2.45-1.35-3.92-2.2-4.56-2.95,0,0,3.17,6.04,3.37,6.31.58.78,2.08,1.64,4.68,3.08,4.61,2.55,5.28,2.73,7.11-1.03,1.84-3.76,8.33-20.13,10.14-20.75,1.8-.62,3.87,1.29,6.03-.36,2.16-1.65,3.39-5.4,3.39-5.4,0,0,.17-.56.21-1.36.17-3.32-3.42-7.24-3.96-7.45h0s0,0,0,0ZM433.06,181.36c-.57-2.25-2.33-5.53-4.06-7.52,1.2,1.54.72,3.24-.39,5.75-1.54,3.46-3.53,3.53-6.2,1.93-2.67-1.6-5.38-.07-6.42,3.92-1.04,3.94.31,3.63,3.89,5.22,1.24-3.07,3.64-4.13,6.02-2.7,2.67,1.61,5.19,1.74,6.73-1.71.86-1.94,1-2.66.43-4.9h0Z"/>
      <path class="cls-7" d="M351.39,201.87s-3.39-4.14-8.12-2.51c-4.72,1.63-3.39,10.48,2.51,12.55,5.9,2.07,13.73,3.98,16.82,9.15,3.1,5.17,3.39,10.19,1.62,14.02-1.77,3.83-5.02,6.49-5.02,6.49l3.39,7.68-6.2,2.07-2.95-6.35s-6.49,2.8-11.51-2.07c-5.02-4.87-4.72-6.35-4.72-6.35l8.85-3.4s.89,5.31,6.49,3.69c5.61-1.62,5.9-5.17,5.02-9.15-.89-3.98-3.54-6.79-9-7.82-5.46-1.03-13.43-3.69-15.5-11.52s4.28-13.88,4.28-13.88l-3.1-6.35,5.91-3.25,3.1,6.05s5.91-.88,9.89,3.7c3.98,4.58,3.84,5.61,3.84,5.61l-5.61,1.63h0ZM47.9,284.25s-17.26-22.53-11.99-33.35c5.27-10.83,17.55-4.97,19.3-12.28,1.75-7.31-6.14-13.75-12.58-21.06-6.43-7.31-3.22-12.58,8.19-21.06,11.4-8.48,14.92-11.99,8.49-17.26-6.43-5.27-19.3-11.99-8.49-22.52,10.82-10.53,17.26-12.58,22.52-19.02,5.27-6.44,11.4-9.36,15.21-4.97,3.8,4.39,3.8,19.31,4.97,24.28,1.17,4.97,18.13,9.36,18.71,20.77.59,11.41-3.8,13.75-12.28,20.48-8.48,6.73-16.37,15.21-4.68,16.97,11.7,1.75,21.35,8.19,11.11,17.26-10.24,9.07-17.84,6.15-20.18,12.28-2.34,6.14,10.82,8.78,9.94,18.43-.29,3.2-1.12,6.33-3.4,9.43,0,0-6.07-.59-8.82,2.83-2.76,3.41-3.43,8.8-3.43,8.8h-32.6.02,0Z"/>
      <path class="cls-6" d="M292.95,151.77l8.49,9.42,20.26-16.5,18.32,14.14,23.17-25.93,12.76,9.82,19.84-33.6,7.46,4.72.99-26.92-22.58,12.18,7.46,5.9-17.09,20.82-10.81-8.44-24.74,26.71-16.11-13.55-27.43,21.22h0Z"/>
      <path class="cls-1" d="M404.15,266.04s11.77,3.52,12.04,16.64c0,0-.94-15.56,10.28-16.64,0,0-10.82-5.41-11.16-16.23,0,0-1.29,14.07-11.16,16.23h0Z"/>
      <path class="cls-6" d="M129.21,224.68s5.24-.22,7.15-4.71c1.91-4.49,2.2-7.64,2.2-7.64,0,0,.19,9.41,7.44,12.34,0,0-7.62,2.69-6.96,11.43,0,0-.76-10.25-9.82-11.43h0s0,0,0,0Z"/>
      <path class="cls-8" d="M79.49,328.21l-1.34,16.32h14.47l.98-16.32h-14.11Z"/>
      <path class="cls-2" d="M85.17,335.91s-.49-3.39-2.19-3.17c-1.7.21-1.2,4.38,2.19,7.07,0,0,5.79-6.28,2.62-7.08-1.91-.48-2.62,3.19-2.62,3.19h0Z"/>
      <path class="cls-6" d="M122.7,95.82c-1.26-3.18-9.28-22.11-11.42-27.05-2.14-4.95-4.35-10.83-4.35-10.83,0,0-.57-3.39-3.55-2.03-.3.14-1.16.52-2.46,1.1l-4.35-7.87s-1.07-2.89-4.76-1.15c-3.69,1.74-45.74,24.41-45.74,24.41,0,0-6.4,3.51-11.16,5.95-4.76,2.43-8.28,2.96-6.93,6.5,1.35,3.53,5.41,9.71,8.54,16.37,3.13,6.66,4.74,9.74,4.74,9.74,0,0,1.35,4.37,5.08,1.85l.43-.45c2.21,5.9,3.95,10.49,3.95,10.49,0,0,1.15,1.32,4.81-.26,3.66-1.57,56.86-20.11,56.86-20.11l7-2.81s4.55-.65,3.29-3.82h0ZM41.66,105.42c-1.68-3.6-4.87-10.77-6.99-14.62l-2.12-3.86s2.23-3.54,1.76-5.31c0,0,28.22-14.68,35.9-18.77,7.68-4.09,19.53-8.97,19.53-8.97,0,0,.41.83,2.88,1.01,2.47.18,3.24-.75,3.24-.75l1.98,4.21s-50.27,22.34-55.88,24.7c-5.61,2.36-4.05,4.08-4.05,4.08l7.01,20.24s-1.61,1.64-3.28-1.96h.02,0ZM114.68,94.33c-.88,2.24-.7,4.2-.7,4.2,0,0-18.12,7.76-32.59,12.44-14.47,4.68-21.57,7.13-21.57,7.13,0,0-2.03-4.34-5.26-4.43-3.23-.08-4.33.78-4.33.78l-6.77-22.51s4.69-1.29,5.4-3.55c.72-2.27-.61-4.3-.61-4.3l51.39-21.49s-.6,3.29,2.79,4.25c3.39.95,4.61-.54,4.61-.54l10.03,24.93s-1.51.85-2.39,3.09c0,0,0,0,0,0Z"/>
      <path class="cls-6" d="M84.42,78.54c-1.74-1.65-5.91-4.71-11.38-2.38-7.27,3.1-8.47,10.49-4.85,19.34,3.62,8.85,9.79,12.94,16.06,11.27,6.26-1.67,8.2-13.66,5.61-20.35-1.68-4.35-4.95-7.42-5.44-7.88ZM77.57,67.33s-5.31-3.05-12,.24c-6.68,3.29-6.57,7.97-6.57,7.97"/>
      <path class="cls-8" d="M248.97,135.42s-10,.57-9.54-4.33c.36-3.79,7.47-4.64,12.11-4.37,4.64.27,7.32,2.44,6.88,5.22-.6,3.83-9.45,3.48-9.45,3.48h0ZM223.26,135.42s-10,.57-9.54-4.33c.36-3.79,7.47-4.64,12.11-4.37,4.64.27,7.32,2.44,6.88,5.22-.6,3.83-9.45,3.48-9.45,3.48h0Z"/>
      <path class="cls-1" d="M247.49,278.06c-10.76-6.83-10.9-6.83-21.66,0-1.7.98-2.74,2.79-2.74,4.75.43,3.54-1.59,12.19,2.74,14.09,10.76,6.83,10.9,6.83,21.66,0,1.7-.98,2.74-2.79,2.74-4.75-.43-3.54,1.59-12.19-2.74-14.09ZM238.38,297.39c-1.85-.45-3.57-1.38-4.12-3.19-.68-1.58.58-4.33-1.05-5.42-1.14.12-.57-1.78-.7-2.44,1.18,0,1.52-.9,1.54-1.99.02-1.58-.23-3.65.94-4.92.84-.97,2.02-1.51,3.39-1.85l.71,1.78c-3.2,1.59.38,6.98-3.74,8.12,4.11,1.14.54,6.54,3.74,8.12l-.71,1.8h0Z"/>
      <path class="cls-4" d="M237.53,360.51c-2.32.58-4.92,3.34-5.79-.07s-1.74-4.27-10.7-2.25c-8.96,2.03-44.81,7.23-52.62,20.24-7.81,13.02,8.09,23.14,21.97,23.14s37.01-13.02,45.1-17.07c8.09-4.05,10.12-5.5,8.38-6.94-1.74-1.44-4.05-2.89-.87-4.92,3.18-2.03-3.18-12.73-5.5-12.15h.02ZM211.8,370.93l3.47,11.57"/>
      <path class="cls-4" d="M178.55,376.71s-6.07,11.57,9.25,18.22M242.39,376.31l7.2-1.79s2.56-.11,2.26-3.59c-.3-3.48-1.75-10.43-4.72-14.64-2.97-4.22-5.08-4.67-7.49-2.72-2.41,1.96-7.9,6.88-7.9,6.88"/>
      <path class="cls-4" d="M209.33,360.55s4.01-5.78,5.93-6.23,5.54,3.92,7.2,2.11c1.66-1.8.6-4.97,6.93-2.86,6.33,2.11,6.57,3.14,6.57,3.14M283.63,390.36c-.76,2.76-2.49,5.59-5.86,8.13-9.19,6.94-25.02,4.22-34.51-.76-9.5-4.97-14.76-9.61-14.76-9.61M266.36,368.09s12.65,4.45,15.79,10.65c.45.89.97,2.11,1.36,3.54"/>
      <path class="cls-4" d="M222.65,354.01s-4.71-5.12-6.06-6.78c-1.35-1.66-4.56-1.81-7.25,1.81s-6.68,12.99-6.68,12.99M174.25,316.65s-20.42-15.48-27.03-19.6M135.65,353.35c12.09,7.22,28.69,13.56,44.73,15.89M115.76,334.59c1.83,2.67,3.42,4.75,5.27,7.04,1.03,1.27,2.27,2.56,3.71,3.86M124.38,286.51c-3.71.36-7.39,1.38-10.82,3.57M138.5,287.46c-1.48-.32-2.98-.56-4.49-.73-.62-.07-1.24-.13-1.86-.18M157.13,293.33s-5.16-2.11-11.34-3.98M197.96,334.19s11.35,5.58,13.27,12.45M254.72,350.89c-.05-1.48.41-3.48,2.48-5.55,4.13-4.13,14.24-11.14,14.24-11.14M350.01,339.16c9.99-8.21,16.8-16.29,21.07-25.61,7.01-15.27,3.71-29.11-10.11-31.37-13.82-2.27-43.94,16.1-43.94,16.1M274.21,371.72c5.51-.79,12.51-1.99,19.94-3.77"/>
      <path class="cls-4" d="M200.46,362.56s-4.3-.97-4.04-6.41c.26-5.44,4.11-13.95,6.55-13.24s8.35,4.16,8.35,4.16M245.74,354.51l16.35-6.78s8.65-3.59,11.13-.62,11.38,14.48,5.69,17.26c-5.69,2.78-27.07,6.55-27.07,6.55M192.83,253.16c-11.96,0-19.7-2.21-19.48,5.53.22,7.75,1.99,49.15,1.77,54.91s-2.65,10.18,4.87,9.52c7.52-.66,48.69-.22,61.09-.89s42.5-.22,47.81,0c5.31.22,9.73.66,9.73-5.53s.22-34.1,0-46.94c-.22-12.84,3.98-19.26-4.2-20.15-8.19-.88-89.64,3.54-101.6,3.54h0ZM291.77,269.33v11.73M291.77,284.82v2.66"/>
      <path class="cls-4" d="M177.75,323.16s-3.39-.19-3.5,2.12c-.11,2.31-1.11,8.95,2.96,8.92,4.07-.02,30.02-.57,38.23-.46,8.21.11,41.7.48,47.08.46,5.39-.02,26.13-.2,29.87,0,3.73.2,7,.31,7.12-3.54.12-3.85,1.71-8.73-4.46-8.57M47.9,284.25s-17.26-22.53-11.99-33.35c5.27-10.83,17.55-4.97,19.3-12.28,1.75-7.31-6.14-13.75-12.58-21.06-6.43-7.31-3.22-12.58,8.19-21.06,11.4-8.48,14.92-11.99,8.48-17.26-6.43-5.27-19.3-11.99-8.48-22.52,10.81-10.53,17.26-12.58,22.52-19.02,5.27-6.44,11.4-9.36,15.21-4.97,3.8,4.39,3.8,19.31,4.97,24.28,1.17,4.97,18.13,9.36,18.71,20.77.59,11.41-3.8,13.75-12.28,20.48-8.48,6.73-16.37,15.21-4.68,16.97,11.7,1.75,21.35,8.19,11.11,17.26-10.24,9.07-17.84,6.15-20.18,12.28-2.34,6.14,10.82,8.78,9.94,18.43-.29,3.2-1.12,6.33-3.4,9.43"/>
      <path class="cls-4" d="M66.61,280.16s2.93-16.09,5.27-38.91,9.65-96.24,9.65-96.24M90.59,164.9l-12.62,15.76M72.17,156.41l6.27,19.53M63.98,172.78l11.73,30.44"/>
      <path class="cls-4" d="M92.93,185.37s-15.68,21.08-18.36,29.26M59.3,204.97s13.77,24.58,13.17,30.42M90.59,217.56s-17.84,15.18-18.42,20.83M86.21,254.99s-15.17,16.63-19.14,22.51M56.67,245.93l11.16,26.87M79.98,284.12c-12.17.31-37.38.63-44.5-.34-8.48-1.17-10.32,2.83-10.45,6.92-.38,12.18-1.26,37.07-2.14,42.11-1.16,6.73,1.46,11.41,9.06,10.83,7.6-.58,24.65-.2,35.72.05,1.2.02,2.41.07,3.61.14"/>
      <path class="cls-4" d="M47.33,199.2s-2.36-15.01-15.22-24.95c-12.87-9.94-25.15-9.36-25.15-9.36,0,0-.88,7.24-3.51,15.76-2.63,8.52-6.14,18.75,3.51,24.31,9.65,5.56,17.55,13.82,12.28,22.99-5.27,9.18-11.7,12.99-10.82,22.64.88,9.65,14.71,13.45,21.05,24.58,4.77,8.38,4.67,8.38,4.67,8.38"/>
      <path class="cls-4" d="M14.27,175.94s25.09,51.27,25.85,69.99c0,0-10.21-11.47-17.34-14.39"/>
      <path class="cls-4" d="M27.2,177.48s1.2,19.54-3.23,19.57c-4.43.03-11.16-8.76-15.55-9.04M19.83,209.07l12.1,7.34M34.91,200s-1.74,8.48-4.47,12.57M47.33,222.65s-3,11.87-7.21,20.05M21.65,254.23l13.9,6.41M253,182.2s10.35,1.16,21.3,4.25,19.94,10.39,24.43,18.54c4.49,8.15,20.22,48.33,22.46,57.6,2.25,9.27,3.65,16.01-2.53,31.75-6.18,15.74-19.94,22.47-19.94,22.47M174.87,313.45s-9.83-5.62-17.97-21.35c-8.14-15.73-2.81-35.96,6.74-61.25,9.55-25.28,17.41-35.4,33.15-42.43,15.74-7.02,30.34-6.18,30.34-6.18M297.23,373.22c3.82,7.07,16.4,11.78,29.04,4.17,13.31-8.02,13.85-15.95,10.5-25.03-3.64-9.87-15.26-15.34-18.04-15.34-2.2,0-3.09,6.8-3.09,6.8,0,0-7.59,2.83-11.92,6.08,0,0-5.91-4.55-8.19-2.78-1.58,1.23-3.4,16.68,1.7,26.11h0ZM335.24,377.42s-19.23,7.77-28.11,12.95c-8.88,5.18-16.66,7.95-15.9,4.81.51-2.12,4.95-4.64,4.95-4.64"/>
      <path class="cls-4" d="M292.76,389.72s-4.98,2.93-4.36,4.84c.61,1.92,2.83.62,2.83.62"/>
      <path class="cls-4" d="M305.85,380.06s-6.36,2.97-11.16,5.91c-4.8,2.93-8.07,6.26-6.2,7.59M348.92,392.48s-4.98,2.93-4.37,4.84c.61,1.92,2.83.62,2.83.62"/>
      <path class="cls-4" d="M344.66,396.32c-1.87-1.34,1.4-4.67,6.2-7.59,4.8-2.93,11.17-5.91,11.17-5.91,0,0-13.9-10.23-8.22-22.53s16.79-10.05,16.79-10.05M290.17,389.27c-4.76,1.56-7.85,1.74-7.19-.24.65-1.98,5.31-4.21,5.31-4.21"/>
      <path class="cls-4" d="M284.96,383.72s-5.2,2.51-4.75,4.46c.45,1.95,2.77.85,2.77.85"/>
      <path class="cls-4" d="M298.41,375.34s-6.18,2.28-11.21,4.81c-5.02,2.52-8.56,5.57-6.8,7.06M333.11,345.3s12.17-8.91,37.48-6.43c4.07.4,7.65,1.37,10.73,2.77,16.24,7.33,17.27,30.09,2.08,39.39-5.8,3.54-14.56,8.87-20.11,12.11-8.88,5.17-16.66,7.95-15.9,4.81.51-2.12,4.94-4.64,4.94-4.64"/>
      <path class="cls-4" d="M324.82,381.81s18.89,7.98,37.2,1M387.91,377.42s11.51,15.79-4.53,26.59c-18.04,12.16-31.04,6.37-31.95,3.3-.92-3.07,1.74-4.42,11.88-7,28.6-7.29,20.1-19.29,20.1-19.29M317.11,370.89s4.36-1.68,3.8-7.16"/>
      <path class="cls-4" d="M325.95,365.63s-2.7,1.34-4.99-.97M320.24,354.22s2.13,3.24,4.7,2.35c2.57-.89,1.57-4.25,1.57-4.25M313.42,356.73s.11,4.2-2.57,5.77c-2.68,1.57-4.92-1.46-4.92-1.46M294,371.77s7.13-2.4,11.11-2.02M307.05,372.3s-7.51,4.67-8.52,6.19M331.27,362.95s7.72-3.2,11.18-3.11M341.11,352.32s-5.15,2.35-8.83,5.59M318.76,363.53s1.09.47,2.2-.19c1.11-.65,1.53-2.26,1.53-2.26,0,0,.48-.99-1.53-.28-2.01.71-4.04,2.03-2.2,2.74h0ZM351.39,201.87s-3.4-4.14-8.12-2.51c-4.72,1.63-3.39,10.48,2.51,12.55,5.9,2.07,13.73,3.98,16.82,9.15,3.1,5.17,3.4,10.19,1.63,14.02-1.77,3.83-5.02,6.49-5.02,6.49l3.39,7.68-6.2,2.07-2.95-6.35s-6.49,2.8-11.51-2.07c-5.02-4.87-4.72-6.35-4.72-6.35l8.85-3.4s.89,5.31,6.49,3.69c5.61-1.62,5.91-5.17,5.02-9.15-.89-3.98-3.54-6.79-9-7.82-5.46-1.03-13.43-3.69-15.5-11.52s4.28-13.88,4.28-13.88l-3.1-6.35,5.91-3.25,3.1,6.05s5.91-.88,9.89,3.7c3.98,4.58,3.84,5.61,3.84,5.61l-5.61,1.63h0s0,0,0,0Z"/>
      <path class="cls-4" d="M332.75,203.87s-2.26,7.56.88,12.38,8.08,7.21,11.73,8.2c3.66.99,8.42,2.85,8.14,6.91-.29,4.07-2.54,5.79-2.54,5.79M334.28,188.14l-1.6,4.28,2.27,5.21M357,200.24l-2.34,6.25-5.66,1.69s-1.15-4.85-8.58-3.97M351.39,201.87l-2.39,6.3M337.22,236.56l-1.34,7.47s2.36,3.95,6.84,5.35c4.48,1.4,7.46.52,7.46.52l3.82,6.68s2.55-.06,4.48-.47c1.92-.41,2.03-.82,2.03-.82l2.08-6.05M356.41,251.32l-2.39,5.26M353.46,244.97l-3.26,4.93M365.13,227.7s3.44,10.42-4.42,17.26M341.36,238.44l1.97-1.3M344.73,239.55l-1.11,1.11M348.21,193.93v2.85M350.2,195.62v1.68M341.36,212.35l-1.4,1.16M342.73,213.51l-.8.7M271.53,135.43s9.91-15.54-1.02-30.94c-10.93-15.4-22.32-10.71-22.32-10.71,0,0-.22-4.91-7.36-9.15-7.14-4.24-13.83-2.23-9.59,5.57,0,0-10.48-12.83-20.3-7.75-9.81,5.07-6.25,22.48,4.46,30.74,10.71,8.26,29.9,10.04,37.03,10.04h11.16l1.51,13.24M229.08,180.47s.9,6.57,9.92,6.7c9.02.13,11.34-6.7,11.34-6.7,0,0,4.64,2.45,2.71,7.35-1.93,4.9-13.19,6.66-18.68,5.29-4.9-1.23-12.37-5.29-5.29-12.63h0ZM229.08,176.62v3.86M250.35,180.47v-4.11"/>
      <path class="cls-4" d="M210.16,150.45s-.65,3.73-5.4,3.73-7.45-10.4-5.14-15.16c2.31-4.76,8.09-3.78,8.09-3.78,0,0-.54-15.76,5.35-24.1M265.09,136.46c7.82-3.71,10.94,2.04,10.94,6.15s-2.19,11.82-6.68,11.82-5.14-3.98-5.14-3.98"/>
      <path class="cls-4" d="M203.11,140.3s3.21,5.27,5.65,5.65c0,0-3.21,1.8-3.73,3.73M270.11,140.17s-2.57,4.88-5,6.42c0,0,2.7,1.54,4.11,2.95M237.41,152.84s-4.91.94-5.16-2.15c-.26-3.09,4.37-4.62,4.37-4.62v-4.49M389.33,307.3s7.17-1.49,7.98-11.64c0,0,.81,10.28,7.71,11.64,0,0-7.3,4.33-6.77,11.23,0,0-.67-9.61-8.93-11.23h0ZM14.27,136.32s6.13-1.27,6.82-9.94c0,0,.69,8.78,6.59,9.94,0,0-6.24,3.7-5.78,9.59,0,0-.58-8.21-7.62-9.59h0ZM394.07,56.25s6.13-1.27,6.82-9.94c0,0,.69,8.78,6.59,9.94,0,0-6.24,3.69-5.78,9.59,0,0-.58-8.21-7.62-9.59h0ZM120.57,249.66s5.58-1.16,6.21-9.07c0,0,.63,8.01,6.01,9.07,0,0-5.68,3.37-5.27,8.75,0,0-.53-7.48-6.95-8.75h0ZM404.15,266.04s11.77,3.52,12.04,16.64c0,0-.94-15.56,10.28-16.64,0,0-10.82-5.41-11.16-16.23,0,0-1.29,14.07-11.16,16.23h0ZM129.21,224.68s5.24-.22,7.15-4.71c1.91-4.49,2.2-7.64,2.2-7.64,0,0,.19,9.41,7.44,12.34,0,0-7.62,2.69-6.96,11.43,0,0-.76-10.25-9.82-11.43h0s0,0,0,0ZM202.69,135.96s-5.57-17.51,4.12-34.49M165.55,150.57s-8.24-6.12-9.1-11.25c-.87-5.14,2.8-12.73.14-19.52-2.66-6.78-15.27-16.92-15.27-16.92,0,0-3.33-4.71-10.26,3.29-6.93,8-21.38,23.27-21.38,23.27,0,0-7.52,5.29.77,15.18,8.29,9.89,39.16,38.87,39.16,38.87,0,0,4.45,5,7.22,2.49,3.17-2.87,15.12-14.45,15.43-22.43.31-7.99-6.7-12.97-6.7-12.97h0s0,0,0,0Z"/>
      <path class="cls-4" d="M153.34,186.65s2.17,4.13,8.36.09c4.58-2.99,16.54-14.89,22.47-20.89,2.09-2.12,6.6-5.21,1.09-10.82-6.36-6.48-27.79-27.31-27.79-27.31"/>
      <path class="cls-4" d="M156.65,133.77s11.75,10.83,18.33,17.54c6.58,6.72,9.41,7.18,4.74,11.91-4.67,4.72-16,16.07-18.92,18.92"/>
      <path class="cls-4" d="M170.9,168.51s4.86-5.31,6.5-7.08c1.64-1.77,2.32-2.15-.58-5.61-2.9-3.46-20.46-19.43-20.46-19.43M166.69,159.49s1.43,4.1-1.31,6.96M162.41,169.66l-1.51,1.65M143.29,140.2s.51-2-1.59-3.64c-2.1-1.64-4.53-.65-5.26,1.8-.73,2.45-2.1,5.28-3.64,3.76-1.54-1.51-1.73-2.35-1.73-2.35,0,0,2.34,5.09.16,6.22-2.18,1.13-7,3.8-3,7.49M137.6,160.86s2.99,4.08,5.62.8c2.63-3.28,4.71-5.24,6.17-4.76,0,0-3.41-1.14-1.48-3.45,1.93-2.31,3.13-.63,4.82-2.77s-.71-5.11-2.71-4.58M197.37,240.8l-4.91,12.27M275.36,236.75l4.53,12.75"/>
      <path class="cls-8" d="M226.42,142.78c1.25.03,2.28-.97,2.31-2.22.03-1.25-.97-2.28-2.22-2.31-.03,0-.06,0-.09,0-1.25.03-2.24,1.06-2.22,2.31.02,1.21,1,2.19,2.22,2.22ZM248.13,142.78c1.25.03,2.28-.97,2.31-2.22.03-1.25-.97-2.28-2.22-2.31-.03,0-.06,0-.09,0-1.25.03-2.24,1.06-2.22,2.31.02,1.21,1,2.19,2.22,2.22Z"/>
      <path class="cls-4" d="M258.17,132.91c.59,1.15.9,2.43.89,3.72,0,4.98-4.5,9.01-10.05,9.01s-10.05-4.04-10.05-9.01c0-1.24.28-2.43.79-3.51M232.39,132.91c.59,1.15.9,2.43.89,3.72,0,4.98-4.5,9.01-10.05,9.01s-10.05-4.04-10.05-9.01c0-1.24.28-2.43.79-3.51M292.95,151.77l8.49,9.42,20.26-16.5,18.32,14.14,23.17-25.93,12.76,9.82,19.84-33.6,7.46,4.72.99-26.92-22.58,12.18,7.46,5.9-17.09,20.82-10.81-8.44-24.74,26.71-16.11-13.55-27.43,21.22h0Z"/>
      <path class="cls-4" d="M292.95,151.77l.32,12.57,8.17,6.29,20.26-16.51,18.92,14.54,22.98-26.92,13.16,13.55,20.42-36.35,10.02,8.05s.98-8.25,1.57-16.31c.59-8.05.78-11,.78-11l-5.3-12.77"/>
      <path class="cls-4" d="M381.67,99.11v9.04l2.83,2.49M340.03,158.84l.59,9.82M321.71,154.13v-9.43M301.45,161.19v9.43M363.2,132.91l.39,8.84M403.26,113.85l3.93,13.17M397.18,118.95l-1.38-9.82M393.05,99.11v4.91M397.18,97.94l.98,3.64M348.61,138.41h3.6M350.4,134.48l2.98,1.57M304.48,147.64l2.72,1.77M301.45,150.98l3.04.79M39.55,84.13s-2.37.18-1.91,2.78c.47,2.6,13.1,35.91,13.1,35.91,0,0,1.15,1.32,4.81-.26s56.86-20.11,56.86-20.11l7-2.81s4.55-.65,3.29-3.82c-1.26-3.18-9.28-22.11-11.42-27.05-2.14-4.94-4.35-10.83-4.35-10.83,0,0-.57-3.39-3.55-2.03-2.98,1.35-63.82,28.23-63.82,28.23h-.02Z"/>
      <path class="cls-4" d="M43.44,91.93s4.69-1.29,5.4-3.55c.72-2.26-.61-4.3-.61-4.3l51.39-21.49s-.6,3.29,2.79,4.25c3.39.95,4.61-.54,4.61-.54l10.02,24.93s-1.51.85-2.39,3.09c-.88,2.24-.7,4.2-.7,4.2,0,0-18.12,7.76-32.59,12.45-14.47,4.68-21.57,7.13-21.57,7.13,0,0-2.03-4.34-5.26-4.43-3.23-.09-4.33.77-4.33.77l-6.77-22.51h0s0,0,0,0Z"/>
      <path class="cls-4" d="M84.42,78.54c-1.74-1.65-5.91-4.71-11.38-2.38-7.27,3.1-8.47,10.49-4.85,19.34,3.62,8.85,9.79,12.94,16.06,11.27,6.26-1.67,8.2-13.66,5.61-20.35-1.68-4.35-4.95-7.42-5.44-7.88Z"/>
      <path class="cls-4" d="M81.52,82.33s-9.43,2.05-9.07,5.97c.36,3.92,4.65,2.33,7.61,2.38,2.96.05,5.87,2.15,4.66,5.16-1.21,3-8.54,2.99-8.54,2.99M74.54,78.22l5.21,26.02M82.86,103.3l-4.07-24.29M100.92,57l-4.35-7.87s-1.07-2.9-4.76-1.15c-3.69,1.75-45.74,24.41-45.74,24.41,0,0-6.4,3.52-11.16,5.95-4.76,2.43-8.28,2.96-6.93,6.5,1.35,3.53,5.41,9.71,8.54,16.37,3.13,6.66,4.74,9.74,4.74,9.74,0,0,1.35,4.37,5.08,1.85"/>
      <path class="cls-4" d="M44.94,107.38s-1.61,1.64-3.28-1.96c-1.68-3.6-4.87-10.77-6.99-14.62l-2.12-3.86s2.23-3.54,1.76-5.31c0,0,28.22-14.68,35.9-18.77,7.68-4.09,19.53-8.97,19.53-8.97,0,0,.41.83,2.88,1.01s3.24-.75,3.24-.75l1.98,4.2"/>
      <path class="cls-4" d="M77.57,67.33s-5.31-3.05-12,.24c-6.68,3.29-6.57,7.97-6.57,7.97M87.9,314.38s-9.22-1.42-12.24,3.01c-3.01,4.43-4.08,16.32-4.25,22.17-.18,5.86-.89,16.68,4.96,20.05s19.5,2.31,23.76,2.31,10.29-.18,13.48-4.61c3.19-4.43,2.13-19.19,2.13-19.19l-.89-15.41s1.6-6.2-6.74-7.63c-8.34-1.42-20.21-.71-20.21-.71h0Z"/>
      <path class="cls-4" d="M66.27,386.56s-1.24-21.28,10.11-26.96M59.89,385.86s-2.66-24.38,13.21-30.02"/>
      <path class="cls-4" d="M68.75,394.55s2.13-8.33-5.85-8.69-11.88,8.69-11.88,8.69h17.74ZM72.62,327.06s-13.09-.98-13.62-8.43c-.54-7.45,2.31-11.53,2.31-11.53,0,0,4.25-.71,6.2-5.68,1.95-4.97,2.31-7.63,2.31-7.63l-4.7-.89s-2.35,7.27-6.19,6.21-.65-6.21-.65-6.21h-4.61s-3.19,7.27-1.24,10.29c1.95,3.02,4.61,2.31,4.61,2.31,0,0-7.8,6.74-6.92,17.74.88,11,12.01,13.13,21.17,12.59M79.59,314.8s-.91-2.91,2.64-3.98c3.55-1.06,23.05-.71,23.05-.71,0,0,5.93.14,4.92,5.48M114.89,320.46c13.86-7.76,15.22-23.47,15.22-23.47,0,0-6.74.36-6.56-5.86s4.25-11,4.25-11h6.56s-4.96,8.16,0,9.05c4.96.89,5.85-6.21,5.85-6.21l6.56.18s-.36,7.63-3.19,10.82c-2.83,3.19-7.8,3.01-7.8,3.01,0,0,.36,14.19-5.68,21.82-6.03,7.63-14.82,11.36-14.82,11.36M72.12,353.04s.34,3.9,22.78,4.96M115.04,353.68s-1.96,3.27-16.68,4.33M110.31,360.13s1.35,3.73-4.32,5.15c-5.68,1.42-20.75,1.06-25,0s-6.65-4.39-6.65-4.39M115.91,350.21s3.56-5.14,11.18-4.79c7.62.35,10.46,9.98,7.27,17.76-3.19,7.78-5.12,12.49-5.12,12.49"/>
      <path class="cls-4" d="M120.63,380.57s6.46-14.4,6.99-19.55c.53-5.14-6.38-11.7-14.01-3.73"/>
      <path class="cls-4" d="M135.65,381.78s.65-4.96-2.88-5.86c-3.54-.89-10.82.18-14.89,8.33l17.79-2.49h0ZM82.23,310.83s-2.31-19.33-1.6-27.32,4.79-9.58,7.98-10.11c3.19-.54,12.3-3.37,21.84,2.31s-3.07,34.83-3.07,34.83"/>
      <path class="cls-4" d="M92.62,310.06s-7.2-23.89-1.35-26.37c5.86-2.49,7.45,11.7,4.43,12.06-3.01.36-2.31-13.48,4.79-13.48s-1.42,27.79-1.42,27.79M108.83,280.14s.89,2.49,0,6.03M63.58,324.74s-4.74,5.62-5.91,9.16M57.68,316.33s-3.69-.2-7.48,2.83M61.3,307.1s-.88-2.13-4.25-1.6M122.36,314.41s5.14,2.19,6.26,6.13M128.62,303.36s4.72-.6,6.38,2.9M135.78,296.99s-1.77-1.24-5.68,0M128.62,345.63s-.4,6.5-3.9,9.26M127.18,363.18s3.45,2.33,7.17,0M64.91,362.07l4.92,4.49M60.11,375.67h6.3M99.25,324.74l-.89,18.02,10.66.71.2-18.73h-9.97ZM103.32,330.16h1.79M102.45,338.12h2.65M78.15,322.89s.79-3.58,5.36-3.74M76.37,325.9s-.61,1.18-.69,2.31M329.3,87.21c.26.45,7.54,14.03,7.54,14.03l12.62-6.58-7.67-13.2,8.08-5.3-21.51-6.67-5.97,22.18,6.91-4.47v.02h0Z"/>
      <path class="cls-4" d="M347.97,92.1s18.92-9.23,23.04-15.39c4.11-6.16,5.45-16.59-2.32-25.81-7.76-9.22-18.3-8.67-28.51-2.6,0,0-11.35-10.45-26.03,1.4-14.68,11.85-8.48,25.14-5.82,30.24,0,0-18.17,6.63-10.12,22.32,8.05,15.69,37.52-3.08,37.52-3.08"/>
      <path class="cls-4" d="M349.91,49.45s8.43-.8,11.44,3.85M364.07,55.4l.78,1.35M301.89,99.22s-1.4-3.71-.69-6.38M301.9,90.16l1.04-2.11M335.48,92.68l8.71,2.03M337.02,95.32l4.36,1.01M242.63,157.96s0,3.24-5.23,3.01c-5.23-.23-5.23-3.01-5.23-3.01M419.87,190.67c1.24-3.07,3.64-4.14,6.02-2.71,2.67,1.61,5.19,1.74,6.73-1.71.86-1.94,1-2.66.43-4.9-.57-2.25-2.33-5.53-4.06-7.52"/>
      <path class="cls-4" d="M408.5,175c-.81,1.55-1.2,3.28-1.36,5.02-.12,1.34-.55,3.05-1.92,2.56-2.18-.77-7.33-3.44-9.05.09s-3.81,5.95.31,7.36c4.12,1.41,4.91,1.05,3.8,5.01-1.11,3.97-7.73,20.27-9.05,22.03s-.16,2.48,4.45,5.03c4.61,2.55,5.28,2.73,7.11-1.03s8.33-20.13,10.14-20.75c1.8-.62,3.87,1.29,6.03-.36,2.16-1.65,3.39-5.41,3.39-5.41,0,0,1.37-2.19-2.33-3.85-3.7-1.66-5.08-1.29-4.03-5.28,1.05-3.99,3.75-5.53,6.42-3.92,2.67,1.61,4.66,1.52,6.2-1.93,1.54-3.46,1.88-5.4-1.76-7.47-3.26-1.86-13.81-5.84-18.36,2.88v.02s0,0,0,0Z"/>
      <path class="cls-4" d="M391.11,219.17s3.17,6.04,3.37,6.31c.58.78,2.08,1.64,4.68,3.08,4.61,2.55,5.28,2.73,7.11-1.03,1.84-3.76,8.33-20.13,10.14-20.75,1.8-.62,3.87,1.29,6.03-.36,2.16-1.65,3.39-5.4,3.39-5.4,0,0,.17-.56.21-1.36.17-3.32-3.42-7.24-3.96-7.45M162.97,33.66c4.91,2.98,7.53,2.98,10.34,0s2.45-7.01-9.02-8.59c-11.47-1.57-27.42,1.23-30.4,23.49-2.98,22.26,10.51,27.87,25.23,30.32,14.72,2.45,20.15-8.06,20.5-17,.35-8.94,3.16-14.55-4.73-15.25-7.89-.7-16.47-1.75-16.3,4.03.18,5.78,1.92,5.08,5.43,4.91,3.51-.17,6.22.88,5.21,6.14-1.01,5.26-9.06,11.57-17.83,5.78-8.76-5.79-10.34-16.12-6.83-25.24,3.51-9.12,13.49-11.57,18.4-8.59h0s0,0,0,0Z"/>
      <path class="cls-4" d="M167.41,35.7c4.91,2.98,9.37,3.98,12.18,1.01,2.58-2.74-.35-8.51-9.34-10.3M156.63,69.45c-6.62-5.98-7.58-15.18-4.43-23.38,2.46-6.4,8.13-10.6,12.98-11.19"/>
      <path class="cls-4" d="M143.72,73.98c4.7,3.41,16.59,7.64,23.03,8.72,14.72,2.45,20.15-8.06,20.5-17,.26-6.71,1.91-11.53-.61-13.82-.84-.77-9.56-4.95-10.26-5.02M285.26,9.6l-3.92,9.87M228.35,24.01s-.21-1.11.49-1.4c.71-.28,3.22,8.74,2.59,9.3-.63.56-.94-1.06-.94-1.06M235.76,7.86c-2.17,1.33-5.52,3.15-3.35,11.89s4.41,16.16,10.91,15.39c6.5-.76,23.21-6.09,32.37-6.22,9.16-.14,17.2-2.52,17.61-6.65.42-4.13-2.72-16.64-4.2-18.81-1.47-2.17-3.22-3.85-12.09-2.17-8.88,1.68-39.08,5.24-41.25,6.57h0Z"/>
      <path class="cls-4" d="M228.2,34.02c.68,2.09,1.4,3.84,2.1,4.54,1.96,1.96,6.78,3.43,11.74,1.82s28.04-5.59,33.56-5.67c5.52-.08,10.42-.28,12.02-2.65,1.61-2.38,5.45-5.73,5.67-9.79M233.92,9.12s-4.03,3.84-6.27,5.65c-2.24,1.81-2.87,5.17-2.17,8.46.15.72.37,1.75.65,2.96"/>
      <path class="cls-4" d="M231.25,29.48s-2.55,5.3-6.88,7.68c-4.33,2.38-9.23,6.15-9.44,8.26"/>
      <path class="cls-4" d="M229.36,23.26s-2.9,3.2-6.75,5.3-9.79,5.52-8.81,13.36c.98,7.83,7.83,11.96,17.9,12.17,10.07.21,21.61-4.89,27.97-6.22,6.36-1.33,11.96-1.26,15.59-2.87,3.63-1.61,7.74-4.73,8.36-10.84"/>
      <path class="cls-4" d="M287.63,32.05s-3,11.26-5.04,15.81c-2.03,4.55-6.22,7.63-12.17,7.83-5.95.21-16.29,3.78-25.1,6.37-8.82,2.59-17.9,3.85-24.75-1.26-6.85-5.11-6.57-7.98-6.5-11.19.07-3.22-.38-9.16-.38-9.16M281.34.66l-8.45,19.43M272.46,29.12c.09,0,7.42-16.23,7.42-16.23M247.5,21.01l-7,13.89M252.05,14.53l4.35-10.19M247.5,11.21l-4.89,10.49M207.72,135.25s.26,18.25,9.71,26.15c6.03,5.04,16.7,6.64,16.7,6.64,0,0,.71-3.42,4.63-3.26,3.92.16,4.41,3.26,4.41,3.26,0,0,6.75-.2,13.63-5.11,9.84-7.01,8.31-26.46,8.31-26.46"/>
      <path class="cls-4" d="M264.22,150.45s.54,10.06-.66,14.46-4.4,7.99-8.48,9.76c-4.08,1.76-10.63,2.56-18.39,2.48-7.76-.09-13.19-1.36-16.54-2.96-3.36-1.6-7.12-6.24-8.07-11.12-.95-4.88-1.9-12.62-1.9-12.62M248.97,135.42s-10,.57-9.54-4.33c.36-3.79,7.47-4.64,12.11-4.37,4.64.27,7.32,2.44,6.88,5.22-.6,3.83-9.45,3.48-9.45,3.48h0ZM223.26,135.42s-10,.57-9.54-4.33c.36-3.79,7.47-4.64,12.11-4.37s7.32,2.44,6.88,5.22c-.6,3.83-9.45,3.48-9.45,3.48h0ZM247.49,296.9c-10.76,6.83-10.9,6.83-21.66,0-4.33-1.91-2.31-10.56-2.74-14.09,0-1.96,1.04-3.77,2.74-4.75,10.76-6.83,10.9-6.83,21.66,0,4.33,1.91,2.31,10.56,2.74,14.09,0,1.96-1.04,3.77-2.74,4.75Z"/>
      <path class="cls-4" d="M233.21,288.77c1.63,1.09.37,3.84,1.05,5.42.55,1.81,2.26,2.74,4.12,3.19l.71-1.8c-3.19-1.58.37-6.98-3.74-8.12,4.11-1.14.54-6.54,3.74-8.12l-.71-1.78c-1.37.34-2.55.88-3.39,1.85-1.18,1.26-.92,3.33-.94,4.92-.02,1.09-.37,2-1.54,1.99.13.65-.44,2.56.7,2.44h0,0Z"/>
    </g>
  </g>
</svg>